<?xml version="1.0" encoding="UTF-8" standalone="no"?>
<!-- Created with Inkscape (http://www.inkscape.org/) -->

<svg
   xmlns:dc="http://purl.org/dc/elements/1.1/"
   xmlns:cc="http://creativecommons.org/ns#"
   xmlns:rdf="http://www.w3.org/1999/02/22-rdf-syntax-ns#"
   xmlns:svg="http://www.w3.org/2000/svg"
   xmlns="http://www.w3.org/2000/svg"
   version="1.1"
   width="247.86125"
   height="116.05"
   id="svg2"
   xml:space="preserve"><metadata
     id="metadata8"><rdf:RDF><cc:Work
         rdf:about=""><dc:format>image/svg+xml</dc:format><dc:type
           rdf:resource="http://purl.org/dc/dcmitype/StillImage" /><dc:title></dc:title></cc:Work></rdf:RDF></metadata><defs
     id="defs6" /><g
     transform="matrix(1.25,0,0,-1.25,0,116.05)"
     id="g10"><path
       d="m -8.8923116,13.59117 0,32.07243 44.3999416,0 0,-32.07243 -44.3999416,0 z"
       id="path20"
       style="fill:#bfbfbf;fill-opacity:1;fill-rule:nonzero;stroke:#000000;stroke-width:1.02094042;stroke-linecap:butt;stroke-linejoin:miter;stroke-miterlimit:10;stroke-opacity:1;stroke-dasharray:none" /><path
       d="m -17.77232,10.048297 0,39.158176 c 0,2.766884 2.328768,5.009808 5.20155,5.009808 l 51.756871,0 c 2.872782,0 5.201551,-2.242924 5.201551,-5.009808 l 0,-39.158176 c 0,-2.7668839 -2.328769,-5.0098077 -5.201551,-5.0098077 l -51.756871,0 c -2.872782,0 -5.20155,2.2429238 -5.20155,5.0098077 z"
       id="path22"
       style="fill:none;stroke:#000000;stroke-width:0.51046377;stroke-linecap:butt;stroke-linejoin:miter;stroke-miterlimit:10;stroke-opacity:1;stroke-dasharray:none" /><path
       d="m 6.6476128,5.0384893 0,-2.1381293 14.4300082,0 0,2.1381293 -14.4300082,0 z"
       id="path24"
       style="fill:none;stroke:#000000;stroke-width:0.51046377;stroke-linecap:butt;stroke-linejoin:miter;stroke-miterlimit:10;stroke-opacity:1;stroke-dasharray:none" /><path
       d="m -8.8923116,2.90036 0,-3.207282 45.5100006,0 0,3.207282 -45.5100006,0 z"
       id="path26"
       style="fill:none;stroke:#000000;stroke-width:0.51046377;stroke-linecap:butt;stroke-linejoin:miter;stroke-miterlimit:10;stroke-opacity:1;stroke-dasharray:none" /><g
       transform="translate(-47.318966,-0.56332103)"
       id="g3066"><path
         d="m 149.9464,20.60923 0,71.43463 124.16022,0 0,-71.43463 -124.16022,0 z"
         id="path30"
         style="fill:#000000;fill-opacity:1;fill-rule:nonzero;stroke:#000000;stroke-width:1.59404004;stroke-linecap:butt;stroke-linejoin:miter;stroke-miterlimit:10;stroke-opacity:1;stroke-dasharray:none" /><path
         d="m 151.64719,22.31002 0,68.03303 120.75862,0 0,-68.03303 -120.75862,0 z"
         id="path34"
         style="fill:#bfbfbf;fill-opacity:1;fill-rule:nonzero;stroke:#000000;stroke-width:1.59404004;stroke-linecap:butt;stroke-linejoin:miter;stroke-miterlimit:10;stroke-opacity:1;stroke-dasharray:none" /><path
         d="m 206.92403,22.31002 0,-22.11079 6.80333,0 0,22.11079 -6.80333,0 z"
         id="path38"
         style="fill:#000000;fill-opacity:1;fill-rule:nonzero;stroke:#000000;stroke-width:0.3985;stroke-linecap:butt;stroke-linejoin:miter;stroke-miterlimit:10;stroke-opacity:1;stroke-dasharray:none" /><path
         d="m 189.91578,0.19923 0,1.7008 39.96938,0 0,-1.7008 -39.96938,0 z"
         id="path42"
         style="fill:#000000;fill-opacity:1;fill-rule:nonzero;stroke:#000000;stroke-width:0.3985;stroke-linecap:butt;stroke-linejoin:miter;stroke-miterlimit:10;stroke-opacity:1;stroke-dasharray:none" /></g></g></svg>