<?xml version="1.0" encoding="UTF-8" standalone="no"?>
<!-- Created with Inkscape (http://www.inkscape.org/) -->

<svg
   xmlns:dc="http://purl.org/dc/elements/1.1/"
   xmlns:cc="http://creativecommons.org/ns#"
   xmlns:rdf="http://www.w3.org/1999/02/22-rdf-syntax-ns#"
   xmlns:svg="http://www.w3.org/2000/svg"
   xmlns="http://www.w3.org/2000/svg"
   version="1.1"
   width="357.12"
   height="445.75125"
   id="svg2"
   xml:space="preserve"><metadata
     id="metadata8"><rdf:RDF><cc:Work
         rdf:about=""><dc:format>image/svg+xml</dc:format><dc:type
           rdf:resource="http://purl.org/dc/dcmitype/StillImage" /><dc:title></dc:title></cc:Work></rdf:RDF></metadata><defs
     id="defs6"><marker
       refX="0"
       refY="0"
       orient="auto"
       id="TriangleOutM"
       style="overflow:visible"><path
         d="m 5.77,0 -8.65,5 0,-10 8.65,5 z"
         transform="scale(0.4,0.4)"
         id="path4874"
         style="fill-rule:evenodd;stroke:#000000;stroke-width:1pt;marker-start:none" /></marker><marker
       refX="0"
       refY="0"
       orient="auto"
       id="TriangleOutL"
       style="overflow:visible"><path
         d="m 5.77,0 -8.65,5 0,-10 8.65,5 z"
         transform="scale(0.8,0.8)"
         id="path4871"
         style="fill-rule:evenodd;stroke:#000000;stroke-width:1pt;marker-start:none" /></marker></defs><g
     transform="matrix(1.25,0,0,-1.25,0,445.75125)"
     id="g10"><g
       transform="translate(22.998741,-89.047081)"
       id="g22"><path
         d="m 0,439.37553 141.73404,0"
         id="path24"
         style="fill:none;stroke:#000000;stroke-width:1.59404004;stroke-linecap:butt;stroke-linejoin:miter;stroke-miterlimit:10;stroke-opacity:1;stroke-dasharray:none" /></g><g
       transform="translate(24.082943,-98.443494)"
       id="g42"><path
         d="m 0,416.96518 0,-18.95961 c 0,-2.20094 1.78416,-3.98511 3.9851,-3.98511 l 133.76383,0 c 2.20094,0 3.98511,1.78417 3.98511,3.98511 l 0,18.95961 c 0,2.20094 -1.78417,3.98511 -3.98511,3.98511 l -133.76383,0 C 1.78416,420.95029 0,419.16612 0,416.96518 z"
         id="path44"
         style="fill:#bfbfbf;fill-opacity:1;fill-rule:nonzero;stroke:#000000;stroke-width:0.79701;stroke-linecap:butt;stroke-linejoin:miter;stroke-miterlimit:10;stroke-opacity:1;stroke-dasharray:none" /></g><g
       transform="translate(24.082943,-98.443494)"
       id="g62"><path
         d="m 0,378.69681 0,-18.95917 c 0,-2.20093 1.78416,-3.98511 3.9851,-3.98511 l 133.76383,0 c 2.20094,0 3.98511,1.78418 3.98511,3.98511 l 0,18.95917 c 0,2.20094 -1.78417,3.98511 -3.98511,3.98511 l -133.76383,0 C 1.78416,382.68192 0,380.89775 0,378.69681 z"
         id="path64"
         style="fill:#bfbfbf;fill-opacity:1;fill-rule:nonzero;stroke:#000000;stroke-width:0.79701;stroke-linecap:butt;stroke-linejoin:miter;stroke-miterlimit:10;stroke-opacity:1;stroke-dasharray:none" /></g><g
       transform="translate(24.082943,-98.443494)"
       id="g82"><path
         d="m 0,325.9883 0,-99.21382 28.3468,0 0,99.21382 -28.3468,0 z"
         id="path84"
         style="fill:#bfbfbf;fill-opacity:1;fill-rule:nonzero;stroke:#000000;stroke-width:0.79701;stroke-linecap:butt;stroke-linejoin:miter;stroke-miterlimit:10;stroke-opacity:1;stroke-dasharray:none" /></g><g
       transform="translate(24.082943,-98.443494)"
       id="g102"><path
         d="m 36.85092,325.9883 0,-99.21382 28.34682,0 0,99.21382 -28.34682,0 z"
         id="path104"
         style="fill:#bfbfbf;fill-opacity:1;fill-rule:nonzero;stroke:#000000;stroke-width:0.79701;stroke-linecap:butt;stroke-linejoin:miter;stroke-miterlimit:10;stroke-opacity:1;stroke-dasharray:none" /></g><g
       transform="translate(24.082943,-98.443494)"
       id="g122"><path
         d="m 73.70186,325.9883 0,-99.21382 28.34682,0 0,99.21382 -28.34682,0 z"
         id="path124"
         style="fill:#bfbfbf;fill-opacity:1;fill-rule:nonzero;stroke:#000000;stroke-width:0.79701;stroke-linecap:butt;stroke-linejoin:miter;stroke-miterlimit:10;stroke-opacity:1;stroke-dasharray:none" /></g><g
       transform="translate(24.082943,-98.443494)"
       id="g142"><path
         d="m 110.55237,325.9883 0,-99.21382 31.18167,0 0,99.21382 -31.18167,0 z"
         id="path144"
         style="fill:#bfbfbf;fill-opacity:1;fill-rule:nonzero;stroke:#000000;stroke-width:0.79701;stroke-linecap:butt;stroke-linejoin:miter;stroke-miterlimit:10;stroke-opacity:1;stroke-dasharray:none" /></g><g
       transform="translate(24.082943,-98.443494)"
       id="g162"><path
         d="m 0,194.44255 0,-20.37659 c 0,-2.20094 1.78416,-3.9851 3.9851,-3.9851 l 133.76383,0 c 2.20094,0 3.98511,1.78416 3.98511,3.9851 l 0,20.37659 c 0,2.20095 -1.78417,3.98511 -3.98511,3.98511 l -133.76383,0 C 1.78416,198.42766 0,196.6435 0,194.44255 z"
         id="path164"
         style="fill:#bfbfbf;fill-opacity:1;fill-rule:nonzero;stroke:#000000;stroke-width:0.79701;stroke-linecap:butt;stroke-linejoin:miter;stroke-miterlimit:10;stroke-opacity:1;stroke-dasharray:none" /></g><g
       transform="translate(24.082943,-98.443494)"
       id="g182"><path
         d="m 0,131.54573 0,20.3766 c 0,2.20095 1.78416,3.98511 3.9851,3.98511 l 133.76383,0 c 2.20094,0 3.98511,-1.78416 3.98511,-3.98511 l 0,-20.3766 c 0,-2.20094 -1.78417,-3.98511 -3.98511,-3.98511 l -133.76383,0 C 1.78416,127.56062 0,129.34479 0,131.54573 z"
         id="path184"
         style="fill:#bfbfbf;fill-opacity:1;fill-rule:nonzero;stroke:#000000;stroke-width:0.79701;stroke-linecap:butt;stroke-linejoin:miter;stroke-miterlimit:10;stroke-opacity:1;stroke-dasharray:none" /></g><g
       transform="translate(24.082943,-98.443494)"
       id="g202"><path
         d="M 71.228401,448.41054 70.867,420.95029"
         id="path204"
         style="fill:none;stroke:#000000;stroke-width:1.59404004;stroke-linecap:butt;stroke-linejoin:miter;stroke-miterlimit:10;stroke-opacity:1;stroke-dasharray:none" /></g><g
       transform="translate(24.082943,-98.443494)"
       id="g206"><path
         d="m 70.867,394.02046 0,-11.33854"
         id="path208"
         style="fill:none;stroke:#000000;stroke-width:1.59404004;stroke-linecap:butt;stroke-linejoin:miter;stroke-miterlimit:10;stroke-opacity:1;stroke-dasharray:none" /></g><g
       transform="translate(24.082943,-98.443494)"
       id="g210"><path
         d="m 70.867,340.16171 0,15.59082"
         id="path212"
         style="fill:none;stroke:#000000;stroke-width:1.59404004;stroke-linecap:butt;stroke-linejoin:miter;stroke-miterlimit:10;stroke-opacity:1;stroke-dasharray:none" /></g><g
       transform="translate(24.082943,-98.443494)"
       id="g214"><path
         d="m 14.17339,340.16171 113.38723,0"
         id="path216"
         style="fill:none;stroke:#000000;stroke-width:1.59404004;stroke-linecap:butt;stroke-linejoin:miter;stroke-miterlimit:10;stroke-opacity:1;stroke-dasharray:none" /></g><g
       transform="translate(24.082943,-98.443494)"
       id="g218"><path
         d="m 14.17339,340.16171 0,-14.17341"
         id="path220"
         style="fill:none;stroke:#000000;stroke-width:1.59404004;stroke-linecap:butt;stroke-linejoin:miter;stroke-miterlimit:10;stroke-opacity:1;stroke-dasharray:none" /></g><g
       transform="translate(24.082943,-98.443494)"
       id="g222"><path
         d="m 51.02432,340.16171 0,-14.17341"
         id="path224"
         style="fill:none;stroke:#000000;stroke-width:1.59404004;stroke-linecap:butt;stroke-linejoin:miter;stroke-miterlimit:10;stroke-opacity:1;stroke-dasharray:none" /></g><g
       transform="translate(24.082943,-98.443494)"
       id="g226"><path
         d="m 87.87527,340.16171 0,-14.17341"
         id="path228"
         style="fill:none;stroke:#000000;stroke-width:1.59404004;stroke-linecap:butt;stroke-linejoin:miter;stroke-miterlimit:10;stroke-opacity:1;stroke-dasharray:none" /></g><g
       transform="translate(24.082943,-98.443494)"
       id="g230"><path
         d="m 127.56062,340.16171 0,-14.17341"
         id="path232"
         style="fill:none;stroke:#000000;stroke-width:1.59404004;stroke-linecap:butt;stroke-linejoin:miter;stroke-miterlimit:10;stroke-opacity:1;stroke-dasharray:none" /></g><g
       transform="translate(24.082943,-98.443494)"
       id="g234"><path
         d="m 14.17339,226.77448 0,-28.34682"
         id="path236"
         style="fill:none;stroke:#000000;stroke-width:1.59404004;stroke-linecap:butt;stroke-linejoin:miter;stroke-miterlimit:10;stroke-opacity:1;stroke-dasharray:none" /></g><g
       transform="translate(24.082943,-98.443494)"
       id="g238"><path
         d="m 51.02432,226.77448 0,-28.34682"
         id="path240"
         style="fill:none;stroke:#000000;stroke-width:1.59404004;stroke-linecap:butt;stroke-linejoin:miter;stroke-miterlimit:10;stroke-opacity:1;stroke-dasharray:none" /></g><g
       transform="translate(24.082943,-98.443494)"
       id="g242"><path
         d="m 87.87527,226.77448 0,-28.34682"
         id="path244"
         style="fill:none;stroke:#000000;stroke-width:1.59404004;stroke-linecap:butt;stroke-linejoin:miter;stroke-miterlimit:10;stroke-opacity:1;stroke-dasharray:none" /></g><g
       transform="translate(24.082943,-98.443494)"
       id="g246"><path
         d="m 127.56062,226.77448 0,-28.34682"
         id="path248"
         style="fill:none;stroke:#000000;stroke-width:1.59404004;stroke-linecap:butt;stroke-linejoin:miter;stroke-miterlimit:10;stroke-opacity:1;stroke-dasharray:none" /></g><g
       transform="translate(24.082943,-98.443494)"
       id="g250"><path
         d="m 70.867,170.08086 0,-14.17342"
         id="path252"
         style="fill:none;stroke:#000000;stroke-width:1.59404004;stroke-linecap:butt;stroke-linejoin:miter;stroke-miterlimit:10;stroke-opacity:1;stroke-dasharray:none" /></g><g
       transform="translate(24.082943,-98.443494)"
       id="g264"><g
         transform="translate(41.232,101.979)"
         id="g266"><g
           id="g268"><g
             transform="translate(-45.296,94.176)"
             id="g270"><text
               transform="matrix(1,0,0,-1,45.296,-94.176)"
               id="text272"><tspan
                 x="0"
                 y="0"
                 id="tspan274"
                 style="font-size:11.9552002px;font-variant:normal;font-weight:normal;writing-mode:lr-tb;fill:#000000;fill-opacity:1;fill-rule:nonzero;stroke:none;font-family:CMTT12;-inkscape-font-specification:CMTT12" /></text>
<g
               transform="translate(45.296,-94.176)"
               id="g276" /></g></g><g
           transform="translate(-41.232,-101.979)"
           id="g278" /></g></g><g
       transform="translate(2.6340755,-97.966852)"
       id="g280"><path
         d="m 0,430.87141 283.4681,0"
         id="path282"
         style="fill:none;stroke:#000000;stroke-width:0.3985;stroke-linecap:butt;stroke-linejoin:miter;stroke-miterlimit:10;stroke-opacity:1;stroke-dasharray:0.3985, 1.99255;stroke-dashoffset:0" /></g><g
       transform="translate(0.72750956,-101.30334)"
       id="g284"><path
         d="m 0,334.49242 283.4681,0"
         id="path286"
         style="fill:none;stroke:#000000;stroke-width:0.3985;stroke-linecap:butt;stroke-linejoin:miter;stroke-miterlimit:10;stroke-opacity:1;stroke-dasharray:0.3985, 1.99255;stroke-dashoffset:0" /></g><g
       transform="translate(1.2041511,-226.18341)"
       id="g3947"><path
         d="m 0,334.49242 283.4681,0"
         id="path3949"
         style="fill:none;stroke:#000000;stroke-width:0.3985;stroke-linecap:butt;stroke-linejoin:miter;stroke-miterlimit:10;stroke-opacity:1;stroke-dasharray:0.3985, 1.99255;stroke-dashoffset:0" /></g><g
       transform="matrix(0.64787973,0,0,1,207.58992,-98.443494)"
       id="g3951"><path
         d="m 0,131.54573 0,20.3766 c 0,2.20095 1.78416,3.98511 3.9851,3.98511 l 133.76383,0 c 2.20094,0 3.98511,-1.78416 3.98511,-3.98511 l 0,-20.3766 c 0,-2.20094 -1.78417,-3.98511 -3.98511,-3.98511 l -133.76383,0 C 1.78416,127.56062 0,129.34479 0,131.54573 z"
         id="path3953"
         style="fill:#bfbfbf;fill-opacity:1;fill-rule:nonzero;stroke:#000000;stroke-width:0.79701;stroke-linecap:butt;stroke-linejoin:miter;stroke-miterlimit:10;stroke-opacity:1;stroke-dasharray:none" /></g><path
       d="m 259.38198,390.96799 -46.15849,0.15972"
       transform="matrix(0.8,0,0,-0.8,0,356.601)"
       id="path5169"
       style="fill:none;stroke:#000000;stroke-width:2;stroke-linecap:butt;stroke-linejoin:miter;stroke-miterlimit:4;stroke-opacity:1;stroke-dasharray:none;marker-end:url(#TriangleOutM)" /><text
       x="82.760719"
       y="-38.30846"
       transform="scale(1,-1)"
       id="text5353"
       xml:space="preserve"
       style="font-size:32px;font-style:normal;font-weight:normal;line-height:125%;letter-spacing:0px;word-spacing:0px;fill:#000000;fill-opacity:1;stroke:none;font-family:Sans"><tspan
         x="82.760719"
         y="-38.30846"
         id="tspan5355"
         style="font-size:12.80000019px">DAC</tspan></text>
<text
       x="63.967892"
       y="4.3368187"
       transform="scale(1,-1)"
       id="text5357"
       xml:space="preserve"
       style="font-size:32px;font-style:normal;font-weight:normal;line-height:125%;letter-spacing:0px;word-spacing:0px;fill:#000000;fill-opacity:1;stroke:none;font-family:Sans"><tspan
         x="63.967892"
         y="4.3368187"
         id="tspan5359"
         style="font-size:12.80000019px">To Monitor</tspan></text>
<path
       d="m 120.16567,408.7077 0,21.68403"
       transform="matrix(0.8,0,0,-0.8,0,356.601)"
       id="path5361"
       style="fill:none;stroke:#000000;stroke-width:2;stroke-linecap:butt;stroke-linejoin:miter;stroke-miterlimit:4;stroke-opacity:1;stroke-dasharray:none;marker-end:url(#TriangleOutM)" /><text
       x="233.10333"
       y="-38.669857"
       transform="scale(1,-1)"
       id="text6095"
       xml:space="preserve"
       style="font-size:32px;font-style:normal;font-weight:normal;line-height:125%;letter-spacing:0px;word-spacing:0px;fill:#000000;fill-opacity:1;stroke:none;font-family:Sans"><tspan
         x="233.10333"
         y="-38.669857"
         id="tspan6097"
         style="font-size:12.80000019px">Palette</tspan></text>
<text
       x="47.704876"
       y="-82.399315"
       transform="scale(1,-1)"
       id="text6099"
       xml:space="preserve"
       style="font-size:32px;font-style:normal;font-weight:normal;line-height:125%;letter-spacing:0px;word-spacing:0px;fill:#000000;fill-opacity:1;stroke:none;font-family:Sans"><tspan
         x="47.704876"
         y="-82.399315"
         id="tspan6101"
         style="font-size:12.80000019px">CRTC Controller</tspan></text>
<text
       x="143.64725"
       y="-165.24887"
       transform="scale(0.95469366,-1.0474564)"
       id="text6103"
       xml:space="preserve"
       style="font-size:27.20659256px;font-style:normal;font-weight:normal;line-height:125%;letter-spacing:0px;word-spacing:0px;fill:#000000;fill-opacity:1;stroke:none;font-family:Sans"><tspan
         x="143.64725"
         y="-165.24887"
         id="tspan6105"
         style="font-size:10.88263702px">64kB</tspan></text>
<text
       x="31.441854"
       y="-265.62936"
       transform="scale(1,-1)"
       id="text6107"
       xml:space="preserve"
       style="font-size:32px;font-style:normal;font-weight:normal;line-height:125%;letter-spacing:0px;word-spacing:0px;fill:#000000;fill-opacity:1;stroke:none;font-family:Sans"><tspan
         x="31.441854"
         y="-265.62936"
         id="tspan6109"
         style="font-size:12.80000019px">Sequence Controller</tspan></text>
<text
       x="39.031261"
       y="-305.38342"
       transform="scale(1,-1)"
       id="text6111"
       xml:space="preserve"
       style="font-size:32px;font-style:normal;font-weight:normal;line-height:125%;letter-spacing:0px;word-spacing:0px;fill:#000000;fill-opacity:1;stroke:none;font-family:Sans"><tspan
         x="39.031261"
         y="-305.38342"
         id="tspan6113"
         style="font-size:12.80000019px">Graphic Controller</tspan></text>
<text
       x="103.14226"
       y="-164.90384"
       transform="scale(0.95469367,-1.0474564)"
       id="text6115"
       xml:space="preserve"
       style="font-size:27.20659256px;font-style:normal;font-weight:normal;line-height:125%;letter-spacing:0px;word-spacing:0px;fill:#000000;fill-opacity:1;stroke:none;font-family:Sans"><tspan
         x="103.14226"
         y="-164.90384"
         id="tspan6117"
         style="font-size:10.88263702px">64kB</tspan></text>
<text
       x="65.287132"
       y="-164.90384"
       transform="scale(0.95469367,-1.0474564)"
       id="text6119"
       xml:space="preserve"
       style="font-size:27.20659256px;font-style:normal;font-weight:normal;line-height:125%;letter-spacing:0px;word-spacing:0px;fill:#000000;fill-opacity:1;stroke:none;font-family:Sans"><tspan
         x="65.287132"
         y="-164.90384"
         id="tspan6121"
         style="font-size:10.88263702px">64kB</tspan></text>
<text
       x="25.917799"
       y="-165.59389"
       transform="scale(0.95469367,-1.0474564)"
       id="text6123"
       xml:space="preserve"
       style="font-size:27.20659256px;font-style:normal;font-weight:normal;line-height:125%;letter-spacing:0px;word-spacing:0px;fill:#000000;fill-opacity:1;stroke:none;font-family:Sans"><tspan
         x="25.917799"
         y="-165.59389"
         id="tspan6125"
         style="font-size:10.88263702px">64kB</tspan></text>
<text
       x="47.704876"
       y="-82.399315"
       transform="scale(1,-1)"
       id="text6127"
       xml:space="preserve"
       style="font-size:32px;font-style:normal;font-weight:normal;line-height:125%;letter-spacing:0px;word-spacing:0px;fill:#000000;fill-opacity:1;stroke:none;font-family:Sans"><tspan
         x="47.704876"
         y="-82.399315"
         id="tspan6129"
         style="font-size:12.80000019px">CRTC Controller</tspan></text>
<text
       x="70.111717"
       y="-353.08832"
       transform="scale(1,-1)"
       id="text6131"
       xml:space="preserve"
       style="font-size:32px;font-style:normal;font-weight:normal;line-height:125%;letter-spacing:0px;word-spacing:0px;fill:#000000;fill-opacity:1;stroke:none;font-family:Sans"><tspan
         x="70.111717"
         y="-353.08832"
         id="tspan6133"
         style="font-size:12.80000019px">Bus to CPU</tspan></text>
</g></svg>