<?xml version="1.0" encoding="UTF-8" standalone="no"?>
<!-- Created with Inkscape (http://www.inkscape.org/) -->

<svg
   xmlns:dc="http://purl.org/dc/elements/1.1/"
   xmlns:cc="http://creativecommons.org/ns#"
   xmlns:rdf="http://www.w3.org/1999/02/22-rdf-syntax-ns#"
   xmlns:svg="http://www.w3.org/2000/svg"
   xmlns="http://www.w3.org/2000/svg"
   xmlns:sodipodi="http://sodipodi.sourceforge.net/DTD/sodipodi-0.dtd"
   xmlns:inkscape="http://www.inkscape.org/namespaces/inkscape"
   id="svg2"
   version="1.1"
   inkscape:version="0.91 r13725"
   xml:space="preserve"
   width="223.47749"
   height="155.44749"
   viewBox="0 0 223.47749 155.44749"
   sodipodi:docname="dda.svg"><metadata
     id="metadata8"><rdf:RDF><cc:Work
         rdf:about=""><dc:format>image/svg+xml</dc:format><dc:type
           rdf:resource="http://purl.org/dc/dcmitype/StillImage" /><dc:title /></cc:Work></rdf:RDF></metadata><defs
     id="defs6" /><sodipodi:namedview
     pagecolor="#ffffff"
     bordercolor="#666666"
     borderopacity="1"
     objecttolerance="10"
     gridtolerance="10"
     guidetolerance="10"
     inkscape:pageopacity="0"
     inkscape:pageshadow="2"
     inkscape:window-width="1127"
     inkscape:window-height="759"
     id="namedview4"
     showgrid="false"
     inkscape:zoom="7.8469862"
     inkscape:cx="157.02653"
     inkscape:cy="126.15695"
     inkscape:window-x="0"
     inkscape:window-y="0"
     inkscape:window-maximized="0"
     inkscape:current-layer="g12" /><g
     id="g10"
     inkscape:groupmode="layer"
     inkscape:label="dda"
     transform="matrix(1.25,0,0,-1.25,0,155.4475)"><g
       id="g12"
       transform="translate(8.604,8.604)"><path
         inkscape:connector-curvature="0"
         id="path20"
         style="fill:none;stroke:#808080;stroke-width:0.19925;stroke-linecap:butt;stroke-linejoin:miter;stroke-miterlimit:10;stroke-dasharray:none;stroke-opacity:1"
         d="m -8.50412,0 178.58498,0 m -178.58498,28.3468 178.58498,0 m -178.58498,28.34682 178.58498,0 m -178.58498,28.3468 178.58498,0 m -178.58498,28.33685 178.58498,0 M 0,-8.50412 0,113.38724 m 28.3468,-121.89136 0,121.89136 m 28.34682,-121.89136 0,121.89136 m 28.3468,-121.89136 0,121.89136 m 28.34682,-121.89136 0,121.89136 m 28.3468,-121.89136 0,121.89136 m 28.33685,-121.89136 0,121.89136" /><g
         id="g30"
         transform="translate(2.292,7.194)"><g
           id="g32"><g
             id="g34"
             transform="translate(-10.896,-15.798)"><text
               transform="matrix(1,0,0,-1,10.896,15.798)"
               style="font-variant:normal;font-weight:normal;font-size:4.98129988px;font-family:CMR5;-inkscape-font-specification:CMR5;writing-mode:lr-tb;fill:#000000;fill-opacity:1;fill-rule:nonzero;stroke:none"
               id="text36"><tspan
                 x="0 3.735975 5.7424426 8.9583702 12.35213 15.396202"
                 y="0"
                 sodipodi:role="line"
                 id="tspan38">player</tspan></text>
<g
               id="g40"
               transform="translate(10.896,15.798)" /></g></g><g
           id="g42"
           transform="translate(-2.292,-7.194)" /></g><path
         d="M 11.33855,14.17339 162.62941,89.8186"
         style="fill:none;stroke:#000000;stroke-width:0.3985;stroke-linecap:butt;stroke-linejoin:miter;stroke-miterlimit:10;stroke-dasharray:none;stroke-opacity:1"
         id="path46"
         inkscape:connector-curvature="0" /><path
         d="m 164.41156,90.709695 -3.56431,-3.7e-5 1.78216,-0.891058 -0.35641,-1.96037"
         style="fill:#000000;fill-opacity:1;fill-rule:nonzero;stroke:none"
         id="path52"
         inkscape:connector-curvature="0" /><g
         id="g64"
         transform="translate(19.943,20.985)"><g
           id="g66"
           transform="translate(-28.547,-29.589)"><text
             transform="matrix(1,0,0,-1,28.547,29.589)"
             style="font-variant:normal;font-weight:normal;font-size:4.98129988px;font-family:CMR5;-inkscape-font-specification:CMR5;writing-mode:lr-tb;fill:#000000;fill-opacity:1;fill-rule:nonzero;stroke:none"
             id="text68"><tspan
               x="0"
               y="0"
               id="tspan70">A</tspan></text>
<g
             id="g72"
             transform="translate(28.547,29.589)" /></g></g><g
         id="g74" /><path
         inkscape:connector-curvature="0"
         id="path78"
         style="fill:#0000ff;fill-opacity:1;fill-rule:nonzero;stroke:none"
         d="m 29.76529,22.67833 c 0,0.78284 -0.6346,1.41742 -1.41742,1.41742 -0.78284,0 -1.41742,-0.63458 -1.41742,-1.41742 0,-0.78282 0.63458,-1.41742 1.41742,-1.41742 0.78282,0 1.41742,0.6346 1.41742,1.41742 z" /><g
         id="g90"
         transform="translate(31.512,26.655)"><g
           id="g92"
           transform="translate(-40.116,-35.259)"><text
             transform="matrix(1,0,0,-1,40.116,35.259)"
             style="font-variant:normal;font-weight:normal;font-size:4.98129988px;font-family:CMR5;-inkscape-font-specification:CMR5;writing-mode:lr-tb;fill:#000000;fill-opacity:1;fill-rule:nonzero;stroke:none"
             id="text94"><tspan
               x="0"
               y="0"
               id="tspan96">B</tspan></text>
<g
             id="g98"
             transform="translate(40.116,35.259)" /></g></g><g
         id="g100" /><path
         inkscape:connector-curvature="0"
         id="path104"
         style="fill:#ff0000;fill-opacity:1;fill-rule:nonzero;stroke:none"
         d="m 41.10597,28.34846 c 0,0.78283 -0.63458,1.41741 -1.41742,1.41741 -0.78282,0 -1.41742,-0.63458 -1.41742,-1.41741 0,-0.78283 0.6346,-1.41741 1.41742,-1.41741 0.78284,0 1.41742,0.63458 1.41742,1.41741 z" /><g
         id="g116"
         transform="translate(48.401,35.158)"><g
           id="g118"
           transform="translate(-57.005,-43.762)"><text
             transform="matrix(1,0,0,-1,57.005,43.762)"
             style="font-variant:normal;font-weight:normal;font-size:4.98129988px;font-family:CMR5;-inkscape-font-specification:CMR5;writing-mode:lr-tb;fill:#000000;fill-opacity:1;fill-rule:nonzero;stroke:none"
             id="text120"><tspan
               x="0"
               y="0"
               id="tspan122">C</tspan></text>
<g
             id="g124"
             transform="translate(57.005,43.762)" /></g></g><g
         id="g126" /><path
         inkscape:connector-curvature="0"
         id="path130"
         style="fill:#0000ff;fill-opacity:1;fill-rule:nonzero;stroke:none"
         d="m 58.11316,36.85205 c 0,0.78282 -0.6346,1.41742 -1.41742,1.41742 -0.78282,0 -1.41742,-0.6346 -1.41742,-1.41742 0,-0.78282 0.6346,-1.41742 1.41742,-1.41742 0.78282,0 1.41742,0.6346 1.41742,1.41742 z" /><g
         id="g142"
         transform="translate(76.522,49.331)"><g
           id="g144"
           transform="translate(-85.126,-57.935)"><text
             transform="matrix(1,0,0,-1,85.126,57.935)"
             style="font-variant:normal;font-weight:normal;font-size:4.98129988px;font-family:CMR5;-inkscape-font-specification:CMR5;writing-mode:lr-tb;fill:#000000;fill-opacity:1;fill-rule:nonzero;stroke:none"
             id="text146"><tspan
               x="0"
               y="0"
               id="tspan148">D</tspan></text>
<g
             id="g150"
             transform="translate(85.126,57.935)" /></g></g><g
         id="g152" /><path
         inkscape:connector-curvature="0"
         id="path156"
         style="fill:#0000ff;fill-opacity:1;fill-rule:nonzero;stroke:none"
         d="m 86.46274,51.0254 c 0,0.78283 -0.6346,1.41743 -1.41742,1.41743 -0.78282,0 -1.41742,-0.6346 -1.41742,-1.41743 0,-0.78283 0.6346,-1.41741 1.41742,-1.41741 0.78282,0 1.41742,0.63458 1.41742,1.41741 z" /><g
         id="g168"
         transform="translate(88.385,55.005)"><g
           id="g170"
           transform="translate(-96.989,-63.609)"><text
             transform="matrix(1,0,0,-1,96.989,63.609)"
             style="font-variant:normal;font-weight:normal;font-size:4.98129988px;font-family:CMR5;-inkscape-font-specification:CMR5;writing-mode:lr-tb;fill:#000000;fill-opacity:1;fill-rule:nonzero;stroke:none"
             id="text172"><tspan
               x="0"
               y="0"
               id="tspan174">E</tspan></text>
<g
             id="g176"
             transform="translate(96.989,63.609)" /></g></g><g
         id="g178" /><path
         inkscape:connector-curvature="0"
         id="path182"
         style="fill:#ff0000;fill-opacity:1;fill-rule:nonzero;stroke:none"
         d="m 97.80699,56.69865 c 0,0.78284 -0.63458,1.41742 -1.4174,1.41742 -0.78284,0 -1.41742,-0.63458 -1.41742,-1.41742 0,-0.78282 0.63458,-1.41742 1.41742,-1.41742 0.78282,0 1.4174,0.6346 1.4174,1.41742 z" /><g
         id="g194"
         transform="translate(105.562,63.505)"><g
           id="g196"
           transform="translate(-114.166,-72.109)"><text
             transform="matrix(1,0,0,-1,114.166,72.109)"
             style="font-variant:normal;font-weight:normal;font-size:4.98129988px;font-family:CMR5;-inkscape-font-specification:CMR5;writing-mode:lr-tb;fill:#000000;fill-opacity:1;fill-rule:nonzero;stroke:none"
             id="text198"><tspan
               x="0"
               y="0"
               id="tspan200">F</tspan></text>
<g
             id="g202"
             transform="translate(114.166,72.109)" /></g></g><g
         id="g204" /><path
         inkscape:connector-curvature="0"
         id="path208"
         style="fill:#0000ff;fill-opacity:1;fill-rule:nonzero;stroke:none"
         d="m 114.81119,65.19897 c 0,0.78284 -0.6346,1.41743 -1.41742,1.41743 -0.78282,0 -1.41742,-0.63459 -1.41742,-1.41743 0,-0.78282 0.6346,-1.4174 1.41742,-1.4174 0.78282,0 1.41742,0.63458 1.41742,1.4174 z" /><g
         id="g220"
         transform="translate(133.073,77.678)"><g
           id="g222"
           transform="translate(-141.677,-86.282)"><text
             transform="matrix(1,0,0,-1,141.677,86.282)"
             style="font-variant:normal;font-weight:normal;font-size:4.98129988px;font-family:CMR5;-inkscape-font-specification:CMR5;writing-mode:lr-tb;fill:#000000;fill-opacity:1;fill-rule:nonzero;stroke:none"
             id="text224"><tspan
               x="0"
               y="0"
               id="tspan226">G</tspan></text>
<g
             id="g228"
             transform="translate(141.677,86.282)" /></g></g><g
         id="g230" /><path
         inkscape:connector-curvature="0"
         id="path234"
         style="fill:#0000ff;fill-opacity:1;fill-rule:nonzero;stroke:none"
         d="m 143.15962,79.37254 c 0,0.78282 -0.6346,1.41742 -1.41742,1.41742 -0.78282,0 -1.41742,-0.6346 -1.41742,-1.41742 0,-0.78282 0.6346,-1.41742 1.41742,-1.41742 0.78282,0 1.41742,0.6346 1.41742,1.41742 z" /><g
         id="g246"
         transform="translate(144.683,83.354)"><g
           id="g248"
           transform="translate(-153.287,-91.958)"><text
             transform="matrix(1,0,0,-1,153.287,91.958)"
             style="font-variant:normal;font-weight:normal;font-size:4.98129988px;font-family:CMR5;-inkscape-font-specification:CMR5;writing-mode:lr-tb;fill:#000000;fill-opacity:1;fill-rule:nonzero;stroke:none"
             id="text250"><tspan
               x="0"
               y="0"
               id="tspan252">H</tspan></text>
<g
             id="g254"
             transform="translate(153.287,91.958)" /></g></g><g
         id="g256" /><path
         inkscape:connector-curvature="0"
         id="path260"
         style="fill:#ff0000;fill-opacity:1;fill-rule:nonzero;stroke:none"
         d="m 154.507,85.048 c 0,0.78284 -0.6346,1.41742 -1.41742,1.41742 -0.78282,0 -1.41742,-0.63458 -1.41742,-1.41742 0,-0.78282 0.6346,-1.41742 1.41742,-1.41742 0.78282,0 1.41742,0.6346 1.41742,1.41742 z" /><path
         inkscape:connector-curvature="0"
         id="path264"
         style="fill:none;stroke:#0000ff;stroke-width:0.3985;stroke-linecap:butt;stroke-linejoin:miter;stroke-miterlimit:10;stroke-dasharray:none;stroke-opacity:1"
         d="m 161.5767,24.67085 0,10.18868" /><g
         id="g268"
         transform="matrix(0,-1,1,0,161.5767,24.67085)"><path
           d="M 1.99252,0 -1.19551,1.59401 0,0 -1.19551,-1.59401"
           style="fill:#0000ff;fill-opacity:1;fill-rule:nonzero;stroke:none"
           id="path270"
           inkscape:connector-curvature="0" /></g><g
         id="g274"
         transform="matrix(0,1,-1,0,161.5767,34.85953)"><path
           d="M 1.99252,0 -1.19551,1.59401 0,0 -1.19551,-1.59401"
           style="fill:#0000ff;fill-opacity:1;fill-rule:nonzero;stroke:none"
           id="path276"
           inkscape:connector-curvature="0" /></g><g
         id="g280" /><g
         id="g282"
         transform="translate(142.28,28.717)"><g
           id="g284"><g
             id="g286"
             transform="translate(-150.884,-37.321)"><text
               transform="matrix(1,0,0,-1,150.884,37.321)"
               style="font-variant:normal;font-weight:normal;font-size:4.98129988px;font-family:CMR5;-inkscape-font-specification:CMR5;writing-mode:lr-tb;fill:#0000ff;fill-opacity:1;fill-rule:nonzero;stroke:none"
               id="text288"><tspan
                 sodipodi:role="line"
                 id="tspan290"
                 x="0"
                 y="0">ystep</tspan></text>
<g
               id="g292"
               transform="translate(150.884,37.321)" /></g></g><g
           id="g294"
           transform="translate(-142.28,-28.717)" /></g><path
         inkscape:connector-curvature="0"
         id="path298"
         style="fill:none;stroke:#0000ff;stroke-width:0.3985;stroke-linecap:butt;stroke-linejoin:miter;stroke-miterlimit:10;stroke-dasharray:none;stroke-opacity:1"
         d="m 161.5767,38.84457 0,10.18831" /><g
         id="g302"
         transform="matrix(0,-1,1,0,161.5767,38.84457)"><path
           d="M 1.99252,0 -1.19551,1.59401 0,0 -1.19551,-1.59401"
           style="fill:#0000ff;fill-opacity:1;fill-rule:nonzero;stroke:none"
           id="path304"
           inkscape:connector-curvature="0" /></g><g
         id="g308"
         transform="matrix(0,1,-1,0,161.5767,49.03288)"><path
           d="M 1.99252,0 -1.19551,1.59401 0,0 -1.19551,-1.59401"
           style="fill:#0000ff;fill-opacity:1;fill-rule:nonzero;stroke:none"
           id="path310"
           inkscape:connector-curvature="0" /></g><g
         id="g314" /><g
         id="g316"
         transform="translate(142.28,42.89)"><g
           id="g318"><g
             id="g320"
             transform="translate(-150.884,-51.494)"><text
               transform="matrix(1,0,0,-1,150.884,51.494)"
               style="font-variant:normal;font-weight:normal;font-size:4.98129988px;font-family:CMR5;-inkscape-font-specification:CMR5;writing-mode:lr-tb;fill:#0000ff;fill-opacity:1;fill-rule:nonzero;stroke:none"
               id="text322"><tspan
                 sodipodi:role="line"
                 id="tspan324"
                 x="0"
                 y="0">ystep</tspan></text>
<g
               id="g326"
               transform="translate(150.884,51.494)" /></g></g><g
           id="g328"
           transform="translate(-142.28,-42.89)" /></g><path
         inkscape:connector-curvature="0"
         id="path332"
         style="fill:none;stroke:#0000ff;stroke-width:0.3985;stroke-linecap:butt;stroke-linejoin:miter;stroke-miterlimit:10;stroke-dasharray:none;stroke-opacity:1"
         d="m 161.5767,53.01793 0,10.18852" /><g
         id="g336"
         transform="matrix(0,-1,1,0,161.5767,53.01793)"><path
           d="M 1.99252,0 -1.19551,1.59401 0,0 -1.19551,-1.59401"
           style="fill:#0000ff;fill-opacity:1;fill-rule:nonzero;stroke:none"
           id="path338"
           inkscape:connector-curvature="0" /></g><g
         id="g342"
         transform="matrix(0,1,-1,0,161.5767,63.20645)"><path
           d="M 1.99252,0 -1.19551,1.59401 0,0 -1.19551,-1.59401"
           style="fill:#0000ff;fill-opacity:1;fill-rule:nonzero;stroke:none"
           id="path344"
           inkscape:connector-curvature="0" /></g><g
         id="g348" /><g
         id="g350"
         transform="translate(142.28,57.063)"><g
           id="g352"><g
             id="g354"
             transform="translate(-150.884,-65.667)"><text
               transform="matrix(1,0,0,-1,150.884,65.667)"
               style="font-variant:normal;font-weight:normal;font-size:4.98129988px;font-family:CMR5;-inkscape-font-specification:CMR5;writing-mode:lr-tb;fill:#0000ff;fill-opacity:1;fill-rule:nonzero;stroke:none"
               id="text356"><tspan
                 sodipodi:role="line"
                 id="tspan358"
                 x="0"
                 y="0">ystep</tspan></text>
<g
               id="g360"
               transform="translate(150.884,65.667)" /></g></g><g
           id="g362"
           transform="translate(-142.28,-57.063)" /></g><path
         inkscape:connector-curvature="0"
         id="path366"
         style="fill:none;stroke:#0000ff;stroke-width:0.3985;stroke-linecap:butt;stroke-linejoin:miter;stroke-miterlimit:10;stroke-dasharray:none;stroke-opacity:1"
         d="m 161.5767,67.19151 0,10.18851" /><g
         id="g370"
         transform="matrix(0,-1,1,0,161.5767,67.19151)"><path
           d="M 1.99252,0 -1.19551,1.59401 0,0 -1.19551,-1.59401"
           style="fill:#0000ff;fill-opacity:1;fill-rule:nonzero;stroke:none"
           id="path372"
           inkscape:connector-curvature="0" /></g><g
         id="g376"
         transform="matrix(0,1,-1,0,161.5767,77.38002)"><path
           d="M 1.99252,0 -1.19551,1.59401 0,0 -1.19551,-1.59401"
           style="fill:#0000ff;fill-opacity:1;fill-rule:nonzero;stroke:none"
           id="path378"
           inkscape:connector-curvature="0" /></g><g
         id="g382" /><g
         id="g384"
         transform="translate(142.28,71.237)"><g
           id="g386"><g
             id="g388"
             transform="translate(-150.884,-79.841)"><text
               transform="matrix(1,0,0,-1,150.884,79.841)"
               style="font-variant:normal;font-weight:normal;font-size:4.98129988px;font-family:CMR5;-inkscape-font-specification:CMR5;writing-mode:lr-tb;fill:#0000ff;fill-opacity:1;fill-rule:nonzero;stroke:none"
               id="text390"><tspan
                 sodipodi:role="line"
                 id="tspan392"
                 x="0"
                 y="0">ystep</tspan></text>
<g
               id="g394"
               transform="translate(150.884,79.841)" /></g></g><g
           id="g396"
           transform="translate(-142.28,-71.237)" /></g><path
         inkscape:connector-curvature="0"
         id="path400"
         style="fill:none;stroke:#0000ff;stroke-width:0.3985;stroke-linecap:butt;stroke-linejoin:miter;stroke-miterlimit:10;stroke-dasharray:0.3985, 1.99255;stroke-dashoffset:0;stroke-opacity:1"
         d="m 28.34787,22.67833 133.22883,0" /><path
         inkscape:connector-curvature="0"
         id="path404"
         style="fill:none;stroke:#0000ff;stroke-width:0.3985;stroke-linecap:butt;stroke-linejoin:miter;stroke-miterlimit:10;stroke-dasharray:0.3985, 1.99255;stroke-dashoffset:0;stroke-opacity:1"
         d="m 56.69574,36.85205 104.88096,0" /><path
         inkscape:connector-curvature="0"
         id="path408"
         style="fill:none;stroke:#0000ff;stroke-width:0.3985;stroke-linecap:butt;stroke-linejoin:miter;stroke-miterlimit:10;stroke-dasharray:0.3985, 1.99255;stroke-dashoffset:0;stroke-opacity:1"
         d="m 85.04532,51.0254 76.53138,0" /><path
         inkscape:connector-curvature="0"
         id="path412"
         style="fill:none;stroke:#0000ff;stroke-width:0.3985;stroke-linecap:butt;stroke-linejoin:miter;stroke-miterlimit:10;stroke-dasharray:0.3985, 1.99255;stroke-dashoffset:0;stroke-opacity:1"
         d="m 113.39377,65.19897 48.18293,0" /><path
         inkscape:connector-curvature="0"
         id="path416"
         style="fill:none;stroke:#0000ff;stroke-width:0.3985;stroke-linecap:butt;stroke-linejoin:miter;stroke-miterlimit:10;stroke-dasharray:0.3985, 1.99255;stroke-dashoffset:0;stroke-opacity:1"
         d="m 141.7422,79.37254 19.8345,0" /><path
         inkscape:connector-curvature="0"
         id="path420"
         style="fill:none;stroke:#ff0000;stroke-width:0.3985;stroke-linecap:butt;stroke-linejoin:miter;stroke-miterlimit:10;stroke-dasharray:0.3985, 1.99255;stroke-dashoffset:0;stroke-opacity:1"
         d="m 39.68855,28.34846 0,76.53463" /><path
         inkscape:connector-curvature="0"
         id="path424"
         style="fill:none;stroke:#ff0000;stroke-width:0.3985;stroke-linecap:butt;stroke-linejoin:miter;stroke-miterlimit:10;stroke-dasharray:0.3985, 1.99255;stroke-dashoffset:0;stroke-opacity:1"
         d="m 96.38959,56.69865 0,48.18444" /><path
         inkscape:connector-curvature="0"
         id="path428"
         style="fill:none;stroke:#ff0000;stroke-width:0.3985;stroke-linecap:butt;stroke-linejoin:miter;stroke-miterlimit:10;stroke-dasharray:0.3985, 1.99255;stroke-dashoffset:0;stroke-opacity:1"
         d="m 153.08958,85.048 0,19.83509" /><path
         inkscape:connector-curvature="0"
         id="path432"
         style="fill:none;stroke:#ff0000;stroke-width:0.3985;stroke-linecap:butt;stroke-linejoin:miter;stroke-miterlimit:10;stroke-dasharray:none;stroke-opacity:1"
         d="m 41.68108,104.88309 52.71598,0" /><g
         id="g436"
         transform="matrix(-1,0,0,-1,41.68108,104.88309)"><path
           d="M 1.99252,0 -1.19551,1.59401 0,0 -1.19551,-1.59401"
           style="fill:#ff0000;fill-opacity:1;fill-rule:nonzero;stroke:none"
           id="path438"
           inkscape:connector-curvature="0" /></g><g
         id="g442"
         transform="translate(94.39706,104.88309)"><path
           d="M 1.99252,0 -1.19551,1.59401 0,0 -1.19551,-1.59401"
           style="fill:#ff0000;fill-opacity:1;fill-rule:nonzero;stroke:none"
           id="path444"
           inkscape:connector-curvature="0" /></g><g
         id="g448" /><g
         id="g450"
         transform="translate(60.151,109.37)"><g
           id="g452"><g
             id="g454"
             transform="translate(-68.755,-117.974)"><text
               transform="matrix(1,0,0,-1,68.755,117.974)"
               style="font-variant:normal;font-weight:normal;font-size:4.98129988px;font-family:CMR5;-inkscape-font-specification:CMR5;writing-mode:lr-tb;fill:#ff0000;fill-opacity:1;fill-rule:nonzero;stroke:none"
               id="text456"><tspan
                 sodipodi:role="line"
                 id="tspan458"
                 x="0"
                 y="0">xstep</tspan></text>
<g
               id="g460"
               transform="translate(68.755,117.974)" /></g></g><g
           id="g462"
           transform="translate(-60.151,-109.37)" /></g><path
         inkscape:connector-curvature="0"
         id="path466"
         style="fill:none;stroke:#ff0000;stroke-width:0.3985;stroke-linecap:butt;stroke-linejoin:miter;stroke-miterlimit:10;stroke-dasharray:none;stroke-opacity:1"
         d="m 98.38211,104.88309 52.71495,0" /><g
         id="g470"
         transform="matrix(-1,0,0,-1,98.38211,104.88309)"><path
           d="M 1.99252,0 -1.19551,1.59401 0,0 -1.19551,-1.59401"
           style="fill:#ff0000;fill-opacity:1;fill-rule:nonzero;stroke:none"
           id="path472"
           inkscape:connector-curvature="0" /></g><g
         id="g476"
         transform="translate(151.09706,104.88309)"><path
           d="M 1.99252,0 -1.19551,1.59401 0,0 -1.19551,-1.59401"
           style="fill:#ff0000;fill-opacity:1;fill-rule:nonzero;stroke:none"
           id="path478"
           inkscape:connector-curvature="0" /></g><g
         id="g482" /><g
         id="g484"
         transform="translate(116.85,109.37)"><g
           id="g486"><g
             id="g488"
             transform="translate(-125.454,-117.974)"><text
               transform="matrix(1,0,0,-1,125.454,117.974)"
               style="font-variant:normal;font-weight:normal;font-size:4.98129988px;font-family:CMR5;-inkscape-font-specification:CMR5;writing-mode:lr-tb;fill:#ff0000;fill-opacity:1;fill-rule:nonzero;stroke:none"
               id="text490"><tspan
                 sodipodi:role="line"
                 id="tspan492"
                 x="0"
                 y="0">xstep</tspan></text>
<g
               id="g494"
               transform="translate(125.454,117.974)" /></g></g><g
           id="g496"
           transform="translate(-116.85,-109.37)" /></g><path
         d="m 28.34679,14.17339 c 0,2.63496 -0.61406,5.23619 -1.79047,7.5937"
         style="fill:none;stroke:#000000;stroke-width:0.3985;stroke-linecap:butt;stroke-linejoin:miter;stroke-miterlimit:10;stroke-dasharray:none;stroke-opacity:1"
         id="path504"
         inkscape:connector-curvature="0" /><g
         id="g510" /><g
         id="g512"
         transform="translate(38.928,20.674)"><g
           id="g514" /><g
           id="g516"
           transform="translate(-38.928,-20.674)" /></g><path
         d="m 11.33855,14.17339 17.00824,0 c 0,2.63496 -0.61406,5.23619 -1.79047,7.5937 l -15.21777,-7.5937 z"
         style="fill:#bbbbbb;fill-opacity:1;fill-rule:nonzero;stroke:none"
         id="path522"
         inkscape:connector-curvature="0" /><g
         id="g524"><g
           id="g526" /></g><text
         transform="scale(1,-1)"
         style="font-variant:normal;font-weight:normal;font-size:9.96259975px;font-family:CMMI10;-inkscape-font-specification:CMMI10;writing-mode:lr-tb;fill:#000000;fill-opacity:1;fill-rule:nonzero;stroke:none"
         id="text536"
         x="23.771099"
         y="-15.760799"><tspan
           x="23.771099"
           y="-15.760799"
           id="tspan538"
           style="font-size:4px">θ</tspan></text>
<g
         id="g540"
         transform="translate(19.897,13.314)" /><path
         style="fill:none;fill-rule:evenodd;stroke:#000000;stroke-width:0.16;stroke-linecap:butt;stroke-linejoin:miter;stroke-opacity:1;stroke-miterlimit:4;stroke-dasharray:none"
         d="m 11.276244,14.334744 17.127594,0"
         id="path5537"
         inkscape:connector-curvature="0" /><g
         id="g542" /><path
         inkscape:connector-curvature="0"
         id="path26"
         style="fill:#000000;fill-opacity:1;fill-rule:nonzero;stroke:#000000;stroke-width:0.3985;stroke-linecap:butt;stroke-linejoin:miter;stroke-miterlimit:10;stroke-dasharray:none;stroke-opacity:1"
         d="m 12.75595,14.17339 c 0,0.78283 -0.63458,1.41741 -1.4174,1.41741 -0.78284,0 -1.41742,-0.63458 -1.41742,-1.41741 0,-0.78283 0.63458,-1.41742 1.41742,-1.41742 0.78282,0 1.4174,0.63459 1.4174,1.41742 z" /></g></g></svg>