<?xml version="1.0" encoding="UTF-8" standalone="no"?>
<!-- Created with Inkscape (http://www.inkscape.org/) -->

<svg
   xmlns:dc="http://purl.org/dc/elements/1.1/"
   xmlns:cc="http://creativecommons.org/ns#"
   xmlns:rdf="http://www.w3.org/1999/02/22-rdf-syntax-ns#"
   xmlns:svg="http://www.w3.org/2000/svg"
   xmlns="http://www.w3.org/2000/svg"
   xmlns:sodipodi="http://sodipodi.sourceforge.net/DTD/sodipodi-0.dtd"
   xmlns:inkscape="http://www.inkscape.org/namespaces/inkscape"
   version="1.0"
   width="304.3544"
   height="126.3964"
   viewBox="-104.705 -0.5 304.3544 126.3964"
   id="Layer_1"
   xml:space="preserve"
   inkscape:version="0.91 r13725"
   sodipodi:docname="DE15_VGA.svg"><metadata
     id="metadata64"><rdf:RDF><cc:Work
         rdf:about=""><dc:format>image/svg+xml</dc:format><dc:type
           rdf:resource="http://purl.org/dc/dcmitype/StillImage" /><dc:title></dc:title></cc:Work></rdf:RDF></metadata><sodipodi:namedview
     pagecolor="#ffffff"
     bordercolor="#666666"
     borderopacity="1"
     objecttolerance="10"
     gridtolerance="10"
     guidetolerance="10"
     inkscape:pageopacity="0"
     inkscape:pageshadow="2"
     inkscape:window-width="1236"
     inkscape:window-height="727"
     id="namedview62"
     showgrid="false"
     inkscape:zoom="3.6793833"
     inkscape:cx="360.64377"
     inkscape:cy="107.73389"
     inkscape:window-x="0"
     inkscape:window-y="0"
     inkscape:window-maximized="0"
     inkscape:current-layer="Layer_1"
     fit-margin-top="0"
     fit-margin-left="0"
     fit-margin-right="0"
     fit-margin-bottom="0" /><defs
     id="defs4541" /><path
     d="m 198.3507,109.0187 c 0,8.604 -6.98,15.579 -15.584,15.579 l -270.589002,0 c -8.614,0 -15.583998,-6.976 -15.583998,-15.579 l 0,-92.636 c 0,-8.609 6.969998,-15.58400002 15.583998,-15.58400002 l 270.589002,0 c 8.604,0 15.584,6.97500002 15.584,15.58400002 l 0,92.636 z"
     style="fill:#ffffff;stroke:#000000;stroke-width:2.59739995"
     id="path4424"
     inkscape:connector-curvature="0" /><path
     d="m -17.462302,19.3237 c -14.567,0 -24.415,11.735 -21.882,26.085 l 6.114,34.566 c 2.542,14.35 16.537,26.094 31.1040001,26.094 l 99.1979999,0 c 14.564002,0 28.559002,-11.744 31.103002,-26.094 l 6.116,-34.566 c 2.531,-14.35 -7.308,-26.085 -21.886,-26.085 l -129.867002,0 0,0 z"
     style="fill:none;stroke:#000000;stroke-width:2.59739995"
     id="path4426"
     inkscape:connector-curvature="0" /><g
     id="g4428"
     transform="translate(-16.328302,-11.8003)"><path
       d="m -57.976,61.373 c 7.251,0 13.128,5.877 13.128,13.128 0,7.243 -5.877,13.125 -13.128,13.125 -7.25,0 -13.127,-5.882 -13.127,-13.125 -0.001,-7.251 5.876,-13.128 13.127,-13.128 z"
       style="fill:none;stroke:#000000;stroke-width:2.59739995"
       id="path4430"
       inkscape:connector-curvature="0" /><path
       d="m 185.58,61.373 c 7.249,0 13.126,5.877 13.126,13.128 0,7.243 -5.877,13.125 -13.126,13.125 -7.247,0 -13.124,-5.882 -13.124,-13.125 0,-7.251 5.877,-13.128 13.124,-13.128 z"
       style="fill:none;stroke:#000000;stroke-width:2.59739995"
       id="path4432"
       inkscape:connector-curvature="0" /></g><g
     id="g4434"
     transform="translate(-16.328302,-11.8003)"><path
       d="m 103.695,49.63 c -3.213,0 -5.821,2.606 -5.821,5.817 0,3.212 2.608,5.819 5.821,5.819 3.212,0 5.812,-2.607 5.812,-5.819 0,-3.211 -2.6,-5.817 -5.812,-5.817 z"
       style="fill:none;stroke:#000000;stroke-width:2.59739995"
       id="path4436"
       inkscape:connector-curvature="0" /><path
       d="m 80.893,49.63 c -3.214,0 -5.816,2.606 -5.816,5.817 0,3.212 2.603,5.819 5.816,5.819 3.219,0 5.823,-2.607 5.823,-5.819 0,-3.211 -2.605,-5.817 -5.823,-5.817 z"
       style="fill:none;stroke:#000000;stroke-width:2.59739995"
       id="path4438"
       inkscape:connector-curvature="0" /><path
       d="m 58.106,49.633 c -3.213,0 -5.823,2.604 -5.823,5.814 0,3.212 2.61,5.816 5.823,5.816 3.205,0 5.812,-2.604 5.812,-5.816 0,-3.211 -2.607,-5.814 -5.812,-5.814 z"
       style="fill:none;stroke:#000000;stroke-width:2.59739995"
       id="path4440"
       inkscape:connector-curvature="0" /><path
       d="m 35.304,49.63 c -3.214,0 -5.811,2.606 -5.811,5.817 0,3.212 2.597,5.819 5.811,5.819 3.214,0 5.821,-2.607 5.821,-5.819 0,-3.211 -2.607,-5.817 -5.821,-5.817 z"
       style="fill:none;stroke:#000000;stroke-width:2.59739995"
       id="path4442"
       inkscape:connector-curvature="0" /><path
       d="m 12.505,49.63 c -3.216,0 -5.816,2.606 -5.816,5.817 0,3.212 2.6,5.819 5.816,5.819 3.219,0 5.819,-2.607 5.819,-5.819 0,-3.211 -2.6,-5.817 -5.819,-5.817 z"
       style="fill:none;stroke:#000000;stroke-width:2.59739995"
       id="path4444"
       inkscape:connector-curvature="0" /><path
       d="m 92.289,68.681 c -3.209,0 -5.812,2.606 -5.812,5.82 0,3.207 2.603,5.812 5.812,5.812 3.214,0 5.826,-2.605 5.826,-5.812 0,-3.214 -2.612,-5.82 -5.826,-5.82 z"
       style="fill:none;stroke:#000000;stroke-width:2.59739995"
       id="path4446"
       inkscape:connector-curvature="0" /><path
       d="m 69.501,68.682 c -3.214,0 -5.819,2.605 -5.819,5.819 0,3.205 2.605,5.81 5.819,5.81 3.206,0 5.809,-2.604 5.809,-5.81 0,-3.214 -2.603,-5.819 -5.809,-5.819 z"
       style="fill:none;stroke:#000000;stroke-width:2.59739995"
       id="path4448"
       inkscape:connector-curvature="0" /><path
       d="m 115.093,68.681 c 3.213,0 5.818,2.604 5.818,5.817 0,3.208 -2.605,5.805 -5.818,5.805 -3.209,0 -5.812,-2.597 -5.812,-5.805 0,-3.214 2.603,-5.817 5.812,-5.817 z"
       style="fill:none;stroke:#000000;stroke-width:2.59739995"
       id="path4450"
       inkscape:connector-curvature="0" /><path
       d="m 46.703,68.681 c -3.206,0 -5.816,2.606 -5.816,5.82 0,3.207 2.61,5.812 5.816,5.812 3.211,0 5.819,-2.605 5.819,-5.812 -10e-4,-3.214 -2.608,-5.82 -5.819,-5.82 z"
       style="fill:none;stroke:#000000;stroke-width:2.59739995"
       id="path4452"
       inkscape:connector-curvature="0" /><path
       d="m 23.907,68.681 c -3.214,0 -5.822,2.606 -5.822,5.82 0,3.207 2.608,5.812 5.822,5.812 3.213,0 5.824,-2.605 5.824,-5.812 0,-3.214 -2.61,-5.82 -5.824,-5.82 z"
       style="fill:none;stroke:#000000;stroke-width:2.59739995"
       id="path4454"
       inkscape:connector-curvature="0" /><path
       d="m 103.695,99.362 c -3.213,0 -5.821,-2.607 -5.821,-5.821 0,-3.208 2.608,-5.816 5.821,-5.816 3.212,0 5.812,2.608 5.812,5.816 0,3.214 -2.6,5.821 -5.812,5.821 z"
       style="fill:none;stroke:#000000;stroke-width:2.59739995"
       id="path4456"
       inkscape:connector-curvature="0" /><path
       d="m 80.893,99.362 c -3.214,0 -5.816,-2.607 -5.816,-5.821 0,-3.208 2.603,-5.816 5.816,-5.816 3.219,0 5.823,2.608 5.823,5.816 0,3.214 -2.605,5.821 -5.823,5.821 z"
       style="fill:none;stroke:#000000;stroke-width:2.59739995"
       id="path4458"
       inkscape:connector-curvature="0" /><path
       d="m 58.106,99.36 c -3.213,0 -5.823,-2.605 -5.823,-5.819 0,-3.208 2.61,-5.816 5.823,-5.816 3.205,0 5.812,2.608 5.812,5.816 0,3.214 -2.607,5.819 -5.812,5.819 z"
       style="fill:none;stroke:#000000;stroke-width:2.59739995"
       id="path4460"
       inkscape:connector-curvature="0" /><path
       d="m 35.304,99.362 c -3.214,0 -5.811,-2.607 -5.811,-5.821 0,-3.208 2.597,-5.816 5.811,-5.816 3.214,0 5.821,2.608 5.821,5.816 0,3.214 -2.607,5.821 -5.821,5.821 z"
       style="fill:none;stroke:#000000;stroke-width:2.59739995"
       id="path4462"
       inkscape:connector-curvature="0" /><path
       d="m 12.505,99.362 c -3.216,0 -5.816,-2.607 -5.816,-5.821 0,-3.208 2.6,-5.816 5.816,-5.816 3.219,0 5.819,2.608 5.819,5.816 0,3.214 -2.6,5.821 -5.819,5.821 z"
       style="fill:none;stroke:#000000;stroke-width:2.59739995"
       id="path4464"
       inkscape:connector-curvature="0" /></g></svg>