<?xml version="1.0" encoding="UTF-8" standalone="no"?>
<!-- Created with Inkscape (http://www.inkscape.org/) -->

<svg
   xmlns:dc="http://purl.org/dc/elements/1.1/"
   xmlns:cc="http://creativecommons.org/ns#"
   xmlns:rdf="http://www.w3.org/1999/02/22-rdf-syntax-ns#"
   xmlns:svg="http://www.w3.org/2000/svg"
   xmlns="http://www.w3.org/2000/svg"
   xmlns:sodipodi="http://sodipodi.sourceforge.net/DTD/sodipodi-0.dtd"
   xmlns:inkscape="http://www.inkscape.org/namespaces/inkscape"
   id="svg2"
   version="1.1"
   inkscape:version="0.91 r13725"
   xml:space="preserve"
   width="1116.25"
   height="857.5"
   viewBox="0 0 1116.25 857.5"
   sodipodi:docname="drawing_plain.svg"><metadata
     id="metadata8"><rdf:RDF><cc:Work
         rdf:about=""><dc:format>image/svg+xml</dc:format><dc:type
           rdf:resource="http://purl.org/dc/dcmitype/StillImage" /><dc:title></dc:title></cc:Work></rdf:RDF></metadata><defs
     id="defs6"><clipPath
       clipPathUnits="userSpaceOnUse"
       id="clipPath18"><path
         d="m 0,3.01953 8930,0 0,6849.99997 -8930,0 L 0,3.01953 Z"
         id="path20"
         inkscape:connector-curvature="0" /></clipPath></defs><sodipodi:namedview
     pagecolor="#ffffff"
     bordercolor="#666666"
     borderopacity="1"
     objecttolerance="10"
     gridtolerance="10"
     guidetolerance="10"
     inkscape:pageopacity="0"
     inkscape:pageshadow="2"
     inkscape:window-width="1549"
     inkscape:window-height="1212"
     id="namedview4"
     showgrid="false"
     inkscape:zoom="1.1008746"
     inkscape:cx="321.61748"
     inkscape:cy="185.82555"
     inkscape:window-x="0"
     inkscape:window-y="0"
     inkscape:window-maximized="0"
     inkscape:current-layer="g10" /><g
     id="g10"
     inkscape:groupmode="layer"
     inkscape:label="ink_ext_XXXXXX"
     transform="matrix(1.25,0,0,-1.25,0,857.5)"><path
       inkscape:connector-curvature="0"
       id="path22"
       style="fill:#ffffff;fill-opacity:1;fill-rule:nonzero;stroke:none"
       d="m 7.72305,358.228 257.20695,0 c 3.832,0 6.922,-3.137 6.922,-7.035 l 0,-336.7192 c 0,-3.8976 -3.09,-7.03474 -6.922,-7.03474 l -257.20695,0 c -3.83594,0 -6.921878,3.13714 -6.921878,7.03474 l 0,336.7192 c 0,3.898 3.085938,7.035 6.921878,7.035 z" /><path
       inkscape:connector-curvature="0"
       id="path24"
       style="fill:none;stroke:#000000;stroke-width:1.61506999;stroke-linecap:butt;stroke-linejoin:round;stroke-miterlimit:4;stroke-dasharray:1.61507, 1.61507;stroke-dashoffset:0;stroke-opacity:1"
       d="m 7.72305,358.229 257.20695,0 c 3.832,0 6.922,-3.138 6.922,-7.036 l 0,-336.7184 c 0,-3.8992 -3.09,-7.03515 -6.922,-7.03515 l -257.20695,0 c -3.83594,0 -6.921878,3.13595 -6.921878,7.03515 l 0,336.7184 c 0,3.898 3.085938,7.036 6.921878,7.036 z" /><path
       inkscape:connector-curvature="0"
       id="path26"
       style="fill:#ffffff;fill-opacity:1;fill-rule:nonzero;stroke:none"
       d="m 160.078,684.615 0,-31.699 -0.176,0 0,-87 84.305,0 0,87 -35.832,0 0,31.699 -48.297,0 z" /><path
       d="m 160.07876,684.61497 0,-31.69871 -0.17722,0 0,-87.00084 84.30574,0 0,87.00084 -35.83293,0 0,31.69871 -48.29559,0 z"
       style="fill:none;stroke:#000000;stroke-width:1.04589915;stroke-linecap:butt;stroke-linejoin:miter;stroke-miterlimit:4;stroke-dasharray:none;stroke-opacity:1"
       id="path30"
       inkscape:connector-curvature="0" /><path
       inkscape:connector-curvature="0"
       id="path32"
       style="fill:#f3f3f3;fill-opacity:1;fill-rule:nonzero;stroke:none"
       d="m 208.543,684.771 0,-31.644 35.773,0 -35.773,31.644 z" /><path
       d="m 208.5428,684.77199 0,-31.64535 35.77354,0 -35.77354,31.64535 z"
       style="fill:none;stroke:#000000;stroke-width:1.03250384;stroke-linecap:butt;stroke-linejoin:round;stroke-miterlimit:4;stroke-dasharray:none;stroke-opacity:1"
       id="path36"
       inkscape:connector-curvature="0" /><path
       d="m 167.6991,659.23301 31.47358,0 0,-1.0037 1.90947,2.0074"
       style="fill:none;stroke:#000000;stroke-width:1.46884322;stroke-linecap:butt;stroke-linejoin:miter;stroke-miterlimit:4;stroke-dasharray:none;stroke-opacity:1"
       id="path40"
       inkscape:connector-curvature="0" /><path
       inkscape:connector-curvature="0"
       id="path42"
       style="fill:#000000;fill-opacity:1;fill-rule:nonzero;stroke:none"
       d="m 170.559,638.119 56.277,0" /><path
       d="m 170.55892,638.11833 56.27718,0"
       style="fill:none;stroke:#000000;stroke-width:1.46884322;stroke-linecap:butt;stroke-linejoin:miter;stroke-miterlimit:4;stroke-dasharray:none;stroke-opacity:1"
       id="path46"
       inkscape:connector-curvature="0" /><path
       inkscape:connector-curvature="0"
       id="path48"
       style="fill:#000000;fill-opacity:1;fill-rule:nonzero;stroke:none"
       d="m 170.559,622.037 56.277,0" /><path
       d="m 170.55892,622.03652 56.27718,0"
       style="fill:none;stroke:#000000;stroke-width:1.46884322;stroke-linecap:butt;stroke-linejoin:miter;stroke-miterlimit:4;stroke-dasharray:none;stroke-opacity:1"
       id="path52"
       inkscape:connector-curvature="0" /><path
       inkscape:connector-curvature="0"
       id="path54"
       style="fill:#000000;fill-opacity:1;fill-rule:nonzero;stroke:none"
       d="m 171.512,577.299 56.277,0" /><path
       d="m 171.51122,577.29892 56.27718,0"
       style="fill:none;stroke:#000000;stroke-width:1.46884322;stroke-linecap:butt;stroke-linejoin:miter;stroke-miterlimit:4;stroke-dasharray:none;stroke-opacity:1"
       id="path58"
       inkscape:connector-curvature="0" /><path
       inkscape:connector-curvature="0"
       id="path60"
       style="fill:#000000;fill-opacity:1;fill-rule:nonzero;stroke:none"
       d="m 171.512,605.951 56.277,0" /><path
       d="m 171.51122,605.95061 56.27718,0"
       style="fill:none;stroke:#000000;stroke-width:1.46884322;stroke-linecap:butt;stroke-linejoin:miter;stroke-miterlimit:4;stroke-dasharray:none;stroke-opacity:1"
       id="path64"
       inkscape:connector-curvature="0" /><path
       inkscape:connector-curvature="0"
       id="path66"
       style="fill:#000000;fill-opacity:1;fill-rule:nonzero;stroke:none"
       d="m 171.512,591.877 56.277,0" /><path
       d="m 171.51122,591.87723 56.27718,0"
       style="fill:none;stroke:#000000;stroke-width:1.46884322;stroke-linecap:butt;stroke-linejoin:miter;stroke-miterlimit:4;stroke-dasharray:none;stroke-opacity:1"
       id="path70"
       inkscape:connector-curvature="0" /><path
       inkscape:connector-curvature="0"
       id="path72"
       style="fill:#ffffff;fill-opacity:1;fill-rule:nonzero;stroke:none"
       d="m 143.863,677.576 0,-31.695 -0.175,0 0,-87 84.304,0 0,87 -35.832,0 0,31.695 -48.297,0 z" /><path
       d="m 143.86338,677.57571 0,-31.6946 -0.17624,0 0,-87.00084 84.30476,0 0,87.00084 -35.83196,0 0,31.6946 -48.29656,0 z"
       style="fill:none;stroke:#000000;stroke-width:1.04589915;stroke-linecap:butt;stroke-linejoin:miter;stroke-miterlimit:4;stroke-dasharray:none;stroke-opacity:1"
       id="path76"
       inkscape:connector-curvature="0" /><path
       inkscape:connector-curvature="0"
       id="path78"
       style="fill:#f3f3f3;fill-opacity:1;fill-rule:nonzero;stroke:none"
       d="m 192.328,677.736 0,-31.645 35.774,0 -35.774,31.645 z" /><path
       d="m 192.32742,677.73684 0,-31.64534 35.77451,0 -35.77451,31.64534 z"
       style="fill:none;stroke:#000000;stroke-width:1.03250384;stroke-linecap:butt;stroke-linejoin:round;stroke-miterlimit:4;stroke-dasharray:none;stroke-opacity:1"
       id="path82"
       inkscape:connector-curvature="0" /><path
       d="m 151.4847,652.19376 31.47163,0 0,-1.00371 1.91142,2.01049"
       style="fill:none;stroke:#000000;stroke-width:1.46884322;stroke-linecap:butt;stroke-linejoin:miter;stroke-miterlimit:4;stroke-dasharray:none;stroke-opacity:1"
       id="path86"
       inkscape:connector-curvature="0" /><path
       inkscape:connector-curvature="0"
       id="path88"
       style="fill:#000000;fill-opacity:1;fill-rule:nonzero;stroke:none"
       d="m 154.344,631.084 56.277,0" /><path
       d="m 154.34354,631.0842 56.27718,0"
       style="fill:none;stroke:#000000;stroke-width:1.46884322;stroke-linecap:butt;stroke-linejoin:miter;stroke-miterlimit:4;stroke-dasharray:none;stroke-opacity:1"
       id="path92"
       inkscape:connector-curvature="0" /><path
       inkscape:connector-curvature="0"
       id="path94"
       style="fill:#000000;fill-opacity:1;fill-rule:nonzero;stroke:none"
       d="m 154.344,614.998 56.277,0" /><path
       d="m 154.34354,614.99829 56.27718,0"
       style="fill:none;stroke:#000000;stroke-width:1.46884322;stroke-linecap:butt;stroke-linejoin:miter;stroke-miterlimit:4;stroke-dasharray:none;stroke-opacity:1"
       id="path98"
       inkscape:connector-curvature="0" /><path
       inkscape:connector-curvature="0"
       id="path100"
       style="fill:#000000;fill-opacity:1;fill-rule:nonzero;stroke:none"
       d="m 155.297,570.263 56.277,0" /><path
       d="m 155.29681,570.26377 56.27718,0"
       style="fill:none;stroke:#000000;stroke-width:1.46884322;stroke-linecap:butt;stroke-linejoin:miter;stroke-miterlimit:4;stroke-dasharray:none;stroke-opacity:1"
       id="path104"
       inkscape:connector-curvature="0" /><path
       inkscape:connector-curvature="0"
       id="path106"
       style="fill:#000000;fill-opacity:1;fill-rule:nonzero;stroke:none"
       d="m 155.297,598.912 56.277,0" /><path
       d="m 155.29681,598.91135 56.27718,0"
       style="fill:none;stroke:#000000;stroke-width:1.46884322;stroke-linecap:butt;stroke-linejoin:miter;stroke-miterlimit:4;stroke-dasharray:none;stroke-opacity:1"
       id="path110"
       inkscape:connector-curvature="0" /><path
       inkscape:connector-curvature="0"
       id="path112"
       style="fill:#000000;fill-opacity:1;fill-rule:nonzero;stroke:none"
       d="m 155.297,584.838 56.277,0" /><path
       d="m 155.29681,584.83797 56.27718,0"
       style="fill:none;stroke:#000000;stroke-width:1.46884322;stroke-linecap:butt;stroke-linejoin:miter;stroke-miterlimit:4;stroke-dasharray:none;stroke-opacity:1"
       id="path116"
       inkscape:connector-curvature="0" /><path
       inkscape:connector-curvature="0"
       id="path118"
       style="fill:#ffffff;fill-opacity:1;fill-rule:nonzero;stroke:none"
       d="m 123.832,667.525 0,-31.699 -0.176,0 0,-87 84.305,0 0,87 -35.828,0 0,31.699 -48.301,0 z" /><path
       d="m 123.83199,667.52535 0,-31.69973 -0.17527,0 0,-86.99981 84.30477,0 0,86.99981 -35.82904,0 0,31.69973 -48.30046,0 z"
       style="fill:none;stroke:#000000;stroke-width:1.04589915;stroke-linecap:butt;stroke-linejoin:miter;stroke-miterlimit:4;stroke-dasharray:none;stroke-opacity:1"
       id="path122"
       inkscape:connector-curvature="0" /><path
       inkscape:connector-curvature="0"
       id="path124"
       style="fill:#f3f3f3;fill-opacity:1;fill-rule:nonzero;stroke:none"
       d="m 172.297,667.681 0,-31.644 35.773,0 -35.773,31.644 z" /><path
       d="m 172.29701,667.68237 0,-31.64534 35.77256,0 -35.77256,31.64534 z"
       style="fill:none;stroke:#000000;stroke-width:1.03250384;stroke-linecap:butt;stroke-linejoin:round;stroke-miterlimit:4;stroke-dasharray:none;stroke-opacity:1"
       id="path128"
       inkscape:connector-curvature="0" /><path
       d="m 131.45331,642.1434 31.4765,0 0,-1.00884 1.90558,2.01254"
       style="fill:none;stroke:#000000;stroke-width:1.46884322;stroke-linecap:butt;stroke-linejoin:miter;stroke-miterlimit:4;stroke-dasharray:none;stroke-opacity:1"
       id="path132"
       inkscape:connector-curvature="0" /><path
       inkscape:connector-curvature="0"
       id="path134"
       style="fill:#000000;fill-opacity:1;fill-rule:nonzero;stroke:none"
       d="m 134.312,621.029 56.278,0" /><path
       d="m 134.31215,621.02974 56.27718,0"
       style="fill:none;stroke:#000000;stroke-width:1.46884322;stroke-linecap:butt;stroke-linejoin:miter;stroke-miterlimit:4;stroke-dasharray:none;stroke-opacity:1"
       id="path138"
       inkscape:connector-curvature="0" /><path
       inkscape:connector-curvature="0"
       id="path140"
       style="fill:#000000;fill-opacity:1;fill-rule:nonzero;stroke:none"
       d="m 134.312,604.943 56.278,0" /><path
       d="m 134.31215,604.94382 56.27718,0"
       style="fill:none;stroke:#000000;stroke-width:1.46884322;stroke-linecap:butt;stroke-linejoin:miter;stroke-miterlimit:4;stroke-dasharray:none;stroke-opacity:1"
       id="path144"
       inkscape:connector-curvature="0" /><path
       inkscape:connector-curvature="0"
       id="path146"
       style="fill:#000000;fill-opacity:1;fill-rule:nonzero;stroke:none"
       d="m 135.27,560.209 56.273,0" /><path
       d="m 135.26932,560.20931 56.27329,0"
       style="fill:none;stroke:#000000;stroke-width:1.46884322;stroke-linecap:butt;stroke-linejoin:miter;stroke-miterlimit:4;stroke-dasharray:none;stroke-opacity:1"
       id="path150"
       inkscape:connector-curvature="0" /><path
       inkscape:connector-curvature="0"
       id="path152"
       style="fill:#000000;fill-opacity:1;fill-rule:nonzero;stroke:none"
       d="m 135.27,588.861 56.273,0" /><path
       d="m 135.26932,588.86202 56.27329,0"
       style="fill:none;stroke:#000000;stroke-width:1.46884322;stroke-linecap:butt;stroke-linejoin:miter;stroke-miterlimit:4;stroke-dasharray:none;stroke-opacity:1"
       id="path156"
       inkscape:connector-curvature="0" /><path
       inkscape:connector-curvature="0"
       id="path158"
       style="fill:#000000;fill-opacity:1;fill-rule:nonzero;stroke:none"
       d="m 135.27,574.787 56.273,0" /><path
       d="m 135.26932,574.78659 56.27329,0"
       style="fill:none;stroke:#000000;stroke-width:1.46884322;stroke-linecap:butt;stroke-linejoin:miter;stroke-miterlimit:4;stroke-dasharray:none;stroke-opacity:1"
       id="path162"
       inkscape:connector-curvature="0" /><path
       inkscape:connector-curvature="0"
       id="path164"
       style="fill:#ffffff;fill-opacity:1;fill-rule:nonzero;stroke:none"
       d="m 103.801,658.478 0,-31.699 -0.176,0 0,-87 84.305,0 0,87 -35.828,0 0,31.699 -48.301,0 z" /><path
       d="m 103.80158,658.47869 0,-31.69871 -0.17722,0 0,-87.00083 84.30574,0 0,87.00083 -35.82806,0 0,31.69871 -48.30046,0 z"
       style="fill:none;stroke:#000000;stroke-width:1.04589915;stroke-linecap:butt;stroke-linejoin:miter;stroke-miterlimit:4;stroke-dasharray:none;stroke-opacity:1"
       id="path168"
       inkscape:connector-curvature="0" /><path
       inkscape:connector-curvature="0"
       id="path170"
       style="fill:#f3f3f3;fill-opacity:1;fill-rule:nonzero;stroke:none"
       d="m 152.266,658.634 0,-31.644 35.773,0 -35.773,31.644 z" /><path
       d="m 152.26562,658.63469 0,-31.64329 35.77354,0 -35.77354,31.64329 z"
       style="fill:none;stroke:#000000;stroke-width:1.03250384;stroke-linecap:butt;stroke-linejoin:round;stroke-miterlimit:4;stroke-dasharray:none;stroke-opacity:1"
       id="path174"
       inkscape:connector-curvature="0" /><path
       d="m 111.42192,633.09571 31.47651,0 -0.12075,-0.0472 0.79651,0.0472"
       style="fill:none;stroke:#000000;stroke-width:1.46884322;stroke-linecap:butt;stroke-linejoin:miter;stroke-miterlimit:4;stroke-dasharray:none;stroke-opacity:1"
       id="path178"
       inkscape:connector-curvature="0" /><path
       inkscape:connector-curvature="0"
       id="path180"
       style="fill:#000000;fill-opacity:1;fill-rule:nonzero;stroke:none"
       d="m 114.285,611.982 56.274,0" /><path
       d="m 114.28563,611.98308 56.27329,0"
       style="fill:none;stroke:#000000;stroke-width:1.46884322;stroke-linecap:butt;stroke-linejoin:miter;stroke-miterlimit:4;stroke-dasharray:none;stroke-opacity:1"
       id="path184"
       inkscape:connector-curvature="0" /><path
       inkscape:connector-curvature="0"
       id="path186"
       style="fill:#000000;fill-opacity:1;fill-rule:nonzero;stroke:none"
       d="m 114.285,595.896 56.274,0" /><path
       d="m 114.28563,595.89717 56.27329,0"
       style="fill:none;stroke:#000000;stroke-width:1.46884322;stroke-linecap:butt;stroke-linejoin:miter;stroke-miterlimit:4;stroke-dasharray:none;stroke-opacity:1"
       id="path190"
       inkscape:connector-curvature="0" /><path
       inkscape:connector-curvature="0"
       id="path192"
       style="fill:#000000;fill-opacity:1;fill-rule:nonzero;stroke:none"
       d="m 115.238,551.162 56.274,0" /><path
       d="m 115.23793,551.16162 56.27329,0"
       style="fill:none;stroke:#000000;stroke-width:1.46884322;stroke-linecap:butt;stroke-linejoin:miter;stroke-miterlimit:4;stroke-dasharray:none;stroke-opacity:1"
       id="path196"
       inkscape:connector-curvature="0" /><path
       inkscape:connector-curvature="0"
       id="path198"
       style="fill:#000000;fill-opacity:1;fill-rule:nonzero;stroke:none"
       d="m 115.238,579.814 56.274,0" /><path
       d="m 115.23793,579.81433 56.27329,0"
       style="fill:none;stroke:#000000;stroke-width:1.46884322;stroke-linecap:butt;stroke-linejoin:miter;stroke-miterlimit:4;stroke-dasharray:none;stroke-opacity:1"
       id="path202"
       inkscape:connector-curvature="0" /><path
       inkscape:connector-curvature="0"
       id="path204"
       style="fill:#000000;fill-opacity:1;fill-rule:nonzero;stroke:none"
       d="m 115.238,565.74 56.274,0" /><path
       d="m 115.23793,565.74096 56.27329,0"
       style="fill:none;stroke:#000000;stroke-width:1.46884322;stroke-linecap:butt;stroke-linejoin:miter;stroke-miterlimit:4;stroke-dasharray:none;stroke-opacity:1"
       id="path208"
       inkscape:connector-curvature="0" /><path
       inkscape:connector-curvature="0"
       id="path210"
       style="fill:none;stroke:#000000;stroke-width:1.60000002;stroke-linecap:butt;stroke-linejoin:round;stroke-miterlimit:4;stroke-dasharray:none;stroke-opacity:1"
       d="m 595.004,671.907 278.351,0 c 5.317,0 9.598,-4.991 9.598,-11.198 l 0,-114.496 c 0,-6.204 -4.281,-11.2 -9.598,-11.2 l -278.351,0 c -5.316,0 -9.602,4.996 -9.602,11.2 l 0,114.496 c 0,6.207 4.286,11.198 9.602,11.198 z" /><path
       inkscape:connector-curvature="0"
       id="path212"
       style="fill:#ffffff;fill-opacity:1;fill-rule:nonzero;stroke:none"
       d="m 445.051,360.611 436.801,0 c 5.316,0 9.597,-2.539 9.597,-5.691 l 0,-347.02 c 0,-3.15195 -4.281,-5.69102 -9.597,-5.69102 l -436.801,0 c -5.321,0 -9.602,2.53907 -9.602,5.69102 l 0,347.02 c 0,3.152 4.281,5.691 9.602,5.691 z" /><path
       inkscape:connector-curvature="0"
       id="path214"
       style="fill:none;stroke:#000000;stroke-width:2.4000001;stroke-linecap:butt;stroke-linejoin:round;stroke-miterlimit:4;stroke-dasharray:2.4, 2.4;stroke-dashoffset:0;stroke-opacity:1"
       d="m 445.051,360.611 436.801,0 c 5.316,0 9.597,-2.539 9.597,-5.691 l 0,-347.01961 c 0,-3.15273 -4.281,-5.6918 -9.597,-5.6918 l -436.801,0 c -5.321,0 -9.602,2.53907 -9.602,5.6918 l 0,347.01961 c 0,3.152 4.281,5.691 9.602,5.691 z" /><path
       inkscape:connector-curvature="0"
       id="path216"
       style="fill:#ffffff;fill-opacity:1;fill-rule:nonzero;stroke:none"
       d="m 780.594,327.896 0,-28.019 -0.176,0 0,-76.907 85.59,0 0,76.907 -36.375,0 0,28.019 -49.039,0 z" /><path
       d="m 780.5912,327.89519 0,-28.01935 -0.17625,0 0,-76.90584 85.59036,0 0,76.90584 -36.37497,0 0,28.01935 -49.03914,0 z"
       style="fill:none;stroke:#000000;stroke-width:0.99083602;stroke-linecap:butt;stroke-linejoin:miter;stroke-miterlimit:4;stroke-dasharray:none;stroke-opacity:1"
       id="path220"
       inkscape:connector-curvature="0" /><path
       inkscape:connector-curvature="0"
       id="path222"
       style="fill:#f3f3f3;fill-opacity:1;fill-rule:nonzero;stroke:none"
       d="m 829.801,328.037 0,-27.973 36.32,0 -36.32,27.973 z" /><path
       d="m 829.79826,328.03588 0,-27.9715 36.31968,0 -36.31968,27.9715 z"
       style="fill:none;stroke:#000000;stroke-width:0.97814476;stroke-linecap:butt;stroke-linejoin:round;stroke-miterlimit:4;stroke-dasharray:none;stroke-opacity:1"
       id="path226"
       inkscape:connector-curvature="0" /><path
       d="m 788.32967,305.45846 31.95611,0 -0.12098,-0.0383 0.80931,0.0421"
       style="fill:none;stroke:#000000;stroke-width:1.39151371;stroke-linecap:butt;stroke-linejoin:miter;stroke-miterlimit:4;stroke-dasharray:none;stroke-opacity:1"
       id="path230"
       inkscape:connector-curvature="0" /><path
       inkscape:connector-curvature="0"
       id="path232"
       style="fill:#000000;fill-opacity:1;fill-rule:nonzero;stroke:none"
       d="m 791.238,286.799 57.133,0" /><path
       d="m 791.23525,286.79835 57.13324,0"
       style="fill:none;stroke:#000000;stroke-width:1.39151371;stroke-linecap:butt;stroke-linejoin:miter;stroke-miterlimit:4;stroke-dasharray:none;stroke-opacity:1"
       id="path236"
       inkscape:connector-curvature="0" /><path
       inkscape:connector-curvature="0"
       id="path238"
       style="fill:#000000;fill-opacity:1;fill-rule:nonzero;stroke:none"
       d="m 791.238,272.58 57.133,0" /><path
       d="m 791.23525,272.58003 57.13324,0"
       style="fill:none;stroke:#000000;stroke-width:1.39151371;stroke-linecap:butt;stroke-linejoin:miter;stroke-miterlimit:4;stroke-dasharray:none;stroke-opacity:1"
       id="path242"
       inkscape:connector-curvature="0" /><path
       inkscape:connector-curvature="0"
       id="path244"
       style="fill:#000000;fill-opacity:1;fill-rule:nonzero;stroke:none"
       d="m 792.207,233.033 57.133,0" /><path
       d="m 792.20412,233.03269 57.13324,0"
       style="fill:none;stroke:#000000;stroke-width:1.39151371;stroke-linecap:butt;stroke-linejoin:miter;stroke-miterlimit:4;stroke-dasharray:none;stroke-opacity:1"
       id="path248"
       inkscape:connector-curvature="0" /><path
       inkscape:connector-curvature="0"
       id="path250"
       style="fill:#000000;fill-opacity:1;fill-rule:nonzero;stroke:none"
       d="m 792.207,258.361 57.133,0" /><path
       d="m 792.20412,258.36075 57.13324,0"
       style="fill:none;stroke:#000000;stroke-width:1.39151371;stroke-linecap:butt;stroke-linejoin:miter;stroke-miterlimit:4;stroke-dasharray:none;stroke-opacity:1"
       id="path254"
       inkscape:connector-curvature="0" /><path
       inkscape:connector-curvature="0"
       id="path256"
       style="fill:#000000;fill-opacity:1;fill-rule:nonzero;stroke:none"
       d="m 792.207,245.92 57.133,0" /><path
       d="m 792.20412,245.91876 57.13324,0"
       style="fill:none;stroke:#000000;stroke-width:1.39151371;stroke-linecap:butt;stroke-linejoin:miter;stroke-miterlimit:4;stroke-dasharray:none;stroke-opacity:1"
       id="path260"
       inkscape:connector-curvature="0" /><path
       inkscape:connector-curvature="0"
       id="path262"
       style="fill:#ffffff;fill-opacity:1;fill-rule:nonzero;stroke:none"
       d="m 638.195,327.896 0,-28.019 -0.179,0 0,-76.907 85.593,0 0,76.907 -36.379,0 0,28.019 -49.035,0 z" /><path
       d="m 638.19299,327.89519 0,-28.01935 -0.17938,0 0,-76.90584 85.59244,0 0,76.90584 -36.37809,0 0,28.01935 -49.03497,0 z"
       style="fill:none;stroke:#000000;stroke-width:0.99083602;stroke-linecap:butt;stroke-linejoin:miter;stroke-miterlimit:4;stroke-dasharray:none;stroke-opacity:1"
       id="path266"
       inkscape:connector-curvature="0" /><path
       inkscape:connector-curvature="0"
       id="path268"
       style="fill:#f3f3f3;fill-opacity:1;fill-rule:nonzero;stroke:none"
       d="m 687.398,328.037 0,-27.973 36.321,0 -36.321,27.973 z" /><path
       d="m 687.39587,328.03588 0,-27.9715 36.32073,0 -36.32073,27.9715 z"
       style="fill:none;stroke:#000000;stroke-width:0.97814476;stroke-linecap:butt;stroke-linejoin:round;stroke-miterlimit:4;stroke-dasharray:none;stroke-opacity:1"
       id="path272"
       inkscape:connector-curvature="0" /><path
       d="m 645.92833,305.45846 31.95611,0 -0.11681,-0.0383 0.80827,0.0421"
       style="fill:none;stroke:#000000;stroke-width:1.39151371;stroke-linecap:butt;stroke-linejoin:miter;stroke-miterlimit:4;stroke-dasharray:none;stroke-opacity:1"
       id="path276"
       inkscape:connector-curvature="0" /><path
       inkscape:connector-curvature="0"
       id="path278"
       style="fill:#000000;fill-opacity:1;fill-rule:nonzero;stroke:none"
       d="m 648.836,286.799 57.137,0" /><path
       d="m 648.83391,286.79835 57.13637,0"
       style="fill:none;stroke:#000000;stroke-width:1.39151371;stroke-linecap:butt;stroke-linejoin:miter;stroke-miterlimit:4;stroke-dasharray:none;stroke-opacity:1"
       id="path282"
       inkscape:connector-curvature="0" /><path
       inkscape:connector-curvature="0"
       id="path284"
       style="fill:#000000;fill-opacity:1;fill-rule:nonzero;stroke:none"
       d="m 648.836,272.58 57.137,0" /><path
       d="m 648.83391,272.58003 57.13637,0"
       style="fill:none;stroke:#000000;stroke-width:1.39151371;stroke-linecap:butt;stroke-linejoin:miter;stroke-miterlimit:4;stroke-dasharray:none;stroke-opacity:1"
       id="path288"
       inkscape:connector-curvature="0" /><path
       inkscape:connector-curvature="0"
       id="path290"
       style="fill:#000000;fill-opacity:1;fill-rule:nonzero;stroke:none"
       d="m 649.805,233.033 57.136,0" /><path
       d="m 649.80278,233.03269 57.13533,0"
       style="fill:none;stroke:#000000;stroke-width:1.39151371;stroke-linecap:butt;stroke-linejoin:miter;stroke-miterlimit:4;stroke-dasharray:none;stroke-opacity:1"
       id="path294"
       inkscape:connector-curvature="0" /><path
       inkscape:connector-curvature="0"
       id="path296"
       style="fill:#000000;fill-opacity:1;fill-rule:nonzero;stroke:none"
       d="m 649.805,258.361 57.136,0" /><path
       d="m 649.80278,258.36075 57.13533,0"
       style="fill:none;stroke:#000000;stroke-width:1.39151371;stroke-linecap:butt;stroke-linejoin:miter;stroke-miterlimit:4;stroke-dasharray:none;stroke-opacity:1"
       id="path300"
       inkscape:connector-curvature="0" /><path
       inkscape:connector-curvature="0"
       id="path302"
       style="fill:#000000;fill-opacity:1;fill-rule:nonzero;stroke:none"
       d="m 649.805,245.92 57.136,0" /><path
       d="m 649.80278,245.91876 57.13533,0"
       style="fill:none;stroke:#000000;stroke-width:1.39151371;stroke-linecap:butt;stroke-linejoin:miter;stroke-miterlimit:4;stroke-dasharray:none;stroke-opacity:1"
       id="path306"
       inkscape:connector-curvature="0" /><path
       inkscape:connector-curvature="0"
       id="path308"
       style="fill:#ffffff;fill-opacity:1;fill-rule:nonzero;stroke:none"
       d="m 476.594,327.896 0,-28.019 -0.176,0 0,-76.907 85.59,0 0,76.907 -36.375,0 0,28.019 -49.039,0 z" /><path
       d="m 476.59254,327.89519 0,-28.01935 -0.17625,0 0,-76.90584 85.59035,0 0,76.90584 -36.37496,0 0,28.01935 -49.03914,0 z"
       style="fill:none;stroke:#000000;stroke-width:0.99083602;stroke-linecap:butt;stroke-linejoin:miter;stroke-miterlimit:4;stroke-dasharray:none;stroke-opacity:1"
       id="path312"
       inkscape:connector-curvature="0" /><path
       inkscape:connector-curvature="0"
       id="path314"
       style="fill:#f3f3f3;fill-opacity:1;fill-rule:nonzero;stroke:none"
       d="m 525.801,328.037 0,-27.973 36.32,0 -36.32,27.973 z" /><path
       d="m 525.79959,328.03588 0,-27.9715 36.31969,0 -36.31969,27.9715 z"
       style="fill:none;stroke:#000000;stroke-width:0.97814476;stroke-linecap:butt;stroke-linejoin:round;stroke-miterlimit:4;stroke-dasharray:none;stroke-opacity:1"
       id="path318"
       inkscape:connector-curvature="0" /><path
       d="m 484.32996,305.45846 31.95716,0 -0.12098,-0.0383 0.8093,0.0421"
       style="fill:none;stroke:#000000;stroke-width:1.39151371;stroke-linecap:butt;stroke-linejoin:miter;stroke-miterlimit:4;stroke-dasharray:none;stroke-opacity:1"
       id="path322"
       inkscape:connector-curvature="0" /><path
       inkscape:connector-curvature="0"
       id="path324"
       style="fill:#000000;fill-opacity:1;fill-rule:nonzero;stroke:none"
       d="m 487.238,286.799 57.133,0" /><path
       d="m 487.23658,286.79835 57.1322,0"
       style="fill:none;stroke:#000000;stroke-width:1.39151371;stroke-linecap:butt;stroke-linejoin:miter;stroke-miterlimit:4;stroke-dasharray:none;stroke-opacity:1"
       id="path328"
       inkscape:connector-curvature="0" /><path
       inkscape:connector-curvature="0"
       id="path330"
       style="fill:#000000;fill-opacity:1;fill-rule:nonzero;stroke:none"
       d="m 487.238,272.58 57.133,0" /><path
       d="m 487.23658,272.58003 57.1322,0"
       style="fill:none;stroke:#000000;stroke-width:1.39151371;stroke-linecap:butt;stroke-linejoin:miter;stroke-miterlimit:4;stroke-dasharray:none;stroke-opacity:1"
       id="path334"
       inkscape:connector-curvature="0" /><path
       inkscape:connector-curvature="0"
       id="path336"
       style="fill:#000000;fill-opacity:1;fill-rule:nonzero;stroke:none"
       d="m 488.207,233.033 57.133,0" /><path
       d="m 488.20545,233.03269 57.13325,0"
       style="fill:none;stroke:#000000;stroke-width:1.39151371;stroke-linecap:butt;stroke-linejoin:miter;stroke-miterlimit:4;stroke-dasharray:none;stroke-opacity:1"
       id="path340"
       inkscape:connector-curvature="0" /><path
       inkscape:connector-curvature="0"
       id="path342"
       style="fill:#000000;fill-opacity:1;fill-rule:nonzero;stroke:none"
       d="m 488.207,258.361 57.133,0" /><path
       d="m 488.20545,258.36075 57.13325,0"
       style="fill:none;stroke:#000000;stroke-width:1.39151371;stroke-linecap:butt;stroke-linejoin:miter;stroke-miterlimit:4;stroke-dasharray:none;stroke-opacity:1"
       id="path346"
       inkscape:connector-curvature="0" /><path
       inkscape:connector-curvature="0"
       id="path348"
       style="fill:#000000;fill-opacity:1;fill-rule:nonzero;stroke:none"
       d="m 488.207,245.92 57.133,0" /><path
       d="m 488.20545,245.91876 57.13325,0"
       style="fill:none;stroke:#000000;stroke-width:1.39151371;stroke-linecap:butt;stroke-linejoin:miter;stroke-miterlimit:4;stroke-dasharray:none;stroke-opacity:1"
       id="path352"
       inkscape:connector-curvature="0" /><path
       inkscape:connector-curvature="0"
       id="path354"
       style="fill:#ffffff;fill-opacity:1;fill-rule:nonzero;stroke:none"
       d="m 153.395,326.299 0,-28.02 -0.18,0 0,-76.906 85.594,0 0,76.906 -36.375,0 0,28.02 -49.039,0 z" /><path
       d="m 153.39476,326.29783 0,-28.01935 -0.18043,0 0,-76.90584 85.59349,0 0,76.90584 -36.37496,0 0,28.01935 -49.0381,0 z"
       style="fill:none;stroke:#000000;stroke-width:0.99083602;stroke-linecap:butt;stroke-linejoin:miter;stroke-miterlimit:4;stroke-dasharray:none;stroke-opacity:1"
       id="path358"
       inkscape:connector-curvature="0" /><path
       inkscape:connector-curvature="0"
       id="path360"
       style="fill:#f3f3f3;fill-opacity:1;fill-rule:nonzero;stroke:none"
       d="m 202.598,326.439 0,-27.976 36.324,0 -36.324,27.976 z" /><path
       d="m 202.59764,326.43853 0,-27.97629 36.32386,0 -36.32386,27.97629 z"
       style="fill:none;stroke:#000000;stroke-width:0.97814476;stroke-linecap:butt;stroke-linejoin:round;stroke-miterlimit:4;stroke-dasharray:none;stroke-opacity:1"
       id="path364"
       inkscape:connector-curvature="0" /><path
       d="m 161.13218,303.8611 31.95716,0 -0.12098,-0.0392 0.80826,0.0392"
       style="fill:none;stroke:#000000;stroke-width:1.39151371;stroke-linecap:butt;stroke-linejoin:miter;stroke-miterlimit:4;stroke-dasharray:none;stroke-opacity:1"
       id="path368"
       inkscape:connector-curvature="0" /><path
       inkscape:connector-curvature="0"
       id="path370"
       style="fill:#000000;fill-opacity:1;fill-rule:nonzero;stroke:none"
       d="m 164.035,285.197 57.137,0" /><path
       d="m 164.03463,285.19716 57.13637,0"
       style="fill:none;stroke:#000000;stroke-width:1.39151371;stroke-linecap:butt;stroke-linejoin:miter;stroke-miterlimit:4;stroke-dasharray:none;stroke-opacity:1"
       id="path374"
       inkscape:connector-curvature="0" /><path
       inkscape:connector-curvature="0"
       id="path376"
       style="fill:#000000;fill-opacity:1;fill-rule:nonzero;stroke:none"
       d="m 164.035,270.978 57.137,0" /><path
       d="m 164.03463,270.97788 57.13637,0"
       style="fill:none;stroke:#000000;stroke-width:1.39151371;stroke-linecap:butt;stroke-linejoin:miter;stroke-miterlimit:4;stroke-dasharray:none;stroke-opacity:1"
       id="path380"
       inkscape:connector-curvature="0" /><path
       inkscape:connector-curvature="0"
       id="path382"
       style="fill:#000000;fill-opacity:1;fill-rule:nonzero;stroke:none"
       d="m 165.004,231.431 57.137,0" /><path
       d="m 165.0035,231.4315 57.13637,0"
       style="fill:none;stroke:#000000;stroke-width:1.39151371;stroke-linecap:butt;stroke-linejoin:miter;stroke-miterlimit:4;stroke-dasharray:none;stroke-opacity:1"
       id="path386"
       inkscape:connector-curvature="0" /><path
       inkscape:connector-curvature="0"
       id="path388"
       style="fill:#000000;fill-opacity:1;fill-rule:nonzero;stroke:none"
       d="m 165.004,256.759 57.137,0" /><path
       d="m 165.0035,256.75956 57.13637,0"
       style="fill:none;stroke:#000000;stroke-width:1.39151371;stroke-linecap:butt;stroke-linejoin:miter;stroke-miterlimit:4;stroke-dasharray:none;stroke-opacity:1"
       id="path392"
       inkscape:connector-curvature="0" /><path
       inkscape:connector-curvature="0"
       id="path394"
       style="fill:#000000;fill-opacity:1;fill-rule:nonzero;stroke:none"
       d="m 165.004,244.318 57.137,0" /><path
       d="m 165.0035,244.31758 57.13637,0"
       style="fill:none;stroke:#000000;stroke-width:1.39151371;stroke-linecap:butt;stroke-linejoin:miter;stroke-miterlimit:4;stroke-dasharray:none;stroke-opacity:1"
       id="path398"
       inkscape:connector-curvature="0" /><path
       inkscape:connector-curvature="0"
       id="path400"
       style="fill:#ffffff;fill-opacity:1;fill-rule:nonzero;stroke:none"
       d="m 34.9961,327.896 0,-28.019 -0.1801,0 0,-76.907 85.594,0 0,76.907 -36.3791,0 0,28.019 -49.0348,0 z" /><path
       d="m 34.996015,327.89519 0,-28.01935 -0.180112,0 0,-76.90584 85.593387,0 0,76.90584 -36.378723,0 0,28.01935 -49.034552,0 z"
       style="fill:none;stroke:#000000;stroke-width:0.99083602;stroke-linecap:butt;stroke-linejoin:miter;stroke-miterlimit:4;stroke-dasharray:none;stroke-opacity:1"
       id="path404"
       inkscape:connector-curvature="0" /><path
       inkscape:connector-curvature="0"
       id="path406"
       style="fill:#f3f3f3;fill-opacity:1;fill-rule:nonzero;stroke:none"
       d="m 84.1988,328.037 0,-27.973 36.3212,0 -36.3212,27.973 z" /><path
       d="m 84.198582,328.03588 0,-27.9715 36.321258,0 -36.321258,27.9715 z"
       style="fill:none;stroke:#000000;stroke-width:0.97814476;stroke-linecap:butt;stroke-linejoin:round;stroke-miterlimit:4;stroke-dasharray:none;stroke-opacity:1"
       id="path410"
       inkscape:connector-curvature="0" /><path
       d="m 42.729892,305.45846 31.957781,0 -0.121917,-0.0383 0.808993,0.0421"
       style="fill:none;stroke:#000000;stroke-width:1.39151371;stroke-linecap:butt;stroke-linejoin:miter;stroke-miterlimit:4;stroke-dasharray:none;stroke-opacity:1"
       id="path414"
       inkscape:connector-curvature="0" /><path
       inkscape:connector-curvature="0"
       id="path416"
       style="fill:#000000;fill-opacity:1;fill-rule:nonzero;stroke:none"
       d="m 45.6371,286.799 57.1359,0" /><path
       d="m 45.636928,286.79835 57.135742,0"
       style="fill:none;stroke:#000000;stroke-width:1.39151371;stroke-linecap:butt;stroke-linejoin:miter;stroke-miterlimit:4;stroke-dasharray:none;stroke-opacity:1"
       id="path420"
       inkscape:connector-curvature="0" /><path
       inkscape:connector-curvature="0"
       id="path422"
       style="fill:#000000;fill-opacity:1;fill-rule:nonzero;stroke:none"
       d="m 45.6371,272.58 57.1359,0" /><path
       d="m 45.636928,272.58003 57.135742,0"
       style="fill:none;stroke:#000000;stroke-width:1.39151371;stroke-linecap:butt;stroke-linejoin:miter;stroke-miterlimit:4;stroke-dasharray:none;stroke-opacity:1"
       id="path426"
       inkscape:connector-curvature="0" /><path
       inkscape:connector-curvature="0"
       id="path428"
       style="fill:#000000;fill-opacity:1;fill-rule:nonzero;stroke:none"
       d="m 46.6051,233.033 57.1329,0" /><path
       d="m 46.604966,233.03269 57.132614,0"
       style="fill:none;stroke:#000000;stroke-width:1.39151371;stroke-linecap:butt;stroke-linejoin:miter;stroke-miterlimit:4;stroke-dasharray:none;stroke-opacity:1"
       id="path432"
       inkscape:connector-curvature="0" /><path
       inkscape:connector-curvature="0"
       id="path434"
       style="fill:#000000;fill-opacity:1;fill-rule:nonzero;stroke:none"
       d="m 46.6051,258.361 57.1329,0" /><path
       d="m 46.604966,258.36075 57.132614,0"
       style="fill:none;stroke:#000000;stroke-width:1.39151371;stroke-linecap:butt;stroke-linejoin:miter;stroke-miterlimit:4;stroke-dasharray:none;stroke-opacity:1"
       id="path438"
       inkscape:connector-curvature="0" /><path
       inkscape:connector-curvature="0"
       id="path440"
       style="fill:#000000;fill-opacity:1;fill-rule:nonzero;stroke:none"
       d="m 46.6051,245.92 57.1329,0" /><path
       d="m 46.604966,245.91876 57.132614,0"
       style="fill:none;stroke:#000000;stroke-width:1.39151371;stroke-linecap:butt;stroke-linejoin:miter;stroke-miterlimit:4;stroke-dasharray:none;stroke-opacity:1"
       id="path444"
       inkscape:connector-curvature="0" /><path
       inkscape:connector-curvature="0"
       id="path446"
       style="fill:#000000;fill-opacity:1;fill-rule:nonzero;stroke:none"
       d="m 813.945,430.345 c 0,-2.589 -2.07,-4.687 -4.625,-4.687 -2.554,0 -4.625,2.098 -4.625,4.687 0,2.59 2.071,4.688 4.625,4.688 2.555,0 4.625,-2.098 4.625,-4.688 z" /><path
       d="m 813.9467,430.34438 c 0,-2.58916 -2.0711,-4.68706 -4.62594,-4.68706 -2.55385,0 -4.62494,2.0979 -4.62494,4.68706 0,2.59016 2.07109,4.68705 4.62494,4.68705 2.55484,0 4.62594,-2.09689 4.62594,-4.68705 z"
       style="fill:none;stroke:#000000;stroke-width:1.27016103;stroke-linecap:butt;stroke-linejoin:round;stroke-miterlimit:4;stroke-dasharray:none;stroke-opacity:1"
       id="path450"
       inkscape:connector-curvature="0" /><path
       inkscape:connector-curvature="0"
       id="path452"
       style="fill:#000000;fill-opacity:1;fill-rule:nonzero;stroke:none"
       d="m 468.375,189.412 -7.125,18.66 2.637,0 5.914,-15.711 5.926,15.711 2.625,0 -7.114,-18.66 -2.863,0" /><path
       inkscape:connector-curvature="0"
       id="path454"
       style="fill:#000000;fill-opacity:1;fill-rule:nonzero;stroke:none"
       d="m 493.789,192.072 0,5.012 -4.125,0 0,2.078 6.625,0 0,-8.016 c -0.977,-0.691 -2.051,-1.215 -3.227,-1.574 -1.175,-0.348 -2.429,-0.523 -3.761,-0.523 -2.918,0 -5.199,0.847 -6.852,2.55 -1.64,1.707 -2.461,4.082 -2.461,7.125 0,3.047 0.821,5.422 2.461,7.125 1.653,1.707 3.934,2.563 6.852,2.563 1.215,0 2.371,-0.153 3.461,-0.453 1.101,-0.297 2.113,-0.739 3.039,-1.325 l 0,-2.687 c -0.934,0.793 -1.926,1.387 -2.977,1.789 -1.051,0.398 -2.152,0.598 -3.312,0.598 -2.282,0 -4,-0.637 -5.149,-1.91 -1.14,-1.278 -1.715,-3.176 -1.715,-5.7 0,-2.519 0.575,-4.414 1.715,-5.687 1.149,-1.278 2.867,-1.914 5.149,-1.914 0.89,0 1.687,0.074 2.386,0.226 0.704,0.157 1.332,0.399 1.891,0.723" /><path
       inkscape:connector-curvature="0"
       id="path456"
       style="fill:#000000;fill-opacity:1;fill-rule:nonzero;stroke:none"
       d="m 507.148,205.584 -3.421,-9.285 6.859,0 -3.438,9.285 m -1.421,2.488 2.859,0 7.113,-18.66 -2.625,0 -1.699,4.785 -8.414,0 -1.699,-4.785 -2.66,0 7.125,18.66" /><path
       inkscape:connector-curvature="0"
       id="path458"
       style="fill:#000000;fill-opacity:1;fill-rule:nonzero;stroke:none"
       d="m 518.414,208.072 2.524,0 0,-7.648 9.175,0 0,7.648 2.524,0 0,-18.66 -2.524,0 0,8.887 -9.175,0 0,-8.887 -2.524,0 0,18.66" /><path
       inkscape:connector-curvature="0"
       id="path460"
       style="fill:#000000;fill-opacity:1;fill-rule:nonzero;stroke:none"
       d="m 537.664,208.072 11.797,0 0,-2.125 -9.273,0 0,-5.523 8.886,0 0,-2.125 -8.886,0 0,-6.762 9.5,0 0,-2.125 -12.024,0 0,18.66" /><path
       inkscape:connector-curvature="0"
       id="path462"
       style="fill:#000000;fill-opacity:1;fill-rule:nonzero;stroke:none"
       d="m 560.102,205.584 -3.426,-9.285 6.863,0 -3.437,9.285 m -1.426,2.488 2.863,0 7.109,-18.66 -2.625,0 -1.699,4.785 -8.41,0 -1.703,-4.785 -2.66,0 7.125,18.66" /><path
       inkscape:connector-curvature="0"
       id="path464"
       style="fill:#000000;fill-opacity:1;fill-rule:nonzero;stroke:none"
       d="m 573.887,205.998 0,-14.512 3.051,0 c 2.574,0 4.457,0.582 5.648,1.75 1.203,1.164 1.801,3.008 1.801,5.523 0,2.5 -0.598,4.329 -1.801,5.489 -1.191,1.168 -3.074,1.75 -5.648,1.75 l -3.051,0 m -2.524,2.074 5.188,0 c 3.617,0 6.269,-0.754 7.961,-2.262 1.691,-1.5 2.539,-3.851 2.539,-7.051 0,-3.214 -0.852,-5.578 -2.551,-7.085 -1.699,-1.508 -4.352,-2.262 -7.949,-2.262 l -5.188,0 0,18.66" /><path
       inkscape:connector-curvature="0"
       id="path466"
       style="fill:#000000;fill-opacity:1;fill-rule:nonzero;stroke:none"
       d="m 631.574,189.412 -7.125,18.66 2.637,0 5.914,-15.711 5.926,15.711 2.625,0 -7.113,-18.66 -2.864,0" /><path
       inkscape:connector-curvature="0"
       id="path468"
       style="fill:#000000;fill-opacity:1;fill-rule:nonzero;stroke:none"
       d="m 656.988,192.072 0,5.012 -4.125,0 0,2.078 6.625,0 0,-8.016 c -0.976,-0.691 -2.05,-1.215 -3.226,-1.574 -1.176,-0.348 -2.43,-0.523 -3.762,-0.523 -2.918,0 -5.199,0.847 -6.852,2.55 -1.64,1.707 -2.46,4.082 -2.46,7.125 0,3.047 0.82,5.422 2.46,7.125 1.653,1.707 3.934,2.563 6.852,2.563 1.215,0 2.371,-0.153 3.461,-0.453 1.101,-0.297 2.113,-0.739 3.039,-1.325 l 0,-2.687 c -0.934,0.793 -1.926,1.387 -2.977,1.789 -1.046,0.398 -2.152,0.598 -3.312,0.598 -2.281,0 -4,-0.637 -5.149,-1.91 -1.14,-1.278 -1.71,-3.176 -1.71,-5.7 0,-2.519 0.57,-4.414 1.71,-5.687 1.149,-1.278 2.868,-1.914 5.149,-1.914 0.894,0 1.687,0.074 2.391,0.226 0.699,0.157 1.328,0.399 1.886,0.723" /><path
       inkscape:connector-curvature="0"
       id="path470"
       style="fill:#000000;fill-opacity:1;fill-rule:nonzero;stroke:none"
       d="m 670.352,205.584 -3.426,-9.285 6.863,0 -3.437,9.285 m -1.426,2.488 2.863,0 7.109,-18.66 -2.625,0 -1.699,4.785 -8.41,0 -1.703,-4.785 -2.66,0 7.125,18.66" /><path
       inkscape:connector-curvature="0"
       id="path472"
       style="fill:#000000;fill-opacity:1;fill-rule:nonzero;stroke:none"
       d="m 684.137,205.998 0,-14.512 3.051,0 c 2.574,0 4.457,0.582 5.648,1.75 1.203,1.164 1.801,3.008 1.801,5.523 0,2.5 -0.598,4.329 -1.801,5.489 -1.191,1.168 -3.074,1.75 -5.648,1.75 l -3.051,0 m -2.524,2.074 5.188,0 c 3.617,0 6.269,-0.754 7.961,-2.262 1.691,-1.5 2.539,-3.851 2.539,-7.051 0,-3.214 -0.852,-5.578 -2.551,-7.085 -1.699,-1.508 -4.352,-2.262 -7.949,-2.262 l -5.188,0 0,18.66" /><path
       inkscape:connector-curvature="0"
       id="path474"
       style="fill:#000000;fill-opacity:1;fill-rule:nonzero;stroke:none"
       d="m 707.102,205.584 -3.426,-9.285 6.863,0 -3.437,9.285 m -1.426,2.488 2.863,0 7.109,-18.66 -2.625,0 -1.699,4.785 -8.41,0 -1.703,-4.785 -2.66,0 7.125,18.66" /><path
       inkscape:connector-curvature="0"
       id="path476"
       style="fill:#000000;fill-opacity:1;fill-rule:nonzero;stroke:none"
       d="m 713.773,208.072 15.789,0 0,-2.125 -6.624,0 0,-16.535 -2.54,0 0,16.535 -6.625,0 0,2.125" /><path
       inkscape:connector-curvature="0"
       id="path478"
       style="fill:#000000;fill-opacity:1;fill-rule:nonzero;stroke:none"
       d="m 736.25,205.584 -3.426,-9.285 6.864,0 -3.438,9.285 m -1.426,2.488 2.864,0 7.113,-18.66 -2.625,0 -1.699,4.785 -8.415,0 -1.699,-4.785 -2.664,0 7.125,18.66" /><path
       inkscape:connector-curvature="0"
       id="path480"
       style="fill:#000000;fill-opacity:1;fill-rule:nonzero;stroke:none"
       d="m 775.574,189.412 -7.125,18.66 2.637,0 5.914,-15.711 5.926,15.711 2.625,0 -7.113,-18.66 -2.864,0" /><path
       inkscape:connector-curvature="0"
       id="path482"
       style="fill:#000000;fill-opacity:1;fill-rule:nonzero;stroke:none"
       d="m 800.988,192.072 0,5.012 -4.125,0 0,2.078 6.625,0 0,-8.016 c -0.976,-0.691 -2.05,-1.215 -3.226,-1.574 -1.176,-0.348 -2.43,-0.523 -3.762,-0.523 -2.918,0 -5.199,0.847 -6.852,2.55 -1.64,1.707 -2.46,4.082 -2.46,7.125 0,3.047 0.82,5.422 2.46,7.125 1.653,1.707 3.934,2.563 6.852,2.563 1.215,0 2.371,-0.153 3.461,-0.453 1.101,-0.297 2.113,-0.739 3.039,-1.325 l 0,-2.687 c -0.934,0.793 -1.926,1.387 -2.977,1.789 -1.046,0.398 -2.152,0.598 -3.312,0.598 -2.281,0 -4,-0.637 -5.149,-1.91 -1.14,-1.278 -1.71,-3.176 -1.71,-5.7 0,-2.519 0.57,-4.414 1.71,-5.687 1.149,-1.278 2.868,-1.914 5.149,-1.914 0.894,0 1.687,0.074 2.391,0.226 0.699,0.157 1.328,0.399 1.886,0.723" /><path
       inkscape:connector-curvature="0"
       id="path484"
       style="fill:#000000;fill-opacity:1;fill-rule:nonzero;stroke:none"
       d="m 814.352,205.584 -3.426,-9.285 6.863,0 -3.437,9.285 m -1.426,2.488 2.863,0 7.109,-18.66 -2.625,0 -1.699,4.785 -8.41,0 -1.703,-4.785 -2.66,0 7.125,18.66" /><path
       inkscape:connector-curvature="0"
       id="path486"
       style="fill:#000000;fill-opacity:1;fill-rule:nonzero;stroke:none"
       d="m 828.137,205.998 0,-14.512 3.051,0 c 2.574,0 4.457,0.582 5.648,1.75 1.203,1.164 1.801,3.008 1.801,5.523 0,2.5 -0.598,4.329 -1.801,5.489 -1.191,1.168 -3.074,1.75 -5.648,1.75 l -3.051,0 m -2.524,2.074 5.188,0 c 3.617,0 6.269,-0.754 7.961,-2.262 1.691,-1.5 2.539,-3.851 2.539,-7.051 0,-3.214 -0.852,-5.578 -2.551,-7.085 -1.699,-1.508 -4.352,-2.262 -7.949,-2.262 l -5.188,0 0,18.66" /><path
       inkscape:connector-curvature="0"
       id="path488"
       style="fill:#000000;fill-opacity:1;fill-rule:nonzero;stroke:none"
       d="m 845.312,189.412 2.52305,0 0,18.6598 -2.52305,0 0,-18.6598 z" /><path
       inkscape:connector-curvature="0"
       id="path490"
       style="fill:#000000;fill-opacity:1;fill-rule:nonzero;stroke:none"
       d="m 866.836,206.634 0,-2.66 c -0.848,0.789 -1.758,1.383 -2.723,1.774 -0.961,0.39 -1.98,0.586 -3.062,0.586 -2.133,0 -3.766,-0.653 -4.903,-1.961 -1.132,-1.301 -1.699,-3.184 -1.699,-5.649 0,-2.461 0.567,-4.343 1.699,-5.652 1.137,-1.301 2.77,-1.949 4.903,-1.949 1.082,0 2.101,0.195 3.062,0.586 0.965,0.394 1.875,0.984 2.723,1.777 l 0,-2.637 c -0.883,-0.601 -1.82,-1.05 -2.813,-1.351 -0.98,-0.301 -2.023,-0.449 -3.125,-0.449 -2.824,0 -5.046,0.863 -6.671,2.585 -1.625,1.735 -2.438,4.098 -2.438,7.09 0,3 0.813,5.36 2.438,7.086 1.625,1.735 3.847,2.602 6.671,2.602 1.118,0 2.168,-0.153 3.153,-0.453 0.992,-0.289 1.922,-0.731 2.785,-1.325" /><path
       inkscape:connector-curvature="0"
       id="path492"
       style="fill:#000000;fill-opacity:1;fill-rule:nonzero;stroke:none"
       d="m 868.176,208.072 15.785,0 0,-2.125 -6.625,0 0,-16.535 -2.535,0 0,16.535 -6.625,0 0,2.125" /><path
       inkscape:connector-curvature="0"
       id="path494"
       style="fill:#000000;fill-opacity:1;fill-rule:nonzero;stroke:none"
       d="m 166.188,192.611 2.63711,0 0,3.17617 -2.63711,0 0,-3.17617 z" /><path
       inkscape:connector-curvature="0"
       id="path496"
       style="fill:#000000;fill-opacity:1;fill-rule:nonzero;stroke:none"
       d="m 174.113,211.271 11.801,0 0,-2.125 -9.277,0 0,-5.523 8.886,0 0,-2.125 -8.886,0 0,-6.762 9.5,0 0,-2.125 -12.024,0 0,18.66" /><path
       inkscape:connector-curvature="0"
       id="path498"
       style="fill:#000000;fill-opacity:1;fill-rule:nonzero;stroke:none"
       d="m 197.887,209.56 c -1.832,0 -3.289,-0.683 -4.375,-2.051 -1.074,-1.367 -1.614,-3.226 -1.614,-5.585 0,-2.352 0.54,-4.211 1.614,-5.575 1.086,-1.367 2.543,-2.05 4.375,-2.05 1.836,0 3.285,0.683 4.351,2.05 1.074,1.364 1.614,3.223 1.614,5.575 0,2.359 -0.54,4.218 -1.614,5.585 -1.066,1.368 -2.515,2.051 -4.351,2.051 m 3.539,-16.613 3.324,-3.637 -3.051,0 -2.761,2.989 c -0.274,-0.016 -0.489,-0.032 -0.637,-0.04 -0.141,-0.007 -0.281,-0.011 -0.414,-0.011 -2.625,0 -4.723,0.875 -6.301,2.625 -1.566,1.758 -2.348,4.109 -2.348,7.051 0,2.949 0.782,5.3 2.348,7.05 1.578,1.758 3.676,2.637 6.301,2.637 2.617,0 4.711,-0.879 6.277,-2.637 1.566,-1.75 2.348,-4.101 2.348,-7.05 0,-2.168 -0.438,-4.024 -1.313,-5.563 -0.867,-1.543 -2.125,-2.68 -3.773,-3.414" /><path
       inkscape:connector-curvature="0"
       id="path500"
       style="fill:#000000;fill-opacity:1;fill-rule:nonzero;stroke:none"
       d="m 210.176,211.271 2.535,0 0,-11.336 c 0,-2 0.363,-3.441 1.09,-4.324 0.722,-0.875 1.898,-1.312 3.523,-1.312 1.617,0 2.789,0.437 3.512,1.312 0.726,0.883 1.09,2.324 1.09,4.324 l 0,11.336 2.535,0 0,-11.648 c 0,-2.434 -0.602,-4.27 -1.813,-5.512 -1.199,-1.242 -2.972,-1.863 -5.324,-1.863 -2.359,0 -4.14,0.621 -5.347,1.863 -1.204,1.242 -1.801,3.078 -1.801,5.512 l 0,11.648" /><path
       inkscape:connector-curvature="0"
       id="path502"
       style="fill:#000000;fill-opacity:1;fill-rule:nonzero;stroke:none"
       d="m 63.7891,192.611 2.63711,0 0,3.17617 -2.63711,0 0,-3.17617 z" /><path
       inkscape:connector-curvature="0"
       id="path504"
       style="fill:#000000;fill-opacity:1;fill-rule:nonzero;stroke:none"
       d="m 71.7109,211.271 2.527,0 0,-7.648 9.1762,0 0,7.648 2.5238,0 0,-18.66 -2.5238,0 0,8.887 -9.1762,0 0,-8.887 -2.527,0 0,18.66" /><path
       inkscape:connector-curvature="0"
       id="path506"
       style="fill:none;stroke:#000000;stroke-width:1.13999999;stroke-linecap:butt;stroke-linejoin:round;stroke-miterlimit:4;stroke-dasharray:none;stroke-opacity:1"
       d="m 22.648,173.411 219.204,0 c 5.316,0 9.597,-2.538 9.597,-5.691 l 0,-132.4723 c 0,-3.1524 -4.281,-5.6872 -9.597,-5.6872 l -219.204,0 c -5.316,0 -9.5968,2.5348 -9.5968,5.6872 l 0,132.4723 c 0,3.153 4.2808,5.691 9.5968,5.691 z" /><path
       inkscape:connector-curvature="0"
       id="path508"
       style="fill:#000000;fill-opacity:1;fill-rule:nonzero;stroke:none"
       d="m 35.1051,131.271 2.5508,0 3.9261,-15.773 3.9102,15.773 2.8398,0 3.9258,-15.773 3.9102,15.773 2.5621,0 -4.6871,-18.66 -3.1758,0 -3.9371,16.199 -3.9731,-16.199 -3.1761,0 -4.6758,18.66" /><path
       inkscape:connector-curvature="0"
       id="path510"
       style="fill:#000000;fill-opacity:1;fill-rule:nonzero;stroke:none"
       d="m 65.8949,124.998 c -1.2347,0 -2.2109,-0.485 -2.9258,-1.449 -0.7152,-0.961 -1.0742,-2.278 -1.0742,-3.95 0,-1.675 0.3512,-2.996 1.0621,-3.965 0.7149,-0.957 1.695,-1.437 2.9379,-1.437 1.2223,0 2.1949,0.484 2.9102,1.449 0.7179,0.969 1.0777,2.285 1.0777,3.953 0,1.657 -0.3598,2.969 -1.0777,3.938 -0.7153,0.972 -1.6879,1.461 -2.9102,1.461 m 0,1.949 c 2,0 3.5699,-0.648 4.7102,-1.949 1.141,-1.301 1.7148,-3.102 1.7148,-5.399 0,-2.293 -0.5738,-4.093 -1.7148,-5.402 -1.1403,-1.301 -2.7102,-1.949 -4.7102,-1.949 -2.0078,0 -3.5859,0.648 -4.7269,1.949 -1.1328,1.309 -1.6989,3.109 -1.6989,5.402 0,2.297 0.5661,4.098 1.6989,5.399 1.141,1.301 2.7191,1.949 4.7269,1.949" /><path
       inkscape:connector-curvature="0"
       id="path512"
       style="fill:#000000;fill-opacity:1;fill-rule:nonzero;stroke:none"
       d="m 76.1172,112.611 2.30078,0 0,19.4492 -2.30078,0 0,-19.4492 z" /><path
       inkscape:connector-curvature="0"
       id="path514"
       style="fill:#000000;fill-opacity:1;fill-rule:nonzero;stroke:none"
       d="m 90.3051,132.06 0,-1.914 -2.2,0 c -0.8242,0 -1.3981,-0.164 -1.7223,-0.5 -0.3168,-0.332 -0.4769,-0.933 -0.4769,-1.797 l 0,-1.238 3.789,0 0,-1.789 -3.789,0 0,-12.211 -2.3118,0 0,12.211 -2.1992,0 0,1.789 2.1992,0 0,0.973 c 0,1.558 0.3629,2.691 1.086,3.402 0.7258,0.715 1.875,1.074 3.4527,1.074 l 2.1723,0" /><path
       inkscape:connector-curvature="0"
       id="path516"
       style="fill:#000000;fill-opacity:1;fill-rule:nonzero;stroke:none"
       d="m 104.195,120.185 0,-1.125 -10.5778,0 c 0.1019,-1.582 0.5777,-2.793 1.4258,-3.625 0.859,-0.824 2.0511,-1.238 3.5742,-1.238 0.8867,0 1.7378,0.109 2.5628,0.324 0.836,0.219 1.66,0.543 2.476,0.977 l 0,-2.176 c -0.824,-0.348 -1.672,-0.617 -2.539,-0.801 -0.863,-0.183 -1.7459,-0.273 -2.6369,-0.273 -2.234,0 -4.0031,0.648 -5.3121,1.949 -1.3008,1.301 -1.9489,3.059 -1.9489,5.277 0,2.289 0.6168,4.106 1.8508,5.45 1.2391,1.347 2.9102,2.023 5.0121,2.023 1.8828,0 3.371,-0.609 4.461,-1.824 1.102,-1.207 1.652,-2.856 1.652,-4.938 m -2.3,0.676 c -0.016,1.258 -0.372,2.262 -1.063,3.012 -0.684,0.75 -1.5941,1.125 -2.7269,1.125 -1.2813,0 -2.3121,-0.364 -3.0852,-1.086 -0.766,-0.727 -1.2109,-1.746 -1.325,-3.063 l 8.2001,0.012" /><path
       inkscape:connector-curvature="0"
       id="path518"
       style="fill:#000000;fill-opacity:1;fill-rule:nonzero;stroke:none"
       d="m 119.605,121.06 0,-8.449 -2.3,0 0,8.375 c 0,1.324 -0.258,2.316 -0.774,2.973 -0.515,0.66 -1.293,0.988 -2.324,0.988 -1.242,0 -2.223,-0.395 -2.937,-1.188 -0.719,-0.789 -1.075,-1.871 -1.075,-3.238 l 0,-7.91 -2.312,0 0,14 2.312,0 0,-2.176 c 0.547,0.84 1.196,1.473 1.938,1.887 0.75,0.418 1.609,0.625 2.586,0.625 1.609,0 2.824,-0.5 3.648,-1.5 0.828,-0.992 1.238,-2.453 1.238,-4.387" /><path
       inkscape:connector-curvature="0"
       id="path520"
       style="fill:#000000;fill-opacity:1;fill-rule:nonzero;stroke:none"
       d="m 133.145,126.197 0,-2.176 c -0.653,0.336 -1.325,0.586 -2.028,0.75 -0.699,0.168 -1.422,0.25 -2.172,0.25 -1.144,0 -2,-0.172 -2.578,-0.523 -0.566,-0.352 -0.847,-0.875 -0.847,-1.574 0,-0.536 0.203,-0.954 0.613,-1.262 0.406,-0.301 1.226,-0.59 2.461,-0.863 l 0.789,-0.176 c 1.633,-0.352 2.789,-0.848 3.472,-1.489 0.692,-0.632 1.04,-1.519 1.04,-2.66 0,-1.3 -0.516,-2.332 -1.551,-3.09 -1.024,-0.757 -2.438,-1.136 -4.239,-1.136 -0.75,0 -1.531,0.074 -2.347,0.226 -0.809,0.141 -1.664,0.356 -2.563,0.649 l 0,2.375 c 0.848,-0.442 1.688,-0.774 2.512,-1 0.824,-0.215 1.641,-0.324 2.449,-0.324 1.082,0 1.918,0.183 2.5,0.55 0.582,0.375 0.875,0.899 0.875,1.575 0,0.625 -0.211,1.101 -0.636,1.437 -0.418,0.332 -1.34,0.652 -2.762,0.961 l -0.801,0.187 c -1.426,0.301 -2.453,0.758 -3.09,1.375 -0.633,0.625 -0.949,1.481 -0.949,2.563 0,1.316 0.469,2.336 1.402,3.051 0.934,0.715 2.258,1.074 3.973,1.074 0.852,0 1.652,-0.063 2.402,-0.188 0.75,-0.125 1.442,-0.312 2.075,-0.562" /><path
       inkscape:connector-curvature="0"
       id="path522"
       style="fill:#000000;fill-opacity:1;fill-rule:nonzero;stroke:none"
       d="m 139.844,130.584 0,-3.973 4.738,0 0,-1.789 -4.738,0 0,-7.598 c 0,-1.144 0.152,-1.875 0.461,-2.203 0.316,-0.324 0.957,-0.484 1.914,-0.484 l 2.363,0 0,-1.926 -2.363,0 c -1.774,0 -3,0.328 -3.676,0.988 -0.676,0.664 -1.012,1.875 -1.012,3.625 l 0,7.598 -1.687,0 0,1.789 1.687,0 0,3.973 2.313,0" /><path
       inkscape:connector-curvature="0"
       id="path524"
       style="fill:#000000;fill-opacity:1;fill-rule:nonzero;stroke:none"
       d="m 159.594,120.185 0,-1.125 -10.574,0 c 0.097,-1.582 0.574,-2.793 1.425,-3.625 0.856,-0.824 2.047,-1.238 3.575,-1.238 0.882,0 1.738,0.109 2.562,0.324 0.832,0.219 1.656,0.543 2.473,0.977 l 0,-2.176 c -0.825,-0.348 -1.668,-0.617 -2.535,-0.801 -0.868,-0.183 -1.747,-0.273 -2.637,-0.273 -2.235,0 -4.004,0.648 -5.313,1.949 -1.3,1.301 -1.953,3.059 -1.953,5.277 0,2.289 0.617,4.106 1.852,5.45 1.242,1.347 2.914,2.023 5.011,2.023 1.883,0 3.372,-0.609 4.465,-1.824 1.098,-1.207 1.649,-2.856 1.649,-4.938 m -2.301,0.676 c -0.016,1.258 -0.371,2.262 -1.063,3.012 -0.683,0.75 -1.589,1.125 -2.722,1.125 -1.285,0 -2.313,-0.364 -3.09,-1.086 -0.766,-0.727 -1.207,-1.746 -1.324,-3.063 l 8.199,0.012" /><path
       inkscape:connector-curvature="0"
       id="path526"
       style="fill:#000000;fill-opacity:1;fill-rule:nonzero;stroke:none"
       d="m 163.367,126.611 2.301,0 0,-14 -2.301,0 0,14 m 0,5.449 2.301,0 0,-2.914 -2.301,0 0,2.914" /><path
       inkscape:connector-curvature="0"
       id="path528"
       style="fill:#000000;fill-opacity:1;fill-rule:nonzero;stroke:none"
       d="m 182.105,121.06 0,-8.449 -2.3,0 0,8.375 c 0,1.324 -0.258,2.316 -0.774,2.973 -0.515,0.66 -1.293,0.988 -2.324,0.988 -1.242,0 -2.223,-0.395 -2.937,-1.188 -0.719,-0.789 -1.075,-1.871 -1.075,-3.238 l 0,-7.91 -2.312,0 0,14 2.312,0 0,-2.176 c 0.547,0.84 1.196,1.473 1.938,1.887 0.75,0.418 1.609,0.625 2.586,0.625 1.609,0 2.824,-0.5 3.648,-1.5 0.828,-0.992 1.238,-2.453 1.238,-4.387" /><path
       inkscape:connector-curvature="0"
       id="path530"
       style="fill:#000000;fill-opacity:1;fill-rule:nonzero;stroke:none"
       d="m 202.844,122.674 c 1.207,-0.258 2.148,-0.797 2.824,-1.614 0.684,-0.816 1.027,-1.824 1.027,-3.023 0,-1.844 -0.636,-3.27 -1.902,-4.278 -1.266,-1.007 -3.066,-1.511 -5.398,-1.511 -0.786,0 -1.594,0.078 -2.426,0.238 -0.824,0.148 -1.68,0.379 -2.563,0.688 l 0,2.437 c 0.699,-0.41 1.465,-0.719 2.301,-0.926 0.832,-0.207 1.703,-0.312 2.613,-0.312 1.582,0 2.785,0.312 3.61,0.937 0.836,0.625 1.25,1.535 1.25,2.727 0,1.097 -0.387,1.957 -1.16,2.574 -0.766,0.625 -1.84,0.938 -3.215,0.938 l -2.172,0 0,2.074 2.273,0 c 1.242,0 2.192,0.246 2.852,0.738 0.656,0.5 0.984,1.215 0.984,2.148 0,0.961 -0.34,1.692 -1.023,2.2 -0.676,0.519 -1.645,0.777 -2.914,0.777 -0.692,0 -1.434,-0.074 -2.223,-0.227 -0.793,-0.148 -1.664,-0.382 -2.613,-0.699 l 0,2.25 c 0.957,0.266 1.855,0.465 2.687,0.602 0.84,0.133 1.633,0.199 2.375,0.199 1.918,0 3.434,-0.437 4.551,-1.312 1.117,-0.868 1.676,-2.043 1.676,-3.528 0,-1.031 -0.297,-1.906 -0.891,-2.625 -0.59,-0.707 -1.433,-1.199 -2.523,-1.472" /><path
       inkscape:connector-curvature="0"
       id="path532"
       style="fill:#000000;fill-opacity:1;fill-rule:nonzero;stroke:none"
       d="m 213.793,129.197 0,-14.512 3.051,0 c 2.574,0 4.457,0.582 5.648,1.75 1.203,1.168 1.801,3.008 1.801,5.524 0,2.5 -0.598,4.332 -1.801,5.488 -1.191,1.168 -3.074,1.75 -5.648,1.75 l -3.051,0 m -2.523,2.074 5.187,0 c 3.617,0 6.27,-0.754 7.961,-2.262 1.691,-1.5 2.539,-3.847 2.539,-7.05 0,-3.215 -0.852,-5.578 -2.551,-7.086 -1.699,-1.508 -4.351,-2.262 -7.949,-2.262 l -5.187,0 0,18.66" /><path
       inkscape:connector-curvature="0"
       id="path534"
       style="fill:#000000;fill-opacity:1;fill-rule:nonzero;stroke:none"
       d="m 65.1949,94.1969 0,-2.1758 c -0.6519,0.3359 -1.3277,0.5859 -2.0269,0.75 -0.6989,0.168 -1.4258,0.25 -2.1758,0.25 -1.1402,0 -2,-0.1723 -2.5742,-0.5231 -0.566,-0.3519 -0.8481,-0.875 -0.8481,-1.5742 0,-0.5359 0.2031,-0.9539 0.6102,-1.2617 0.4097,-0.3012 1.2301,-0.5902 2.4648,-0.8633 l 0.7852,-0.1758 c 1.6359,-0.3519 2.7929,-0.848 3.4758,-1.489 0.6921,-0.632 1.039,-1.5192 1.039,-2.6602 0,-1.3 -0.5187,-2.3316 -1.55,-3.0898 -1.0277,-0.757 -2.4379,-1.136 -4.239,-1.136 -0.75,0 -1.5348,0.0739 -2.3508,0.2258 -0.809,0.141 -1.6602,0.3563 -2.5629,0.6492 l 0,2.375 c 0.8519,-0.4421 1.6879,-0.7742 2.5156,-1 0.8242,-0.2152 1.6402,-0.3242 2.4492,-0.3242 1.0821,0 1.9141,0.1832 2.5,0.55 0.5821,0.375 0.875,0.8992 0.875,1.575 0,0.625 -0.2148,1.1012 -0.6371,1.4371 -0.4179,0.3321 -1.3398,0.652 -2.7648,0.961 l -0.7973,0.1871 c -1.4258,0.3012 -2.4566,0.7582 -3.0898,1.375 -0.6328,0.625 -0.9489,1.4808 -0.9489,2.5629 0,1.316 0.4649,2.3359 1.3981,3.0511 0.934,0.7149 2.2617,1.0739 3.9769,1.0739 0.8508,0 1.6481,-0.0629 2.3981,-0.1879 0.75,-0.125 1.4418,-0.3121 2.0777,-0.5621" /><path
       inkscape:connector-curvature="0"
       id="path536"
       style="fill:#000000;fill-opacity:1;fill-rule:nonzero;stroke:none"
       d="m 75.043,92.998 c -1.234,0 -2.2071,-0.4851 -2.9258,-1.4492 -0.7152,-0.9609 -1.0742,-2.2777 -1.0742,-3.95 0,-1.675 0.355,-2.9957 1.0621,-3.9648 0.7187,-0.957 1.6961,-1.4371 2.9379,-1.4371 1.2269,0 2.1949,0.484 2.914,1.4492 0.7149,0.9687 1.0739,2.2848 1.0739,3.9527 0,1.6571 -0.359,2.9692 -1.0739,3.9383 -0.7191,0.9719 -1.6871,1.4609 -2.914,1.4609 m 0,1.9489 c 2,0 3.5699,-0.6481 4.7148,-1.9489 1.1402,-1.3011 1.7113,-3.1019 1.7113,-5.3992 0,-2.2929 -0.5711,-4.0929 -1.7113,-5.4019 -1.1449,-1.3008 -2.7148,-1.9489 -4.7148,-1.9489 -2.0078,0 -3.5821,0.6481 -4.7231,1.9489 -1.1359,1.309 -1.7027,3.109 -1.7027,5.4019 0,2.2973 0.5668,4.0981 1.7027,5.3992 1.141,1.3008 2.7153,1.9489 4.7231,1.9489" /><path
       inkscape:connector-curvature="0"
       id="path538"
       style="fill:#000000;fill-opacity:1;fill-rule:nonzero;stroke:none"
       d="m 85.0309,86.134 0,8.4769 2.3011,0 0,-8.3871 c 0,-1.3277 0.2578,-2.3238 0.7731,-2.9879 0.516,-0.6597 1.2929,-0.9879 2.325,-0.9879 1.2418,0 2.2219,0.3942 2.9371,1.1872 0.7269,0.7929 1.0898,1.8707 1.0898,3.2386 l 0,7.9371 2.3008,0 0,-14 -2.3008,0 0,2.1481 C 93.898,81.9121 93.2461,81.275 92.5078,80.8609 91.773,80.4512 90.918,80.248 89.9449,80.248 c -1.609,0 -2.832,0.5 -3.664,1.5 -0.8321,1 -1.25,2.461 -1.25,4.386" /><path
       inkscape:connector-curvature="0"
       id="path540"
       style="fill:#000000;fill-opacity:1;fill-rule:nonzero;stroke:none"
       d="m 109.633,92.459 c -0.262,0.1519 -0.543,0.2609 -0.852,0.3281 -0.301,0.0738 -0.633,0.109 -1,0.109 -1.301,0 -2.301,-0.4223 -3,-1.2731 -0.691,-0.8402 -1.039,-2.055 -1.039,-3.6371 l 0,-7.375 -2.312,0 0,14 2.312,0 0,-2.1757 c 0.485,0.8519 1.113,1.4808 1.891,1.8867 0.773,0.4179 1.715,0.625 2.824,0.625 0.156,0 0.332,-0.0117 0.523,-0.0348 0.192,-0.0199 0.407,-0.0473 0.637,-0.0902 l 0.016,-2.3629" /><path
       inkscape:connector-curvature="0"
       id="path542"
       style="fill:#000000;fill-opacity:1;fill-rule:nonzero;stroke:none"
       d="m 121.594,94.0719 0,-2.1481 c -0.649,0.359 -1.305,0.625 -1.961,0.8 -0.653,0.184 -1.309,0.2742 -1.977,0.2742 -1.492,0 -2.648,-0.4769 -3.476,-1.4261 -0.825,-0.941 -1.235,-2.266 -1.235,-3.9731 0,-1.7109 0.41,-3.0386 1.235,-3.9879 0.828,-0.941 1.984,-1.414 3.476,-1.414 0.668,0 1.324,0.0902 1.977,0.2621 0.656,0.1832 1.312,0.457 1.961,0.8121 l 0,-2.125 c -0.641,-0.2973 -1.309,-0.5231 -2,-0.6723 -0.684,-0.1519 -1.414,-0.2258 -2.188,-0.2258 -2.109,0 -3.785,0.6641 -5.023,1.9879 -1.242,1.3243 -1.863,3.1129 -1.863,5.3629 0,2.2821 0.625,4.0782 1.875,5.3871 1.257,1.309 2.976,1.961 5.16,1.961 0.711,0 1.402,-0.0739 2.078,-0.2231 0.672,-0.1437 1.328,-0.359 1.961,-0.6519" /><path
       inkscape:connector-curvature="0"
       id="path544"
       style="fill:#000000;fill-opacity:1;fill-rule:nonzero;stroke:none"
       d="m 137.594,88.1852 0,-1.125 -10.574,0 c 0.097,-1.5821 0.574,-2.793 1.425,-3.625 0.856,-0.8243 2.047,-1.2383 3.575,-1.2383 0.882,0 1.738,0.109 2.562,0.3242 0.832,0.2187 1.656,0.543 2.473,0.9769 l 0,-2.1761 c -0.825,-0.3481 -1.668,-0.6168 -2.535,-0.8008 -0.868,-0.1832 -1.747,-0.2731 -2.637,-0.2731 -2.235,0 -4.004,0.6481 -5.313,1.9489 -1.3,1.3011 -1.953,3.059 -1.953,5.2769 0,2.2891 0.617,4.1063 1.852,5.45 1.242,1.3473 2.914,2.0231 5.011,2.0231 1.883,0 3.372,-0.609 4.465,-1.8239 1.098,-1.207 1.649,-2.8558 1.649,-4.9378 m -2.301,0.6757 c -0.016,1.2582 -0.371,2.2621 -1.063,3.0121 -0.683,0.75 -1.589,1.125 -2.722,1.125 -1.285,0 -2.313,-0.364 -3.09,-1.0859 -0.766,-0.7269 -1.207,-1.7461 -1.324,-3.0633 l 8.199,0.0121" /><path
       inkscape:connector-curvature="0"
       id="path546"
       style="fill:#000000;fill-opacity:1;fill-rule:nonzero;stroke:none"
       d="m 159.594,94.0719 0,-2.1481 c -0.649,0.359 -1.305,0.625 -1.961,0.8 -0.653,0.184 -1.309,0.2742 -1.977,0.2742 -1.492,0 -2.648,-0.4769 -3.476,-1.4261 -0.825,-0.941 -1.235,-2.266 -1.235,-3.9731 0,-1.7109 0.41,-3.0386 1.235,-3.9879 0.828,-0.941 1.984,-1.414 3.476,-1.414 0.668,0 1.324,0.0902 1.977,0.2621 0.656,0.1832 1.312,0.457 1.961,0.8121 l 0,-2.125 c -0.641,-0.2973 -1.309,-0.5231 -2,-0.6723 -0.684,-0.1519 -1.414,-0.2258 -2.188,-0.2258 -2.109,0 -3.785,0.6641 -5.023,1.9879 -1.242,1.3243 -1.863,3.1129 -1.863,5.3629 0,2.2821 0.625,4.0782 1.875,5.3871 1.257,1.309 2.976,1.961 5.16,1.961 0.711,0 1.402,-0.0739 2.078,-0.2231 0.672,-0.1437 1.328,-0.359 1.961,-0.6519" /><path
       inkscape:connector-curvature="0"
       id="path548"
       style="fill:#000000;fill-opacity:1;fill-rule:nonzero;stroke:none"
       d="m 169.043,92.998 c -1.234,0 -2.207,-0.4851 -2.926,-1.4492 -0.715,-0.9609 -1.074,-2.2777 -1.074,-3.95 0,-1.675 0.355,-2.9957 1.062,-3.9648 0.719,-0.957 1.696,-1.4371 2.938,-1.4371 1.227,0 2.195,0.484 2.914,1.4492 0.715,0.9687 1.074,2.2848 1.074,3.9527 0,1.6571 -0.359,2.9692 -1.074,3.9383 -0.719,0.9719 -1.687,1.4609 -2.914,1.4609 m 0,1.9489 c 2,0 3.57,-0.6481 4.715,-1.9489 1.14,-1.3011 1.711,-3.1019 1.711,-5.3992 0,-2.2929 -0.571,-4.0929 -1.711,-5.4019 -1.145,-1.3008 -2.715,-1.9489 -4.715,-1.9489 -2.008,0 -3.582,0.6481 -4.723,1.9489 -1.136,1.309 -1.703,3.109 -1.703,5.4019 0,2.2973 0.567,4.0981 1.703,5.3992 1.141,1.3008 2.715,1.9489 4.723,1.9489" /><path
       inkscape:connector-curvature="0"
       id="path550"
       style="fill:#000000;fill-opacity:1;fill-rule:nonzero;stroke:none"
       d="m 188.48,92.4859 0,7.5741 2.301,0 0,-19.4491 -2.301,0 0,2.0981 c -0.484,-0.832 -1.093,-1.4531 -1.835,-1.8602 -0.735,-0.4019 -1.618,-0.6008 -2.653,-0.6008 -1.691,0 -3.07,0.6758 -4.137,2.0231 -1.058,1.3519 -1.585,3.125 -1.585,5.3277 0,2.2 0.527,3.9731 1.585,5.325 1.067,1.3473 2.446,2.0231 4.137,2.0231 1.035,0 1.918,-0.2028 2.653,-0.6129 0.742,-0.3988 1.351,-1.016 1.835,-1.8481 m -7.835,-4.8871 c 0,-1.691 0.343,-3.0226 1.035,-3.9879 0.703,-0.9609 1.66,-1.4371 2.875,-1.4371 1.218,0 2.175,0.4762 2.875,1.4371 0.703,0.9653 1.05,2.2969 1.05,3.9879 0,1.6922 -0.347,3.016 -1.05,3.9731 -0.7,0.9691 -1.657,1.4492 -2.875,1.4492 -1.215,0 -2.172,-0.4801 -2.875,-1.4492 -0.692,-0.9571 -1.035,-2.2809 -1.035,-3.9731" /><path
       inkscape:connector-curvature="0"
       id="path552"
       style="fill:#000000;fill-opacity:1;fill-rule:nonzero;stroke:none"
       d="m 207.492,88.1852 0,-1.125 -10.574,0 c 0.102,-1.5821 0.574,-2.793 1.426,-3.625 0.859,-0.8243 2.051,-1.2383 3.574,-1.2383 0.883,0 1.738,0.109 2.562,0.3242 0.836,0.2187 1.661,0.543 2.477,0.9769 l 0,-2.1761 c -0.824,-0.3481 -1.672,-0.6168 -2.539,-0.8008 -0.867,-0.1832 -1.746,-0.2731 -2.637,-0.2731 -2.234,0 -4.004,0.6481 -5.312,1.9489 -1.301,1.3011 -1.949,3.059 -1.949,5.2769 0,2.2891 0.617,4.1063 1.847,5.45 1.242,1.3473 2.914,2.0231 5.016,2.0231 1.883,0 3.371,-0.609 4.461,-1.8239 1.101,-1.207 1.648,-2.8558 1.648,-4.9378 m -2.297,0.6757 c -0.019,1.2582 -0.371,2.2621 -1.062,3.0121 -0.684,0.75 -1.594,1.125 -2.727,1.125 -1.285,0 -2.312,-0.364 -3.086,-1.0859 -0.769,-0.7269 -1.211,-1.7461 -1.328,-3.0633 l 8.203,0.0121" /><path
       d="m 479.07158,141.27162 372.2837,0 c 7.98425,0 14.41431,-5.85515 14.41431,-13.12935 l 0,-80.663405 c 0,-7.273765 -6.43006,-13.128911 -14.41431,-13.128911 l -372.2837,0 c -7.98425,0 -14.40982,5.855146 -14.40982,13.128911 l 0,80.663405 c 0,7.2742 6.42557,13.12935 14.40982,13.12935 z"
       style="fill:none;stroke:#000000;stroke-width:2.12261438;stroke-linecap:butt;stroke-linejoin:round;stroke-miterlimit:4;stroke-dasharray:none;stroke-opacity:1"
       id="path556"
       inkscape:connector-curvature="0" /><path
       inkscape:connector-curvature="0"
       id="path558"
       style="fill:#000000;fill-opacity:1;fill-rule:nonzero;stroke:none"
       d="m 543.926,105.404 3.824,0 5.887,-23.6642 5.871,23.6642 4.254,0 5.886,-23.6642 5.872,23.6642 3.843,0 -7.031,-27.9919 -4.762,0 -5.906,24.2969 -5.965,-24.2969 -4.761,0 -7.012,27.9919" /><path
       inkscape:connector-curvature="0"
       id="path560"
       style="fill:#000000;fill-opacity:1;fill-rule:nonzero;stroke:none"
       d="m 595.73,102.834 c -2.75,0 -4.937,-1.024 -6.562,-3.075 -1.613,-2.05 -2.418,-4.843 -2.418,-8.3781 0,-3.5278 0.805,-6.3129 2.418,-8.3637 1.625,-2.0512 3.812,-3.0742 6.562,-3.0742 2.75,0 4.926,1.023 6.528,3.0742 1.609,2.0508 2.418,4.8359 2.418,8.3637 0,3.5351 -0.809,6.3281 -2.418,8.3781 -1.602,2.051 -3.778,3.075 -6.528,3.075 m 0,3.078 c 3.926,0 7.063,-1.321 9.415,-3.957 2.347,-2.6249 3.523,-6.153 3.523,-10.5741 0,-4.4149 -1.176,-7.9379 -3.523,-10.5789 -2.352,-2.625 -5.489,-3.9372 -9.415,-3.9372 -3.937,0 -7.085,1.3122 -9.449,3.9372 -2.351,2.625 -3.523,6.1531 -3.523,10.5789 0,4.4211 1.172,7.9492 3.523,10.5741 2.364,2.636 5.512,3.957 9.449,3.957" /><path
       inkscape:connector-curvature="0"
       id="path562"
       style="fill:#000000;fill-opacity:1;fill-rule:nonzero;stroke:none"
       d="m 614.594,105.404 3.789,0 0,-24.8052 13.629,0 0,-3.1867 -17.418,0 0,27.9919" /><path
       inkscape:connector-curvature="0"
       id="path564"
       style="fill:#000000;fill-opacity:1;fill-rule:nonzero;stroke:none"
       d="m 635.969,105.404 16.086,0 0,-3.188 -12.297,0 0,-8.25 11.097,0 0,-3.1871 -11.097,0 0,-13.3668 -3.789,0 0,27.9919" /><path
       inkscape:connector-curvature="0"
       id="path566"
       style="fill:#000000;fill-opacity:1;fill-rule:nonzero;stroke:none"
       d="m 669.906,92.5059 c 1.813,-0.3911 3.227,-1.1957 4.239,-2.4219 1.023,-1.2231 1.535,-2.7352 1.535,-4.5352 0,-2.7617 -0.95,-4.9027 -2.848,-6.4148 -1.902,-1.511 -4.602,-2.2692 -8.102,-2.2692 -1.175,0 -2.386,0.1211 -3.636,0.359 -1.239,0.2231 -2.52,0.5672 -3.844,1.0321 l 0,3.6562 c 1.051,-0.6133 2.199,-1.0781 3.449,-1.391 1.25,-0.3121 2.559,-0.4691 3.918,-0.4691 2.375,0 4.184,0.4691 5.422,1.407 1.25,0.9371 1.875,2.3 1.875,4.0898 0,1.6481 -0.582,2.9371 -1.746,3.8633 -1.148,0.9367 -2.754,1.4059 -4.816,1.4059 l -3.266,0 0,3.109 3.414,0 c 1.863,0 3.289,0.3718 4.273,1.1101 0.989,0.75 1.485,1.8238 1.485,3.2219 0,1.4379 -0.516,2.54 -1.539,3.301 -1.012,0.774 -2.469,1.164 -4.367,1.164 -1.04,0 -2.153,-0.113 -3.34,-0.34 -1.188,-0.222 -2.492,-0.574 -3.918,-1.05 l 0,3.375 c 1.437,0.402 2.781,0.703 4.031,0.902 1.262,0.199 2.449,0.301 3.563,0.301 2.874,0 5.148,-0.656 6.824,-1.969 1.676,-1.301 2.511,-3.062 2.511,-5.2891 0,-1.5508 -0.441,-2.8629 -1.328,-3.9379 -0.89,-1.0621 -2.152,-1.8 -3.789,-2.2101" /><path
       inkscape:connector-curvature="0"
       id="path568"
       style="fill:#000000;fill-opacity:1;fill-rule:nonzero;stroke:none"
       d="m 686.332,102.291 0,-21.7699 4.574,0 c 3.864,0 6.688,0.875 8.477,2.625 1.797,1.75 2.699,4.516 2.699,8.2891 0,3.75 -0.902,6.4918 -2.699,8.2308 -1.789,1.75 -4.613,2.625 -8.477,2.625 l -4.574,0 m -3.789,3.113 7.781,0 c 5.426,0 9.406,-1.133 11.946,-3.395 2.535,-2.25 3.804,-5.7731 3.804,-10.5738 0,-4.8243 -1.273,-8.3672 -3.824,-10.6332 -2.551,-2.261 -6.523,-3.3899 -11.926,-3.3899 l -7.781,0 0,27.9919" /><path
       inkscape:connector-curvature="0"
       id="path570"
       style="fill:#000000;fill-opacity:1;fill-rule:nonzero;stroke:none"
       d="m 712.43,77.4121 3.95703,0 0,4.76172 -3.95703,0 0,-4.76172 z" /><path
       inkscape:connector-curvature="0"
       id="path572"
       style="fill:#000000;fill-opacity:1;fill-rule:nonzero;stroke:none"
       d="m 724.32,105.404 17.7,0 0,-3.188 -13.915,0 0,-8.289 13.333,0 0,-3.1872 -13.333,0 0,-10.141 14.25,0 0,-3.1867 -18.035,0 0,27.9919" /><path
       inkscape:connector-curvature="0"
       id="path574"
       style="fill:#000000;fill-opacity:1;fill-rule:nonzero;stroke:none"
       d="m 747.27,105.404 4.066,0 6.957,-10.406 6.996,10.406 4.066,0 -9,-13.445 9.602,-14.5469 -4.07,0 -7.875,11.9059 -7.93,-11.9059 -4.09,0 9.996,14.941 -8.718,13.0509" /><path
       inkscape:connector-curvature="0"
       id="path576"
       style="fill:#000000;fill-opacity:1;fill-rule:nonzero;stroke:none"
       d="m 774.945,105.404 17.7,0 0,-3.188 -13.915,0 0,-8.289 13.332,0 0,-3.1872 -13.332,0 0,-10.141 14.25,0 0,-3.1867 -18.035,0 0,27.9919" /><path
       inkscape:connector-curvature="0"
       id="path578"
       style="fill:none;stroke:#000000;stroke-width:2.4;stroke-linecap:butt;stroke-linejoin:miter;stroke-miterlimit:4;stroke-dasharray:none;stroke-opacity:1"
       d="M 251.82373,88.681566 452.8602,88.611334" /><path
       inkscape:connector-curvature="0"
       id="path580"
       style="fill:#000000;fill-opacity:1;fill-rule:evenodd;stroke:none"
       d="m 463.801,88.607 -16.406,-9.473 0.007,18.957 16.399,-9.484 z" /><path
       inkscape:connector-curvature="0"
       id="path582"
       style="fill:none;stroke:#000000;stroke-width:2.36986995;stroke-linecap:butt;stroke-linejoin:miter;stroke-miterlimit:4;stroke-dasharray:none;stroke-opacity:1"
       d="m 463.801,88.6074 -16.407,-9.4726 0.008,18.957 16.399,-9.4844 z" /><path
       inkscape:connector-curvature="0"
       id="path584"
       style="fill:#000000;fill-opacity:1;fill-rule:nonzero;stroke:none"
       d="m 665.789,595.81 3.15586,0 0,23.3277 -3.15586,0 0,-23.3277 z" /><path
       inkscape:connector-curvature="0"
       id="path586"
       style="fill:#000000;fill-opacity:1;fill-rule:nonzero;stroke:none"
       d="m 691.133,599.138 0,6.266 -5.156,0 0,2.594 8.281,0 0,-10.016 c -1.219,-0.863 -2.563,-1.519 -4.031,-1.969 -1.469,-0.437 -3.036,-0.656 -4.704,-0.656 -3.644,0 -6.5,1.063 -8.562,3.188 -2.051,2.136 -3.078,5.105 -3.078,8.906 0,3.812 1.027,6.781 3.078,8.906 2.062,2.137 4.918,3.203 8.562,3.203 1.524,0 2.965,-0.187 4.329,-0.562 1.375,-0.375 2.64,-0.926 3.796,-1.657 l 0,-3.359 c -1.164,0.988 -2.406,1.734 -3.718,2.234 -1.313,0.5 -2.692,0.75 -4.141,0.75 -2.851,0 -5,-0.796 -6.437,-2.39 -1.426,-1.594 -2.141,-3.969 -2.141,-7.125 0,-3.145 0.715,-5.516 2.141,-7.11 1.437,-1.593 3.586,-2.39 6.437,-2.39 1.117,0 2.109,0.094 2.984,0.281 0.875,0.199 1.665,0.5 2.36,0.906" /><path
       inkscape:connector-curvature="0"
       id="path588"
       style="fill:#000000;fill-opacity:1;fill-rule:nonzero;stroke:none"
       d="m 711.102,606.748 c 0.679,-0.231 1.336,-0.719 1.968,-1.469 0.649,-0.75 1.293,-1.781 1.938,-3.094 l 3.203,-6.375 -3.391,0 -2.984,5.985 c -0.77,1.562 -1.52,2.597 -2.25,3.109 -0.719,0.512 -1.703,0.766 -2.953,0.766 l -3.438,0 0,-9.86 -3.156,0 0,23.328 7.125,0 c 2.668,0 4.656,-0.558 5.969,-1.672 1.312,-1.113 1.969,-2.796 1.969,-5.046 0,-1.469 -0.344,-2.688 -1.032,-3.657 -0.675,-0.968 -1.664,-1.64 -2.968,-2.015 m -7.907,9.797 0,-8.282 3.969,0 c 1.524,0 2.668,0.348 3.438,1.047 0.781,0.707 1.171,1.746 1.171,3.11 0,1.363 -0.39,2.39 -1.171,3.078 -0.77,0.699 -1.914,1.047 -3.438,1.047 l -3.969,0" /><path
       inkscape:connector-curvature="0"
       id="path590"
       style="fill:#000000;fill-opacity:1;fill-rule:nonzero;stroke:none"
       d="m 728.773,616.029 -4.281,-11.609 8.578,0 -4.297,11.609 m -1.781,3.109 3.578,0 8.891,-23.328 -3.281,0 -2.125,5.985 -10.516,0 -2.125,-5.985 -3.328,0 8.906,23.328" /><path
       inkscape:connector-curvature="0"
       id="path592"
       style="fill:#000000;fill-opacity:1;fill-rule:nonzero;stroke:none"
       d="m 746.008,606.951 0,-8.547 5.062,0 c 1.7,0 2.953,0.348 3.766,1.047 0.824,0.707 1.234,1.785 1.234,3.234 0,1.457 -0.41,2.531 -1.234,3.219 -0.813,0.699 -2.066,1.047 -3.766,1.047 l -5.062,0 m 0,9.594 0,-7.032 4.672,0 c 1.543,0 2.687,0.286 3.437,0.86 0.762,0.582 1.141,1.468 1.141,2.656 0,1.176 -0.379,2.059 -1.141,2.641 -0.75,0.582 -1.894,0.875 -3.437,0.875 l -4.672,0 m -3.156,2.593 8.062,0 c 2.406,0 4.262,-0.5 5.563,-1.5 1.304,-1 1.953,-2.422 1.953,-4.265 0,-1.426 -0.332,-2.563 -1,-3.407 -0.664,-0.843 -1.645,-1.371 -2.938,-1.578 1.555,-0.332 2.758,-1.031 3.61,-2.093 0.867,-1.051 1.296,-2.371 1.296,-3.954 0,-2.082 -0.707,-3.691 -2.125,-4.828 -1.414,-1.136 -3.429,-1.703 -6.046,-1.703 l -8.375,0 0,23.328" /><path
       inkscape:connector-curvature="0"
       id="path594"
       style="fill:#000000;fill-opacity:1;fill-rule:nonzero;stroke:none"
       d="m 763.211,603.295 8.42188,0 0,2.56211 -8.42188,0 0,-2.56211 z" /><path
       inkscape:connector-curvature="0"
       id="path596"
       style="fill:#000000;fill-opacity:1;fill-rule:nonzero;stroke:none"
       d="m 791.195,605.279 0,-1.406 -13.218,0 c 0.125,-1.981 0.718,-3.489 1.781,-4.532 1.074,-1.031 2.562,-1.546 4.469,-1.546 1.105,0 2.171,0.136 3.203,0.406 1.043,0.269 2.074,0.676 3.093,1.219 l 0,-2.719 c -1.031,-0.438 -2.085,-0.77 -3.171,-1 -1.082,-0.231 -2.18,-0.344 -3.297,-0.344 -2.789,0 -5.004,0.813 -6.641,2.438 -1.625,1.625 -2.437,3.824 -2.437,6.593 0,2.864 0.773,5.137 2.312,6.813 1.555,1.687 3.641,2.531 6.266,2.531 2.355,0 4.215,-0.762 5.578,-2.281 1.375,-1.512 2.062,-3.567 2.062,-6.172 m -2.875,0.844 c -0.019,1.574 -0.461,2.828 -1.328,3.765 -0.851,0.938 -1.988,1.407 -3.406,1.407 -1.602,0 -2.891,-0.454 -3.859,-1.36 -0.957,-0.906 -1.508,-2.183 -1.657,-3.828 l 10.25,0.016" /><path
       inkscape:connector-curvature="0"
       id="path598"
       style="fill:#000000;fill-opacity:1;fill-rule:nonzero;stroke:none"
       d="m 807.43,610.654 0,9.469 2.875,0 0,-24.313 -2.875,0 0,2.625 c -0.602,-1.043 -1.368,-1.816 -2.297,-2.328 -0.914,-0.5 -2.02,-0.75 -3.313,-0.75 -2.113,0 -3.836,0.844 -5.172,2.531 -1.32,1.688 -1.984,3.907 -1.984,6.657 0,2.75 0.664,4.968 1.984,6.656 1.336,1.687 3.059,2.531 5.172,2.531 1.293,0 2.399,-0.254 3.313,-0.766 0.929,-0.5 1.695,-1.269 2.297,-2.312 m -9.797,-6.109 c 0,-2.114 0.433,-3.778 1.297,-4.985 0.875,-1.199 2.074,-1.797 3.593,-1.797 1.524,0 2.719,0.598 3.594,1.797 0.875,1.207 1.313,2.871 1.313,4.985 0,2.113 -0.438,3.769 -1.313,4.968 -0.875,1.207 -2.07,1.813 -3.594,1.813 -1.519,0 -2.718,-0.606 -3.593,-1.813 -0.864,-1.199 -1.297,-2.855 -1.297,-4.968" /><path
       inkscape:connector-curvature="0"
       id="path600"
       style="fill:none;stroke:#000000;stroke-width:2.4000001;stroke-linecap:butt;stroke-linejoin:miter;stroke-miterlimit:4;stroke-dasharray:none;stroke-opacity:1"
       d="m 246.648,607.009 310.403,0" /><path
       inkscape:connector-curvature="0"
       id="path602"
       style="fill:#000000;fill-opacity:1;fill-rule:evenodd;stroke:none"
       d="m 568.129,607.009 -16.609,-9.597 0,19.199 16.609,-9.602 z" /><path
       inkscape:connector-curvature="0"
       id="path604"
       style="fill:none;stroke:#000000;stroke-width:2.4000001;stroke-linecap:butt;stroke-linejoin:miter;stroke-miterlimit:4;stroke-dasharray:none;stroke-opacity:1"
       d="m 568.129,607.009 -16.609,-9.598 0,19.2 16.609,-9.602 z" /><path
       inkscape:connector-curvature="0"
       id="path606"
       style="fill:#000000;fill-opacity:1;fill-rule:nonzero;stroke:none"
       d="m 39.4879,500.873 0,5.011 -4.125,0 0,2.075 6.625,0 0,-8.012 c -0.9758,-0.691 -2.05,-1.215 -3.2258,-1.574 -1.1762,-0.352 -2.4301,-0.524 -3.7621,-0.524 -2.918,0 -5.1988,0.848 -6.852,2.547 -1.6402,1.711 -2.4601,4.086 -2.4601,7.125 0,3.051 0.8199,5.426 2.4601,7.125 1.6532,1.711 3.934,2.563 6.852,2.563 1.2148,0 2.3711,-0.149 3.4609,-0.45 1.1012,-0.3 2.1129,-0.742 3.0391,-1.324 l 0,-2.687 c -0.934,0.793 -1.9262,1.386 -2.977,1.789 -1.046,0.398 -2.1519,0.597 -3.3121,0.597 -2.2808,0 -4,-0.636 -5.1488,-1.91 -1.1402,-1.277 -1.7101,-3.175 -1.7101,-5.703 0,-2.515 0.5699,-4.41 1.7101,-5.687 1.1488,-1.274 2.868,-1.91 5.1488,-1.91 0.8942,0 1.6871,0.074 2.3911,0.222 0.6992,0.16 1.3281,0.403 1.8859,0.727" /><path
       inkscape:connector-curvature="0"
       id="path608"
       style="fill:#000000;fill-opacity:1;fill-rule:nonzero;stroke:none"
       d="m 54.625,510.06 c -0.2578,0.149 -0.543,0.258 -0.852,0.324 -0.296,0.075 -0.632,0.114 -1,0.114 -1.296,0 -2.296,-0.426 -3,-1.274 -0.691,-0.843 -1.0351,-2.054 -1.0351,-3.64 l 0,-7.375 -2.3117,0 0,14 2.3117,0 0,-2.172 c 0.4851,0.847 1.1141,1.476 1.8871,1.887 0.773,0.414 1.7148,0.625 2.8238,0.625 0.1602,0 0.3364,-0.012 0.5282,-0.04 0.191,-0.015 0.4019,-0.046 0.6359,-0.085 l 0.0121,-2.364" /><path
       inkscape:connector-curvature="0"
       id="path610"
       style="fill:#000000;fill-opacity:1;fill-rule:nonzero;stroke:none"
       d="m 63.4262,505.248 c -1.8602,0 -3.1492,-0.211 -3.8641,-0.637 -0.7141,-0.426 -1.0742,-1.152 -1.0742,-2.176 0,-0.816 0.266,-1.465 0.8012,-1.949 0.539,-0.477 1.273,-0.715 2.1988,-0.715 1.2742,0 2.2973,0.453 3.0633,1.352 0.7726,0.91 1.1597,2.113 1.1597,3.613 l 0,0.512 -2.2847,0 m 4.5859,0.949 0,-7.988 -2.3012,0 0,2.125 c -0.523,-0.848 -1.1757,-1.477 -1.9609,-1.887 -0.7852,-0.398 -1.7422,-0.598 -2.875,-0.598 -1.434,0 -2.5738,0.399 -3.4262,1.2 -0.8398,0.808 -1.2609,1.886 -1.2609,3.238 0,1.574 0.523,2.762 1.5742,3.562 1.0578,0.797 2.6328,1.2 4.7258,1.2 l 3.223,0 0,0.222 c 0,1.059 -0.348,1.875 -1.0468,2.453 -0.6911,0.582 -1.668,0.875 -2.9262,0.875 -0.8,0 -1.5777,-0.097 -2.3399,-0.289 -0.757,-0.191 -1.4839,-0.48 -2.1871,-0.863 l 0,2.125 c 0.8442,0.324 1.6602,0.566 2.4532,0.727 0.789,0.164 1.5629,0.25 2.3129,0.25 2.023,0 3.5351,-0.528 4.5351,-1.575 1,-1.05 1.5,-2.644 1.5,-4.777" /><path
       inkscape:connector-curvature="0"
       id="path612"
       style="fill:#000000;fill-opacity:1;fill-rule:nonzero;stroke:none"
       d="m 74.9879,500.31 0,-7.426 -2.3117,0 0,19.325 2.3117,0 0,-2.125 c 0.4851,0.836 1.0902,1.453 1.8242,1.851 0.743,0.41 1.6258,0.614 2.6488,0.614 1.7032,0 3.0821,-0.676 4.1411,-2.028 1.066,-1.347 1.5968,-3.125 1.5968,-5.324 0,-2.199 -0.5308,-3.973 -1.5968,-5.324 -1.059,-1.352 -2.4379,-2.024 -4.1411,-2.024 -1.023,0 -1.9058,0.2 -2.6488,0.598 -0.734,0.41 -1.3391,1.031 -1.8242,1.863 m 7.8242,4.887 c 0,1.691 -0.3512,3.016 -1.05,3.977 -0.6922,0.964 -1.6449,1.449 -2.8641,1.449 -1.214,0 -2.171,-0.485 -2.875,-1.449 -0.691,-0.961 -1.0351,-2.286 -1.0351,-3.977 0,-1.691 0.3441,-3.02 1.0351,-3.988 0.704,-0.957 1.661,-1.438 2.875,-1.438 1.2192,0 2.1719,0.481 2.8641,1.438 0.6988,0.968 1.05,2.297 1.05,3.988" /><path
       inkscape:connector-curvature="0"
       id="path614"
       style="fill:#000000;fill-opacity:1;fill-rule:nonzero;stroke:none"
       d="m 100.648,506.662 0,-8.453 -2.296,0 0,8.375 c 0,1.328 -0.2622,2.316 -0.7782,2.976 -0.5148,0.66 -1.2886,0.989 -2.3238,0.989 -1.2422,0 -2.223,-0.399 -2.9379,-1.188 -0.7141,-0.793 -1.0742,-1.871 -1.0742,-3.238 l 0,-7.914 -2.3117,0 0,19.453 2.3117,0 0,-7.625 c 0.5512,0.84 1.1961,1.469 1.9383,1.887 0.75,0.414 1.6129,0.625 2.5859,0.625 1.609,0 2.8238,-0.5 3.652,-1.5 0.8239,-0.993 1.2339,-2.454 1.2339,-4.387" /><path
       inkscape:connector-curvature="0"
       id="path616"
       style="fill:#000000;fill-opacity:1;fill-rule:nonzero;stroke:none"
       d="m 105.262,512.209 2.3,0 0,-14 -2.3,0 0,14 m 0,5.453 2.3,0 0,-2.914 -2.3,0 0,2.914" /><path
       inkscape:connector-curvature="0"
       id="path618"
       style="fill:#000000;fill-opacity:1;fill-rule:nonzero;stroke:none"
       d="m 122.438,511.674 0,-2.153 c -0.649,0.36 -1.305,0.625 -1.961,0.801 -0.653,0.184 -1.309,0.277 -1.977,0.277 -1.492,0 -2.648,-0.476 -3.477,-1.425 -0.824,-0.942 -1.234,-2.266 -1.234,-3.977 0,-1.707 0.41,-3.035 1.234,-3.988 0.829,-0.942 1.985,-1.41 3.477,-1.41 0.668,0 1.324,0.085 1.977,0.261 0.656,0.184 1.312,0.453 1.961,0.813 l 0,-2.125 c -0.641,-0.301 -1.309,-0.524 -2,-0.676 -0.684,-0.148 -1.415,-0.223 -2.188,-0.223 -2.109,0 -3.785,0.66 -5.023,1.985 -1.243,1.328 -1.864,3.113 -1.864,5.363 0,2.285 0.625,4.078 1.875,5.387 1.258,1.308 2.977,1.965 5.16,1.965 0.711,0 1.403,-0.075 2.079,-0.227 0.671,-0.141 1.328,-0.359 1.961,-0.648" /><path
       inkscape:connector-curvature="0"
       id="path620"
       style="fill:#000000;fill-opacity:1;fill-rule:nonzero;stroke:none"
       d="m 140.977,505.248 c -1.86,0 -3.149,-0.211 -3.864,-0.637 -0.718,-0.426 -1.074,-1.152 -1.074,-2.176 0,-0.816 0.266,-1.465 0.797,-1.949 0.543,-0.477 1.277,-0.715 2.203,-0.715 1.273,0 2.293,0.453 3.063,1.352 0.773,0.91 1.16,2.113 1.16,3.613 l 0,0.512 -2.285,0 m 4.585,0.949 0,-7.988 -2.3,0 0,2.125 c -0.524,-0.848 -1.18,-1.477 -1.961,-1.887 -0.785,-0.398 -1.742,-0.598 -2.875,-0.598 -1.434,0 -2.574,0.399 -3.426,1.2 -0.84,0.808 -1.262,1.886 -1.262,3.238 0,1.574 0.524,2.762 1.574,3.562 1.059,0.797 2.633,1.2 4.727,1.2 l 3.223,0 0,0.222 c 0,1.059 -0.348,1.875 -1.051,2.453 -0.691,0.582 -1.664,0.875 -2.922,0.875 -0.801,0 -1.582,-0.097 -2.34,-0.289 -0.758,-0.191 -1.488,-0.48 -2.187,-0.863 l 0,2.125 c 0.843,0.324 1.66,0.566 2.449,0.727 0.793,0.164 1.562,0.25 2.312,0.25 2.028,0 3.539,-0.528 4.539,-1.575 1,-1.05 1.5,-2.644 1.5,-4.777" /><path
       inkscape:connector-curvature="0"
       id="path622"
       style="fill:#000000;fill-opacity:1;fill-rule:nonzero;stroke:none"
       d="m 159.238,511.799 0,-2.176 c -0.652,0.332 -1.324,0.582 -2.027,0.75 -0.699,0.168 -1.422,0.25 -2.172,0.25 -1.144,0 -2,-0.176 -2.578,-0.524 -0.566,-0.351 -0.848,-0.875 -0.848,-1.578 0,-0.531 0.203,-0.953 0.614,-1.262 0.406,-0.3 1.226,-0.585 2.461,-0.863 l 0.789,-0.172 c 1.632,-0.351 2.789,-0.847 3.472,-1.488 0.692,-0.633 1.039,-1.523 1.039,-2.664 0,-1.301 -0.515,-2.328 -1.55,-3.086 -1.024,-0.758 -2.438,-1.137 -4.239,-1.137 -0.75,0 -1.531,0.075 -2.347,0.223 -0.809,0.141 -1.664,0.359 -2.563,0.652 l 0,2.375 c 0.848,-0.441 1.688,-0.777 2.512,-1 0.824,-0.218 1.64,-0.328 2.449,-0.328 1.082,0 1.918,0.184 2.5,0.551 0.582,0.375 0.875,0.902 0.875,1.574 0,0.625 -0.211,1.106 -0.637,1.438 -0.418,0.336 -1.34,0.656 -2.761,0.965 l -0.801,0.187 c -1.426,0.301 -2.453,0.758 -3.09,1.375 -0.633,0.625 -0.949,1.477 -0.949,2.563 0,1.316 0.468,2.332 1.402,3.05 0.934,0.715 2.258,1.075 3.973,1.075 0.851,0 1.652,-0.063 2.402,-0.188 0.75,-0.125 1.441,-0.312 2.074,-0.562" /><path
       inkscape:connector-curvature="0"
       id="path624"
       style="fill:#000000;fill-opacity:1;fill-rule:nonzero;stroke:none"
       d="m 172.586,511.799 0,-2.176 c -0.648,0.332 -1.324,0.582 -2.024,0.75 -0.699,0.168 -1.425,0.25 -2.175,0.25 -1.141,0 -2,-0.176 -2.575,-0.524 -0.566,-0.351 -0.851,-0.875 -0.851,-1.578 0,-0.531 0.207,-0.953 0.613,-1.262 0.41,-0.3 1.231,-0.585 2.465,-0.863 l 0.785,-0.172 c 1.633,-0.351 2.793,-0.847 3.477,-1.488 0.691,-0.633 1.035,-1.523 1.035,-2.664 0,-1.301 -0.516,-2.328 -1.547,-3.086 -1.027,-0.758 -2.437,-1.137 -4.238,-1.137 -0.75,0 -1.535,0.075 -2.352,0.223 -0.808,0.141 -1.66,0.359 -2.562,0.652 l 0,2.375 c 0.851,-0.441 1.687,-0.777 2.511,-1 0.829,-0.218 1.645,-0.328 2.454,-0.328 1.082,0 1.914,0.184 2.5,0.551 0.582,0.375 0.875,0.902 0.875,1.574 0,0.625 -0.215,1.106 -0.641,1.438 -0.414,0.336 -1.336,0.656 -2.762,0.965 l -0.801,0.187 c -1.421,0.301 -2.453,0.758 -3.085,1.375 -0.633,0.625 -0.95,1.477 -0.95,2.563 0,1.316 0.465,2.332 1.399,3.05 0.933,0.715 2.258,1.075 3.976,1.075 0.848,0 1.649,-0.063 2.399,-0.188 0.75,-0.125 1.441,-0.312 2.074,-0.562" /><path
       inkscape:connector-curvature="0"
       id="path626"
       style="fill:#000000;fill-opacity:1;fill-rule:nonzero;stroke:none"
       d="m 188.988,505.787 0,-1.125 -10.574,0 c 0.098,-1.586 0.574,-2.793 1.422,-3.625 0.859,-0.828 2.051,-1.238 3.578,-1.238 0.883,0 1.734,0.109 2.563,0.324 0.832,0.215 1.656,0.543 2.472,0.976 l 0,-2.175 c -0.824,-0.352 -1.672,-0.618 -2.535,-0.801 -0.867,-0.184 -1.746,-0.274 -2.641,-0.274 -2.23,0 -4.003,0.649 -5.312,1.95 -1.297,1.3 -1.949,3.058 -1.949,5.273 0,2.293 0.617,4.109 1.851,5.449 1.242,1.352 2.91,2.028 5.012,2.028 1.883,0 3.371,-0.61 4.461,-1.825 1.102,-1.211 1.652,-2.855 1.652,-4.937 m -2.3,0.672 c -0.016,1.261 -0.372,2.265 -1.063,3.015 -0.684,0.75 -1.59,1.125 -2.727,1.125 -1.281,0 -2.312,-0.363 -3.086,-1.09 -0.765,-0.722 -1.207,-1.746 -1.324,-3.062 l 8.2,0.012" /><path
       inkscape:connector-curvature="0"
       id="path628"
       style="fill:#000000;fill-opacity:1;fill-rule:nonzero;stroke:none"
       d="m 195.039,516.185 0,-3.976 4.734,0 0,-1.785 -4.734,0 0,-7.602 c 0,-1.141 0.152,-1.875 0.461,-2.199 0.316,-0.324 0.953,-0.489 1.914,-0.489 l 2.359,0 0,-1.925 -2.359,0 c -1.777,0 -3,0.332 -3.676,0.988 -0.676,0.668 -1.011,1.875 -1.011,3.625 l 0,7.602 -1.688,0 0,1.785 1.688,0 0,3.976 2.312,0" /><path
       inkscape:connector-curvature="0"
       id="path630"
       style="fill:#000000;fill-opacity:1;fill-rule:nonzero;stroke:none"
       d="m 211.738,511.799 0,-2.176 c -0.652,0.332 -1.324,0.582 -2.027,0.75 -0.699,0.168 -1.422,0.25 -2.172,0.25 -1.144,0 -2,-0.176 -2.578,-0.524 -0.566,-0.351 -0.848,-0.875 -0.848,-1.578 0,-0.531 0.203,-0.953 0.614,-1.262 0.406,-0.3 1.226,-0.585 2.461,-0.863 l 0.789,-0.172 c 1.632,-0.351 2.789,-0.847 3.472,-1.488 0.692,-0.633 1.039,-1.523 1.039,-2.664 0,-1.301 -0.515,-2.328 -1.55,-3.086 -1.024,-0.758 -2.438,-1.137 -4.239,-1.137 -0.75,0 -1.531,0.075 -2.347,0.223 -0.809,0.141 -1.664,0.359 -2.563,0.652 l 0,2.375 c 0.848,-0.441 1.688,-0.777 2.512,-1 0.824,-0.218 1.64,-0.328 2.449,-0.328 1.082,0 1.918,0.184 2.5,0.551 0.582,0.375 0.875,0.902 0.875,1.574 0,0.625 -0.211,1.106 -0.637,1.438 -0.418,0.336 -1.34,0.656 -2.761,0.965 l -0.801,0.187 c -1.426,0.301 -2.453,0.758 -3.09,1.375 -0.633,0.625 -0.949,1.477 -0.949,2.563 0,1.316 0.468,2.332 1.402,3.05 0.934,0.715 2.258,1.075 3.973,1.075 0.851,0 1.652,-0.063 2.402,-0.188 0.75,-0.125 1.441,-0.312 2.074,-0.562" /><path
       inkscape:connector-curvature="0"
       id="path632"
       style="fill:#000000;fill-opacity:1;fill-rule:nonzero;stroke:none"
       d="m 229.836,517.634 c -1.113,-1.914 -1.945,-3.812 -2.484,-5.687 -0.543,-1.875 -0.813,-3.773 -0.813,-5.699 0,-1.926 0.27,-3.832 0.813,-5.727 0.546,-1.883 1.378,-3.777 2.484,-5.687 l -2,0 c -1.25,1.961 -2.188,3.886 -2.813,5.777 -0.613,1.891 -0.921,3.77 -0.921,5.637 0,1.859 0.308,3.73 0.921,5.613 0.618,1.883 1.555,3.809 2.813,5.773 l 2,0" /><path
       inkscape:connector-curvature="0"
       id="path634"
       style="fill:#000000;fill-opacity:1;fill-rule:nonzero;stroke:none"
       d="m 234.414,498.209 2.52305,0 0,18.6641 -2.52305,0 0,-18.6641 z" /><path
       inkscape:connector-curvature="0"
       id="path636"
       style="fill:#000000;fill-opacity:1;fill-rule:nonzero;stroke:none"
       d="m 241.961,516.873 2.527,0 0,-16.539 9.086,0 0,-2.125 -11.613,0 0,18.664" /><path
       inkscape:connector-curvature="0"
       id="path638"
       style="fill:#000000;fill-opacity:1;fill-rule:nonzero;stroke:none"
       d="m 258.738,507.123 0,-6.836 4.051,0 c 1.356,0 2.359,0.277 3.012,0.836 0.656,0.566 0.988,1.429 0.988,2.586 0,1.168 -0.332,2.027 -0.988,2.578 -0.653,0.558 -1.656,0.836 -3.012,0.836 l -4.051,0 m 0,7.676 0,-5.625 3.739,0 c 1.23,0 2.148,0.226 2.75,0.687 0.605,0.465 0.91,1.176 0.91,2.125 0,0.941 -0.305,1.645 -0.91,2.113 -0.602,0.465 -1.52,0.7 -2.75,0.7 l -3.739,0 m -2.527,2.074 6.453,0 c 1.922,0 3.406,-0.399 4.449,-1.199 1.039,-0.801 1.563,-1.938 1.563,-3.415 0,-1.14 -0.266,-2.05 -0.801,-2.722 -0.535,-0.676 -1.316,-1.098 -2.352,-1.266 1.243,-0.265 2.207,-0.824 2.891,-1.672 0.691,-0.843 1.035,-1.898 1.035,-3.164 0,-1.668 -0.566,-2.953 -1.699,-3.863 -1.133,-0.906 -2.746,-1.363 -4.836,-1.363 l -6.703,0 0,18.664" /><path
       inkscape:connector-curvature="0"
       id="path640"
       style="fill:#000000;fill-opacity:1;fill-rule:nonzero;stroke:none"
       d="m 273.762,516.873 3.761,0 4.766,-12.699 4.785,12.699 3.762,0 0,-18.664 -2.461,0 0,16.39 -4.813,-12.8 -2.539,0 -4.812,12.8 0,-16.39 -2.449,0 0,18.664" /><path
       inkscape:connector-curvature="0"
       id="path642"
       style="fill:#000000;fill-opacity:1;fill-rule:nonzero;stroke:none"
       d="m 304.688,511.799 0,-2.176 c -0.649,0.332 -1.325,0.582 -2.024,0.75 -0.703,0.168 -1.426,0.25 -2.176,0.25 -1.14,0 -2,-0.176 -2.574,-0.524 -0.566,-0.351 -0.852,-0.875 -0.852,-1.578 0,-0.531 0.204,-0.953 0.614,-1.262 0.406,-0.3 1.226,-0.585 2.461,-0.863 l 0.789,-0.172 c 1.633,-0.351 2.789,-0.847 3.472,-1.488 0.692,-0.633 1.04,-1.523 1.04,-2.664 0,-1.301 -0.516,-2.328 -1.551,-3.086 -1.024,-0.758 -2.438,-1.137 -4.239,-1.137 -0.75,0 -1.531,0.075 -2.347,0.223 -0.809,0.141 -1.664,0.359 -2.563,0.652 l 0,2.375 c 0.848,-0.441 1.688,-0.777 2.512,-1 0.824,-0.218 1.641,-0.328 2.449,-0.328 1.086,0 1.918,0.184 2.5,0.551 0.586,0.375 0.875,0.902 0.875,1.574 0,0.625 -0.211,1.106 -0.636,1.438 -0.418,0.336 -1.336,0.656 -2.762,0.965 l -0.801,0.187 c -1.426,0.301 -2.453,0.758 -3.086,1.375 -0.637,0.625 -0.953,1.477 -0.953,2.563 0,1.316 0.469,2.332 1.402,3.05 0.934,0.715 2.258,1.075 3.973,1.075 0.851,0 1.652,-0.063 2.402,-0.188 0.75,-0.125 1.442,-0.312 2.075,-0.562" /><path
       inkscape:connector-curvature="0"
       id="path644"
       style="fill:#000000;fill-opacity:1;fill-rule:nonzero;stroke:none"
       d="m 309.262,522.49 2.5,0 c 1.562,-2.457 2.73,-4.863 3.5,-7.219 0.781,-2.351 1.172,-4.691 1.172,-7.015 0,-2.332 -0.391,-4.68 -1.172,-7.047 -0.77,-2.364 -1.938,-4.77 -3.5,-7.219 l -2.5,0 c 1.386,2.387 2.418,4.758 3.093,7.109 0.688,2.367 1.032,4.75 1.032,7.157 0,2.406 -0.344,4.781 -1.032,7.125 -0.675,2.343 -1.707,4.714 -3.093,7.109" /><path
       inkscape:connector-curvature="0"
       id="path646"
       style="fill:none;stroke:#000000;stroke-width:2.4000001;stroke-linecap:butt;stroke-linejoin:miter;stroke-miterlimit:4;stroke-dasharray:none;stroke-opacity:1"
       d="m 809.852,536.611 0,-190.402" /><path
       inkscape:connector-curvature="0"
       id="path648"
       style="fill:#000000;fill-opacity:1;fill-rule:evenodd;stroke:none"
       d="m 809.852,335.131 -9.602,16.609 19.199,0 -9.597,-16.609 z" /><path
       inkscape:connector-curvature="0"
       id="path650"
       style="fill:none;stroke:#000000;stroke-width:2.4000001;stroke-linecap:butt;stroke-linejoin:miter;stroke-miterlimit:4;stroke-dasharray:none;stroke-opacity:1"
       d="m 809.852,335.13 -9.602,16.609 19.199,0 -9.597,-16.609 z" /><path
       inkscape:connector-curvature="0"
       id="path652"
       style="fill:none;stroke:#000000;stroke-width:2.4000001;stroke-linecap:butt;stroke-linejoin:miter;stroke-miterlimit:4;stroke-dasharray:none;stroke-opacity:1"
       d="m 806.648,431.009 -739.1992,0 0,-88" /><path
       inkscape:connector-curvature="0"
       id="path654"
       style="fill:#000000;fill-opacity:1;fill-rule:evenodd;stroke:none"
       d="m 67.4488,331.931 -9.5968,16.61 19.1992,0 -9.6024,-16.61 z" /><path
       inkscape:connector-curvature="0"
       id="path656"
       style="fill:none;stroke:#000000;stroke-width:2.4000001;stroke-linecap:butt;stroke-linejoin:miter;stroke-miterlimit:4;stroke-dasharray:none;stroke-opacity:1"
       d="m 67.4488,331.932 -9.5968,16.609 19.1992,0 -9.6024,-16.609 z" /><path
       inkscape:connector-curvature="0"
       id="path658"
       style="fill:none;stroke:#000000;stroke-width:2.4000001;stroke-linecap:butt;stroke-linejoin:miter;stroke-miterlimit:4;stroke-dasharray:none;stroke-opacity:1"
       d="m 187.449,429.411 0,-84.8" /><path
       inkscape:connector-curvature="0"
       id="path660"
       style="fill:#000000;fill-opacity:1;fill-rule:evenodd;stroke:none"
       d="m 187.449,333.533 -9.597,16.605 19.199,0 -9.602,-16.605 z" /><path
       inkscape:connector-curvature="0"
       id="path662"
       style="fill:none;stroke:#000000;stroke-width:2.4000001;stroke-linecap:butt;stroke-linejoin:miter;stroke-miterlimit:4;stroke-dasharray:none;stroke-opacity:1"
       d="m 187.449,333.532 -9.597,16.606 19.199,0 -9.602,-16.606 z" /><path
       inkscape:connector-curvature="0"
       id="path664"
       style="fill:none;stroke:#000000;stroke-width:2.4000001;stroke-linecap:butt;stroke-linejoin:miter;stroke-miterlimit:4;stroke-dasharray:none;stroke-opacity:1"
       d="m 518.648,431.009 0,-83.198" /><path
       inkscape:connector-curvature="0"
       id="path666"
       style="fill:#000000;fill-opacity:1;fill-rule:evenodd;stroke:none"
       d="m 518.648,336.732 -9.597,16.609 19.199,0 -9.602,-16.609 z" /><path
       inkscape:connector-curvature="0"
       id="path668"
       style="fill:none;stroke:#000000;stroke-width:2.4000001;stroke-linecap:butt;stroke-linejoin:miter;stroke-miterlimit:4;stroke-dasharray:none;stroke-opacity:1"
       d="m 518.648,336.732 -9.597,16.609 19.199,0 -9.602,-16.609 z" /><path
       inkscape:connector-curvature="0"
       id="path670"
       style="fill:none;stroke:#000000;stroke-width:2.4000001;stroke-linecap:butt;stroke-linejoin:miter;stroke-miterlimit:4;stroke-dasharray:none;stroke-opacity:1"
       d="m 667.449,431.411 0,-84" /><path
       inkscape:connector-curvature="0"
       id="path672"
       style="fill:#000000;fill-opacity:1;fill-rule:evenodd;stroke:none"
       d="m 667.449,336.334 -9.597,16.605 19.199,0 -9.602,-16.605 z" /><path
       inkscape:connector-curvature="0"
       id="path674"
       style="fill:none;stroke:#000000;stroke-width:2.4000001;stroke-linecap:butt;stroke-linejoin:miter;stroke-miterlimit:4;stroke-dasharray:none;stroke-opacity:1"
       d="m 667.449,336.334 -9.597,16.605 19.199,0 -9.602,-16.605 z" /></g></svg>