<?xml version="1.0" encoding="UTF-8" standalone="no"?>
<!-- Created with Inkscape (http://www.inkscape.org/) -->

<svg
   id="svg2"
   version="1.1"
   inkscape:version="1.1.1 (3bf5ae0d25, 2021-09-20)"
   xml:space="preserve"
   width="1190.6666"
   height="914.66669"
   viewBox="0 0 1116.25 857.5"
   sodipodi:docname="drawing_plain.svg"
   xmlns:inkscape="http://www.inkscape.org/namespaces/inkscape"
   xmlns:sodipodi="http://sodipodi.sourceforge.net/DTD/sodipodi-0.dtd"
   xmlns="http://www.w3.org/2000/svg"
   xmlns:svg="http://www.w3.org/2000/svg"
   xmlns:rdf="http://www.w3.org/1999/02/22-rdf-syntax-ns#"
   xmlns:cc="http://creativecommons.org/ns#"
   xmlns:dc="http://purl.org/dc/elements/1.1/"><metadata
     id="metadata8"><rdf:RDF><cc:Work
         rdf:about=""><dc:format>image/svg+xml</dc:format><dc:type
           rdf:resource="http://purl.org/dc/dcmitype/StillImage" /></cc:Work></rdf:RDF></metadata><defs
     id="defs6"><clipPath
       clipPathUnits="userSpaceOnUse"
       id="clipPath18"><path
         d="M 0,3.01953 H 8930 V 6853.0195 H 0 Z"
         id="path20"
         inkscape:connector-curvature="0" /></clipPath></defs><sodipodi:namedview
     pagecolor="#ffffff"
     bordercolor="#666666"
     borderopacity="1"
     objecttolerance="10"
     gridtolerance="10"
     guidetolerance="10"
     inkscape:pageopacity="0"
     inkscape:pageshadow="2"
     inkscape:window-width="2611"
     inkscape:window-height="1487"
     id="namedview4"
     showgrid="false"
     inkscape:zoom="1.1008746"
     inkscape:cx="690.81438"
     inkscape:cy="475.531"
     inkscape:window-x="0"
     inkscape:window-y="0"
     inkscape:window-maximized="0"
     inkscape:current-layer="g10"
     inkscape:pagecheckerboard="0" /><g
     id="g10"
     inkscape:groupmode="layer"
     inkscape:label="ink_ext_XXXXXX"
     transform="matrix(1.25,0,0,-1.25,0,857.5)"><path
   inkscape:connector-curvature="0"
   id="path22"
   style="fill:#ffffff;fill-opacity:1;fill-rule:nonzero;stroke:none"
   d="M 7.72305,358.228 H 264.93 c 3.832,0 6.922,-3.137 6.922,-7.035 V 14.4738 c 0,-3.8976 -3.09,-7.03474 -6.922,-7.03474 H 7.72305 c -3.83594,0 -6.921878,3.13714 -6.921878,7.03474 V 351.193 c 0,3.898 3.085938,7.035 6.921878,7.035 z" /><path
   inkscape:connector-curvature="0"
   id="path24"
   style="fill:none;stroke:#000000;stroke-width:1.61507;stroke-linecap:butt;stroke-linejoin:round;stroke-miterlimit:4;stroke-dasharray:1.61507, 1.61507;stroke-dashoffset:0;stroke-opacity:1"
   d="M 7.72305,358.229 H 264.93 c 3.832,0 6.922,-3.138 6.922,-7.036 V 14.4746 c 0,-3.8992 -3.09,-7.03515 -6.922,-7.03515 H 7.72305 c -3.83594,0 -6.921878,3.13595 -6.921878,7.03515 V 351.193 c 0,3.898 3.085938,7.036 6.921878,7.036 z" /><path
   inkscape:connector-curvature="0"
   id="path26"
   style="fill:#ffffff;fill-opacity:1;fill-rule:nonzero;stroke:none"
   d="m 160.078,684.615 v -31.699 h -0.176 v -87 h 84.305 v 87 h -35.832 v 31.699 z" /><path
   d="m 160.07876,684.61497 v -31.69871 h -0.17722 v -87.00084 h 84.30574 v 87.00084 h -35.83293 v 31.69871 z"
   style="fill:none;stroke:#000000;stroke-width:1.0459;stroke-linecap:butt;stroke-linejoin:miter;stroke-miterlimit:4;stroke-dasharray:none;stroke-opacity:1"
   id="path30"
   inkscape:connector-curvature="0" /><path
   inkscape:connector-curvature="0"
   id="path32"
   style="fill:#f3f3f3;fill-opacity:1;fill-rule:nonzero;stroke:none"
   d="m 208.543,684.771 v -31.644 h 35.773 z" /><path
   d="m 208.5428,684.77199 v -31.64535 h 35.77354 z"
   style="fill:none;stroke:#000000;stroke-width:1.0325;stroke-linecap:butt;stroke-linejoin:round;stroke-miterlimit:4;stroke-dasharray:none;stroke-opacity:1"
   id="path36"
   inkscape:connector-curvature="0" /><path
   d="m 167.6991,659.23301 h 31.47358 v -1.0037 l 1.90947,2.0074"
   style="fill:none;stroke:#000000;stroke-width:1.46884;stroke-linecap:butt;stroke-linejoin:miter;stroke-miterlimit:4;stroke-dasharray:none;stroke-opacity:1"
   id="path40"
   inkscape:connector-curvature="0" /><path
   inkscape:connector-curvature="0"
   id="path42"
   style="fill:#000000;fill-opacity:1;fill-rule:nonzero;stroke:none"
   d="m 170.559,638.119 h 56.277" /><path
   d="M 170.55892,638.11833 H 226.8361"
   style="fill:none;stroke:#000000;stroke-width:1.46884;stroke-linecap:butt;stroke-linejoin:miter;stroke-miterlimit:4;stroke-dasharray:none;stroke-opacity:1"
   id="path46"
   inkscape:connector-curvature="0" /><path
   inkscape:connector-curvature="0"
   id="path48"
   style="fill:#000000;fill-opacity:1;fill-rule:nonzero;stroke:none"
   d="m 170.559,622.037 h 56.277" /><path
   d="M 170.55892,622.03652 H 226.8361"
   style="fill:none;stroke:#000000;stroke-width:1.46884;stroke-linecap:butt;stroke-linejoin:miter;stroke-miterlimit:4;stroke-dasharray:none;stroke-opacity:1"
   id="path52"
   inkscape:connector-curvature="0" /><path
   inkscape:connector-curvature="0"
   id="path54"
   style="fill:#000000;fill-opacity:1;fill-rule:nonzero;stroke:none"
   d="m 171.512,577.299 h 56.277" /><path
   d="M 171.51122,577.29892 H 227.7884"
   style="fill:none;stroke:#000000;stroke-width:1.46884;stroke-linecap:butt;stroke-linejoin:miter;stroke-miterlimit:4;stroke-dasharray:none;stroke-opacity:1"
   id="path58"
   inkscape:connector-curvature="0" /><path
   inkscape:connector-curvature="0"
   id="path60"
   style="fill:#000000;fill-opacity:1;fill-rule:nonzero;stroke:none"
   d="m 171.512,605.951 h 56.277" /><path
   d="M 171.51122,605.95061 H 227.7884"
   style="fill:none;stroke:#000000;stroke-width:1.46884;stroke-linecap:butt;stroke-linejoin:miter;stroke-miterlimit:4;stroke-dasharray:none;stroke-opacity:1"
   id="path64"
   inkscape:connector-curvature="0" /><path
   inkscape:connector-curvature="0"
   id="path66"
   style="fill:#000000;fill-opacity:1;fill-rule:nonzero;stroke:none"
   d="m 171.512,591.877 h 56.277" /><path
   d="M 171.51122,591.87723 H 227.7884"
   style="fill:none;stroke:#000000;stroke-width:1.46884;stroke-linecap:butt;stroke-linejoin:miter;stroke-miterlimit:4;stroke-dasharray:none;stroke-opacity:1"
   id="path70"
   inkscape:connector-curvature="0" /><path
   inkscape:connector-curvature="0"
   id="path72"
   style="fill:#ffffff;fill-opacity:1;fill-rule:nonzero;stroke:none"
   d="m 143.863,677.576 v -31.695 h -0.175 v -87 h 84.304 v 87 H 192.16 v 31.695 z" /><path
   d="m 143.86338,677.57571 v -31.6946 h -0.17624 v -87.00084 h 84.30476 v 87.00084 h -35.83196 v 31.6946 z"
   style="fill:none;stroke:#000000;stroke-width:1.0459;stroke-linecap:butt;stroke-linejoin:miter;stroke-miterlimit:4;stroke-dasharray:none;stroke-opacity:1"
   id="path76"
   inkscape:connector-curvature="0" /><path
   inkscape:connector-curvature="0"
   id="path78"
   style="fill:#f3f3f3;fill-opacity:1;fill-rule:nonzero;stroke:none"
   d="m 192.328,677.736 v -31.645 h 35.774 z" /><path
   d="M 192.32742,677.73684 V 646.0915 h 35.77451 z"
   style="fill:none;stroke:#000000;stroke-width:1.0325;stroke-linecap:butt;stroke-linejoin:round;stroke-miterlimit:4;stroke-dasharray:none;stroke-opacity:1"
   id="path82"
   inkscape:connector-curvature="0" /><path
   d="m 151.4847,652.19376 h 31.47163 v -1.00371 l 1.91142,2.01049"
   style="fill:none;stroke:#000000;stroke-width:1.46884;stroke-linecap:butt;stroke-linejoin:miter;stroke-miterlimit:4;stroke-dasharray:none;stroke-opacity:1"
   id="path86"
   inkscape:connector-curvature="0" /><path
   inkscape:connector-curvature="0"
   id="path88"
   style="fill:#000000;fill-opacity:1;fill-rule:nonzero;stroke:none"
   d="m 154.344,631.084 h 56.277" /><path
   d="m 154.34354,631.0842 h 56.27718"
   style="fill:none;stroke:#000000;stroke-width:1.46884;stroke-linecap:butt;stroke-linejoin:miter;stroke-miterlimit:4;stroke-dasharray:none;stroke-opacity:1"
   id="path92"
   inkscape:connector-curvature="0" /><path
   inkscape:connector-curvature="0"
   id="path94"
   style="fill:#000000;fill-opacity:1;fill-rule:nonzero;stroke:none"
   d="m 154.344,614.998 h 56.277" /><path
   d="m 154.34354,614.99829 h 56.27718"
   style="fill:none;stroke:#000000;stroke-width:1.46884;stroke-linecap:butt;stroke-linejoin:miter;stroke-miterlimit:4;stroke-dasharray:none;stroke-opacity:1"
   id="path98"
   inkscape:connector-curvature="0" /><path
   inkscape:connector-curvature="0"
   id="path100"
   style="fill:#000000;fill-opacity:1;fill-rule:nonzero;stroke:none"
   d="m 155.297,570.263 h 56.277" /><path
   d="m 155.29681,570.26377 h 56.27718"
   style="fill:none;stroke:#000000;stroke-width:1.46884;stroke-linecap:butt;stroke-linejoin:miter;stroke-miterlimit:4;stroke-dasharray:none;stroke-opacity:1"
   id="path104"
   inkscape:connector-curvature="0" /><path
   inkscape:connector-curvature="0"
   id="path106"
   style="fill:#000000;fill-opacity:1;fill-rule:nonzero;stroke:none"
   d="m 155.297,598.912 h 56.277" /><path
   d="m 155.29681,598.91135 h 56.27718"
   style="fill:none;stroke:#000000;stroke-width:1.46884;stroke-linecap:butt;stroke-linejoin:miter;stroke-miterlimit:4;stroke-dasharray:none;stroke-opacity:1"
   id="path110"
   inkscape:connector-curvature="0" /><path
   inkscape:connector-curvature="0"
   id="path112"
   style="fill:#000000;fill-opacity:1;fill-rule:nonzero;stroke:none"
   d="m 155.297,584.838 h 56.277" /><path
   d="m 155.29681,584.83797 h 56.27718"
   style="fill:none;stroke:#000000;stroke-width:1.46884;stroke-linecap:butt;stroke-linejoin:miter;stroke-miterlimit:4;stroke-dasharray:none;stroke-opacity:1"
   id="path116"
   inkscape:connector-curvature="0" /><path
   inkscape:connector-curvature="0"
   id="path118"
   style="fill:#ffffff;fill-opacity:1;fill-rule:nonzero;stroke:none"
   d="m 123.832,667.525 v -31.699 h -0.176 v -87 h 84.305 v 87 h -35.828 v 31.699 z" /><path
   d="m 123.83199,667.52535 v -31.69973 h -0.17527 v -86.99981 h 84.30477 v 86.99981 h -35.82904 v 31.69973 z"
   style="fill:none;stroke:#000000;stroke-width:1.0459;stroke-linecap:butt;stroke-linejoin:miter;stroke-miterlimit:4;stroke-dasharray:none;stroke-opacity:1"
   id="path122"
   inkscape:connector-curvature="0" /><path
   inkscape:connector-curvature="0"
   id="path124"
   style="fill:#f3f3f3;fill-opacity:1;fill-rule:nonzero;stroke:none"
   d="M 172.297,667.681 V 636.037 H 208.07 Z" /><path
   d="m 172.29701,667.68237 v -31.64534 h 35.77256 z"
   style="fill:none;stroke:#000000;stroke-width:1.0325;stroke-linecap:butt;stroke-linejoin:round;stroke-miterlimit:4;stroke-dasharray:none;stroke-opacity:1"
   id="path128"
   inkscape:connector-curvature="0" /><path
   d="m 131.45331,642.1434 h 31.4765 v -1.00884 l 1.90558,2.01254"
   style="fill:none;stroke:#000000;stroke-width:1.46884;stroke-linecap:butt;stroke-linejoin:miter;stroke-miterlimit:4;stroke-dasharray:none;stroke-opacity:1"
   id="path132"
   inkscape:connector-curvature="0" /><path
   inkscape:connector-curvature="0"
   id="path134"
   style="fill:#000000;fill-opacity:1;fill-rule:nonzero;stroke:none"
   d="M 134.312,621.029 H 190.59" /><path
   d="m 134.31215,621.02974 h 56.27718"
   style="fill:none;stroke:#000000;stroke-width:1.46884;stroke-linecap:butt;stroke-linejoin:miter;stroke-miterlimit:4;stroke-dasharray:none;stroke-opacity:1"
   id="path138"
   inkscape:connector-curvature="0" /><path
   inkscape:connector-curvature="0"
   id="path140"
   style="fill:#000000;fill-opacity:1;fill-rule:nonzero;stroke:none"
   d="M 134.312,604.943 H 190.59" /><path
   d="m 134.31215,604.94382 h 56.27718"
   style="fill:none;stroke:#000000;stroke-width:1.46884;stroke-linecap:butt;stroke-linejoin:miter;stroke-miterlimit:4;stroke-dasharray:none;stroke-opacity:1"
   id="path144"
   inkscape:connector-curvature="0" /><path
   inkscape:connector-curvature="0"
   id="path146"
   style="fill:#000000;fill-opacity:1;fill-rule:nonzero;stroke:none"
   d="m 135.27,560.209 h 56.273" /><path
   d="m 135.26932,560.20931 h 56.27329"
   style="fill:none;stroke:#000000;stroke-width:1.46884;stroke-linecap:butt;stroke-linejoin:miter;stroke-miterlimit:4;stroke-dasharray:none;stroke-opacity:1"
   id="path150"
   inkscape:connector-curvature="0" /><path
   inkscape:connector-curvature="0"
   id="path152"
   style="fill:#000000;fill-opacity:1;fill-rule:nonzero;stroke:none"
   d="m 135.27,588.861 h 56.273" /><path
   d="m 135.26932,588.86202 h 56.27329"
   style="fill:none;stroke:#000000;stroke-width:1.46884;stroke-linecap:butt;stroke-linejoin:miter;stroke-miterlimit:4;stroke-dasharray:none;stroke-opacity:1"
   id="path156"
   inkscape:connector-curvature="0" /><path
   inkscape:connector-curvature="0"
   id="path158"
   style="fill:#000000;fill-opacity:1;fill-rule:nonzero;stroke:none"
   d="m 135.27,574.787 h 56.273" /><path
   d="m 135.26932,574.78659 h 56.27329"
   style="fill:none;stroke:#000000;stroke-width:1.46884;stroke-linecap:butt;stroke-linejoin:miter;stroke-miterlimit:4;stroke-dasharray:none;stroke-opacity:1"
   id="path162"
   inkscape:connector-curvature="0" /><path
   inkscape:connector-curvature="0"
   id="path164"
   style="fill:#ffffff;fill-opacity:1;fill-rule:nonzero;stroke:none"
   d="m 103.801,658.478 v -31.699 h -0.176 v -87 h 84.305 v 87 h -35.828 v 31.699 z" /><path
   d="m 103.80158,658.47869 v -31.69871 h -0.17722 v -87.00083 h 84.30574 v 87.00083 h -35.82806 v 31.69871 z"
   style="fill:none;stroke:#000000;stroke-width:1.0459;stroke-linecap:butt;stroke-linejoin:miter;stroke-miterlimit:4;stroke-dasharray:none;stroke-opacity:1"
   id="path168"
   inkscape:connector-curvature="0" /><path
   inkscape:connector-curvature="0"
   id="path170"
   style="fill:#f3f3f3;fill-opacity:1;fill-rule:nonzero;stroke:none"
   d="M 152.266,658.634 V 626.99 h 35.773 z" /><path
   d="M 152.26562,658.63469 V 626.9914 h 35.77354 z"
   style="fill:none;stroke:#000000;stroke-width:1.0325;stroke-linecap:butt;stroke-linejoin:round;stroke-miterlimit:4;stroke-dasharray:none;stroke-opacity:1"
   id="path174"
   inkscape:connector-curvature="0" /><path
   d="m 111.42192,633.09571 h 31.47651 l -0.12075,-0.0472 0.79651,0.0472"
   style="fill:none;stroke:#000000;stroke-width:1.46884;stroke-linecap:butt;stroke-linejoin:miter;stroke-miterlimit:4;stroke-dasharray:none;stroke-opacity:1"
   id="path178"
   inkscape:connector-curvature="0" /><path
   inkscape:connector-curvature="0"
   id="path180"
   style="fill:#000000;fill-opacity:1;fill-rule:nonzero;stroke:none"
   d="m 114.285,611.982 h 56.274" /><path
   d="m 114.28563,611.98308 h 56.27329"
   style="fill:none;stroke:#000000;stroke-width:1.46884;stroke-linecap:butt;stroke-linejoin:miter;stroke-miterlimit:4;stroke-dasharray:none;stroke-opacity:1"
   id="path184"
   inkscape:connector-curvature="0" /><path
   inkscape:connector-curvature="0"
   id="path186"
   style="fill:#000000;fill-opacity:1;fill-rule:nonzero;stroke:none"
   d="m 114.285,595.896 h 56.274" /><path
   d="m 114.28563,595.89717 h 56.27329"
   style="fill:none;stroke:#000000;stroke-width:1.46884;stroke-linecap:butt;stroke-linejoin:miter;stroke-miterlimit:4;stroke-dasharray:none;stroke-opacity:1"
   id="path190"
   inkscape:connector-curvature="0" /><path
   inkscape:connector-curvature="0"
   id="path192"
   style="fill:#000000;fill-opacity:1;fill-rule:nonzero;stroke:none"
   d="m 115.238,551.162 h 56.274" /><path
   d="m 115.23793,551.16162 h 56.27329"
   style="fill:none;stroke:#000000;stroke-width:1.46884;stroke-linecap:butt;stroke-linejoin:miter;stroke-miterlimit:4;stroke-dasharray:none;stroke-opacity:1"
   id="path196"
   inkscape:connector-curvature="0" /><path
   inkscape:connector-curvature="0"
   id="path198"
   style="fill:#000000;fill-opacity:1;fill-rule:nonzero;stroke:none"
   d="m 115.238,579.814 h 56.274" /><path
   d="m 115.23793,579.81433 h 56.27329"
   style="fill:none;stroke:#000000;stroke-width:1.46884;stroke-linecap:butt;stroke-linejoin:miter;stroke-miterlimit:4;stroke-dasharray:none;stroke-opacity:1"
   id="path202"
   inkscape:connector-curvature="0" /><path
   inkscape:connector-curvature="0"
   id="path204"
   style="fill:#000000;fill-opacity:1;fill-rule:nonzero;stroke:none"
   d="m 115.238,565.74 h 56.274" /><path
   d="m 115.23793,565.74096 h 56.27329"
   style="fill:none;stroke:#000000;stroke-width:1.46884;stroke-linecap:butt;stroke-linejoin:miter;stroke-miterlimit:4;stroke-dasharray:none;stroke-opacity:1"
   id="path208"
   inkscape:connector-curvature="0" /><path
   inkscape:connector-curvature="0"
   id="path210"
   style="fill:none;stroke:#000000;stroke-width:1.6;stroke-linecap:butt;stroke-linejoin:round;stroke-miterlimit:4;stroke-dasharray:none;stroke-opacity:1"
   d="m 595.004,671.907 h 278.351 c 5.317,0 9.598,-4.991 9.598,-11.198 V 546.213 c 0,-6.204 -4.281,-11.2 -9.598,-11.2 H 595.004 c -5.316,0 -9.602,4.996 -9.602,11.2 v 114.496 c 0,6.207 4.286,11.198 9.602,11.198 z" /><path
   inkscape:connector-curvature="0"
   id="path214"
   style="fill:none;stroke:#000000;stroke-width:2.4;stroke-linecap:butt;stroke-linejoin:round;stroke-miterlimit:4;stroke-dasharray:2.4, 2.4;stroke-dashoffset:0;stroke-opacity:1"
   d="m 445.051,360.611 h 436.801 c 5.316,0 9.597,-2.539 9.597,-5.691 V 7.90039 c 0,-3.15273 -4.281,-5.6918 -9.597,-5.6918 H 445.051 c -5.321,0 -9.602,2.53907 -9.602,5.6918 V 354.92 c 0,3.152 4.281,5.691 9.602,5.691 z" /><path
   inkscape:connector-curvature="0"
   id="path216"
   style="fill:#ffffff;fill-opacity:1;fill-rule:nonzero;stroke:none"
   d="m 780.594,327.896 v -28.019 h -0.176 V 222.97 h 85.59 v 76.907 h -36.375 v 28.019 z" /><path
   d="m 780.5912,327.89519 v -28.01935 h -0.17625 V 222.97 h 85.59036 v 76.90584 h -36.37497 v 28.01935 z"
   style="fill:none;stroke:#000000;stroke-width:0.990836;stroke-linecap:butt;stroke-linejoin:miter;stroke-miterlimit:4;stroke-dasharray:none;stroke-opacity:1"
   id="path220"
   inkscape:connector-curvature="0" /><path
   inkscape:connector-curvature="0"
   id="path222"
   style="fill:#f3f3f3;fill-opacity:1;fill-rule:nonzero;stroke:none"
   d="m 829.801,328.037 v -27.973 h 36.32 z" /><path
   d="m 829.79826,328.03588 v -27.9715 h 36.31968 z"
   style="fill:none;stroke:#000000;stroke-width:0.978145;stroke-linecap:butt;stroke-linejoin:round;stroke-miterlimit:4;stroke-dasharray:none;stroke-opacity:1"
   id="path226"
   inkscape:connector-curvature="0" /><path
   d="m 788.32967,305.45846 h 31.95611 l -0.12098,-0.0383 0.80931,0.0421"
   style="fill:none;stroke:#000000;stroke-width:1.39151;stroke-linecap:butt;stroke-linejoin:miter;stroke-miterlimit:4;stroke-dasharray:none;stroke-opacity:1"
   id="path230"
   inkscape:connector-curvature="0" /><path
   inkscape:connector-curvature="0"
   id="path232"
   style="fill:#000000;fill-opacity:1;fill-rule:nonzero;stroke:none"
   d="m 791.238,286.799 h 57.133" /><path
   d="m 791.23525,286.79835 h 57.13324"
   style="fill:none;stroke:#000000;stroke-width:1.39151;stroke-linecap:butt;stroke-linejoin:miter;stroke-miterlimit:4;stroke-dasharray:none;stroke-opacity:1"
   id="path236"
   inkscape:connector-curvature="0" /><path
   inkscape:connector-curvature="0"
   id="path238"
   style="fill:#000000;fill-opacity:1;fill-rule:nonzero;stroke:none"
   d="m 791.238,272.58 h 57.133" /><path
   d="m 791.23525,272.58003 h 57.13324"
   style="fill:none;stroke:#000000;stroke-width:1.39151;stroke-linecap:butt;stroke-linejoin:miter;stroke-miterlimit:4;stroke-dasharray:none;stroke-opacity:1"
   id="path242"
   inkscape:connector-curvature="0" /><path
   inkscape:connector-curvature="0"
   id="path244"
   style="fill:#000000;fill-opacity:1;fill-rule:nonzero;stroke:none"
   d="M 792.207,233.033 H 849.34" /><path
   d="m 792.20412,233.03269 h 57.13324"
   style="fill:none;stroke:#000000;stroke-width:1.39151;stroke-linecap:butt;stroke-linejoin:miter;stroke-miterlimit:4;stroke-dasharray:none;stroke-opacity:1"
   id="path248"
   inkscape:connector-curvature="0" /><path
   inkscape:connector-curvature="0"
   id="path250"
   style="fill:#000000;fill-opacity:1;fill-rule:nonzero;stroke:none"
   d="M 792.207,258.361 H 849.34" /><path
   d="m 792.20412,258.36075 h 57.13324"
   style="fill:none;stroke:#000000;stroke-width:1.39151;stroke-linecap:butt;stroke-linejoin:miter;stroke-miterlimit:4;stroke-dasharray:none;stroke-opacity:1"
   id="path254"
   inkscape:connector-curvature="0" /><path
   inkscape:connector-curvature="0"
   id="path256"
   style="fill:#000000;fill-opacity:1;fill-rule:nonzero;stroke:none"
   d="M 792.207,245.92 H 849.34" /><path
   d="m 792.20412,245.91876 h 57.13324"
   style="fill:none;stroke:#000000;stroke-width:1.39151;stroke-linecap:butt;stroke-linejoin:miter;stroke-miterlimit:4;stroke-dasharray:none;stroke-opacity:1"
   id="path260"
   inkscape:connector-curvature="0" /><path
   inkscape:connector-curvature="0"
   id="path262"
   style="fill:#ffffff;fill-opacity:1;fill-rule:nonzero;stroke:none"
   d="m 638.195,327.896 v -28.019 h -0.179 V 222.97 h 85.593 v 76.907 H 687.23 v 28.019 z" /><path
   d="m 638.19299,327.89519 v -28.01935 h -0.17938 V 222.97 h 85.59244 v 76.90584 h -36.37809 v 28.01935 z"
   style="fill:none;stroke:#000000;stroke-width:0.990836;stroke-linecap:butt;stroke-linejoin:miter;stroke-miterlimit:4;stroke-dasharray:none;stroke-opacity:1"
   id="path266"
   inkscape:connector-curvature="0" /><path
   inkscape:connector-curvature="0"
   id="path268"
   style="fill:#f3f3f3;fill-opacity:1;fill-rule:nonzero;stroke:none"
   d="m 687.398,328.037 v -27.973 h 36.321 z" /><path
   d="m 687.39587,328.03588 v -27.9715 h 36.32073 z"
   style="fill:none;stroke:#000000;stroke-width:0.978145;stroke-linecap:butt;stroke-linejoin:round;stroke-miterlimit:4;stroke-dasharray:none;stroke-opacity:1"
   id="path272"
   inkscape:connector-curvature="0" /><path
   d="m 645.92833,305.45846 h 31.95611 l -0.11681,-0.0383 0.80827,0.0421"
   style="fill:none;stroke:#000000;stroke-width:1.39151;stroke-linecap:butt;stroke-linejoin:miter;stroke-miterlimit:4;stroke-dasharray:none;stroke-opacity:1"
   id="path276"
   inkscape:connector-curvature="0" /><path
   inkscape:connector-curvature="0"
   id="path278"
   style="fill:#000000;fill-opacity:1;fill-rule:nonzero;stroke:none"
   d="m 648.836,286.799 h 57.137" /><path
   d="m 648.83391,286.79835 h 57.13637"
   style="fill:none;stroke:#000000;stroke-width:1.39151;stroke-linecap:butt;stroke-linejoin:miter;stroke-miterlimit:4;stroke-dasharray:none;stroke-opacity:1"
   id="path282"
   inkscape:connector-curvature="0" /><path
   inkscape:connector-curvature="0"
   id="path284"
   style="fill:#000000;fill-opacity:1;fill-rule:nonzero;stroke:none"
   d="m 648.836,272.58 h 57.137" /><path
   d="m 648.83391,272.58003 h 57.13637"
   style="fill:none;stroke:#000000;stroke-width:1.39151;stroke-linecap:butt;stroke-linejoin:miter;stroke-miterlimit:4;stroke-dasharray:none;stroke-opacity:1"
   id="path288"
   inkscape:connector-curvature="0" /><path
   inkscape:connector-curvature="0"
   id="path290"
   style="fill:#000000;fill-opacity:1;fill-rule:nonzero;stroke:none"
   d="m 649.805,233.033 h 57.136" /><path
   d="m 649.80278,233.03269 h 57.13533"
   style="fill:none;stroke:#000000;stroke-width:1.39151;stroke-linecap:butt;stroke-linejoin:miter;stroke-miterlimit:4;stroke-dasharray:none;stroke-opacity:1"
   id="path294"
   inkscape:connector-curvature="0" /><path
   inkscape:connector-curvature="0"
   id="path296"
   style="fill:#000000;fill-opacity:1;fill-rule:nonzero;stroke:none"
   d="m 649.805,258.361 h 57.136" /><path
   d="m 649.80278,258.36075 h 57.13533"
   style="fill:none;stroke:#000000;stroke-width:1.39151;stroke-linecap:butt;stroke-linejoin:miter;stroke-miterlimit:4;stroke-dasharray:none;stroke-opacity:1"
   id="path300"
   inkscape:connector-curvature="0" /><path
   inkscape:connector-curvature="0"
   id="path302"
   style="fill:#000000;fill-opacity:1;fill-rule:nonzero;stroke:none"
   d="m 649.805,245.92 h 57.136" /><path
   d="m 649.80278,245.91876 h 57.13533"
   style="fill:none;stroke:#000000;stroke-width:1.39151;stroke-linecap:butt;stroke-linejoin:miter;stroke-miterlimit:4;stroke-dasharray:none;stroke-opacity:1"
   id="path306"
   inkscape:connector-curvature="0" /><path
   inkscape:connector-curvature="0"
   id="path308"
   style="fill:#ffffff;fill-opacity:1;fill-rule:nonzero;stroke:none"
   d="m 476.594,327.896 v -28.019 h -0.176 V 222.97 h 85.59 v 76.907 h -36.375 v 28.019 z" /><path
   d="m 476.59254,327.89519 v -28.01935 h -0.17625 V 222.97 h 85.59035 v 76.90584 h -36.37496 v 28.01935 z"
   style="fill:none;stroke:#000000;stroke-width:0.990836;stroke-linecap:butt;stroke-linejoin:miter;stroke-miterlimit:4;stroke-dasharray:none;stroke-opacity:1"
   id="path312"
   inkscape:connector-curvature="0" /><path
   inkscape:connector-curvature="0"
   id="path314"
   style="fill:#f3f3f3;fill-opacity:1;fill-rule:nonzero;stroke:none"
   d="m 525.801,328.037 v -27.973 h 36.32 z" /><path
   d="m 525.79959,328.03588 v -27.9715 h 36.31969 z"
   style="fill:none;stroke:#000000;stroke-width:0.978145;stroke-linecap:butt;stroke-linejoin:round;stroke-miterlimit:4;stroke-dasharray:none;stroke-opacity:1"
   id="path318"
   inkscape:connector-curvature="0" /><path
   d="m 484.32996,305.45846 h 31.95716 l -0.12098,-0.0383 0.8093,0.0421"
   style="fill:none;stroke:#000000;stroke-width:1.39151;stroke-linecap:butt;stroke-linejoin:miter;stroke-miterlimit:4;stroke-dasharray:none;stroke-opacity:1"
   id="path322"
   inkscape:connector-curvature="0" /><path
   inkscape:connector-curvature="0"
   id="path324"
   style="fill:#000000;fill-opacity:1;fill-rule:nonzero;stroke:none"
   d="m 487.238,286.799 h 57.133" /><path
   d="m 487.23658,286.79835 h 57.1322"
   style="fill:none;stroke:#000000;stroke-width:1.39151;stroke-linecap:butt;stroke-linejoin:miter;stroke-miterlimit:4;stroke-dasharray:none;stroke-opacity:1"
   id="path328"
   inkscape:connector-curvature="0" /><path
   inkscape:connector-curvature="0"
   id="path330"
   style="fill:#000000;fill-opacity:1;fill-rule:nonzero;stroke:none"
   d="m 487.238,272.58 h 57.133" /><path
   d="m 487.23658,272.58003 h 57.1322"
   style="fill:none;stroke:#000000;stroke-width:1.39151;stroke-linecap:butt;stroke-linejoin:miter;stroke-miterlimit:4;stroke-dasharray:none;stroke-opacity:1"
   id="path334"
   inkscape:connector-curvature="0" /><path
   inkscape:connector-curvature="0"
   id="path336"
   style="fill:#000000;fill-opacity:1;fill-rule:nonzero;stroke:none"
   d="M 488.207,233.033 H 545.34" /><path
   d="M 488.20545,233.03269 H 545.3387"
   style="fill:none;stroke:#000000;stroke-width:1.39151;stroke-linecap:butt;stroke-linejoin:miter;stroke-miterlimit:4;stroke-dasharray:none;stroke-opacity:1"
   id="path340"
   inkscape:connector-curvature="0" /><path
   inkscape:connector-curvature="0"
   id="path342"
   style="fill:#000000;fill-opacity:1;fill-rule:nonzero;stroke:none"
   d="M 488.207,258.361 H 545.34" /><path
   d="M 488.20545,258.36075 H 545.3387"
   style="fill:none;stroke:#000000;stroke-width:1.39151;stroke-linecap:butt;stroke-linejoin:miter;stroke-miterlimit:4;stroke-dasharray:none;stroke-opacity:1"
   id="path346"
   inkscape:connector-curvature="0" /><path
   inkscape:connector-curvature="0"
   id="path348"
   style="fill:#000000;fill-opacity:1;fill-rule:nonzero;stroke:none"
   d="M 488.207,245.92 H 545.34" /><path
   d="M 488.20545,245.91876 H 545.3387"
   style="fill:none;stroke:#000000;stroke-width:1.39151;stroke-linecap:butt;stroke-linejoin:miter;stroke-miterlimit:4;stroke-dasharray:none;stroke-opacity:1"
   id="path352"
   inkscape:connector-curvature="0" /><path
   inkscape:connector-curvature="0"
   id="path354"
   style="fill:#ffffff;fill-opacity:1;fill-rule:nonzero;stroke:none"
   d="m 153.395,326.299 v -28.02 h -0.18 v -76.906 h 85.594 v 76.906 h -36.375 v 28.02 z" /><path
   d="m 153.39476,326.29783 v -28.01935 h -0.18043 v -76.90584 h 85.59349 v 76.90584 h -36.37496 v 28.01935 z"
   style="fill:none;stroke:#000000;stroke-width:0.990836;stroke-linecap:butt;stroke-linejoin:miter;stroke-miterlimit:4;stroke-dasharray:none;stroke-opacity:1"
   id="path358"
   inkscape:connector-curvature="0" /><path
   inkscape:connector-curvature="0"
   id="path360"
   style="fill:#f3f3f3;fill-opacity:1;fill-rule:nonzero;stroke:none"
   d="m 202.598,326.439 v -27.976 h 36.324 z" /><path
   d="M 202.59764,326.43853 V 298.46224 H 238.9215 Z"
   style="fill:none;stroke:#000000;stroke-width:0.978145;stroke-linecap:butt;stroke-linejoin:round;stroke-miterlimit:4;stroke-dasharray:none;stroke-opacity:1"
   id="path364"
   inkscape:connector-curvature="0" /><path
   d="m 161.13218,303.8611 h 31.95716 l -0.12098,-0.0392 0.80826,0.0392"
   style="fill:none;stroke:#000000;stroke-width:1.39151;stroke-linecap:butt;stroke-linejoin:miter;stroke-miterlimit:4;stroke-dasharray:none;stroke-opacity:1"
   id="path368"
   inkscape:connector-curvature="0" /><path
   inkscape:connector-curvature="0"
   id="path370"
   style="fill:#000000;fill-opacity:1;fill-rule:nonzero;stroke:none"
   d="m 164.035,285.197 h 57.137" /><path
   d="M 164.03463,285.19716 H 221.171"
   style="fill:none;stroke:#000000;stroke-width:1.39151;stroke-linecap:butt;stroke-linejoin:miter;stroke-miterlimit:4;stroke-dasharray:none;stroke-opacity:1"
   id="path374"
   inkscape:connector-curvature="0" /><path
   inkscape:connector-curvature="0"
   id="path376"
   style="fill:#000000;fill-opacity:1;fill-rule:nonzero;stroke:none"
   d="m 164.035,270.978 h 57.137" /><path
   d="M 164.03463,270.97788 H 221.171"
   style="fill:none;stroke:#000000;stroke-width:1.39151;stroke-linecap:butt;stroke-linejoin:miter;stroke-miterlimit:4;stroke-dasharray:none;stroke-opacity:1"
   id="path380"
   inkscape:connector-curvature="0" /><path
   inkscape:connector-curvature="0"
   id="path382"
   style="fill:#000000;fill-opacity:1;fill-rule:nonzero;stroke:none"
   d="m 165.004,231.431 h 57.137" /><path
   d="m 165.0035,231.4315 h 57.13637"
   style="fill:none;stroke:#000000;stroke-width:1.39151;stroke-linecap:butt;stroke-linejoin:miter;stroke-miterlimit:4;stroke-dasharray:none;stroke-opacity:1"
   id="path386"
   inkscape:connector-curvature="0" /><path
   inkscape:connector-curvature="0"
   id="path388"
   style="fill:#000000;fill-opacity:1;fill-rule:nonzero;stroke:none"
   d="m 165.004,256.759 h 57.137" /><path
   d="m 165.0035,256.75956 h 57.13637"
   style="fill:none;stroke:#000000;stroke-width:1.39151;stroke-linecap:butt;stroke-linejoin:miter;stroke-miterlimit:4;stroke-dasharray:none;stroke-opacity:1"
   id="path392"
   inkscape:connector-curvature="0" /><path
   inkscape:connector-curvature="0"
   id="path394"
   style="fill:#000000;fill-opacity:1;fill-rule:nonzero;stroke:none"
   d="m 165.004,244.318 h 57.137" /><path
   d="m 165.0035,244.31758 h 57.13637"
   style="fill:none;stroke:#000000;stroke-width:1.39151;stroke-linecap:butt;stroke-linejoin:miter;stroke-miterlimit:4;stroke-dasharray:none;stroke-opacity:1"
   id="path398"
   inkscape:connector-curvature="0" /><path
   inkscape:connector-curvature="0"
   id="path400"
   style="fill:#ffffff;fill-opacity:1;fill-rule:nonzero;stroke:none"
   d="M 34.9961,327.896 V 299.877 H 34.816 V 222.97 h 85.594 v 76.907 H 84.0309 v 28.019 z" /><path
   d="M 34.996015,327.89519 V 299.87584 H 34.815903 V 222.97 h 85.593387 v 76.90584 H 84.030567 v 28.01935 z"
   style="fill:none;stroke:#000000;stroke-width:0.990836;stroke-linecap:butt;stroke-linejoin:miter;stroke-miterlimit:4;stroke-dasharray:none;stroke-opacity:1"
   id="path404"
   inkscape:connector-curvature="0" /><path
   inkscape:connector-curvature="0"
   id="path406"
   style="fill:#f3f3f3;fill-opacity:1;fill-rule:nonzero;stroke:none"
   d="M 84.1988,328.037 V 300.064 H 120.52 Z" /><path
   d="m 84.198582,328.03588 v -27.9715 h 36.321258 z"
   style="fill:none;stroke:#000000;stroke-width:0.978145;stroke-linecap:butt;stroke-linejoin:round;stroke-miterlimit:4;stroke-dasharray:none;stroke-opacity:1"
   id="path410"
   inkscape:connector-curvature="0" /><path
   d="m 42.729892,305.45846 h 31.957781 l -0.121917,-0.0383 0.808993,0.0421"
   style="fill:none;stroke:#000000;stroke-width:1.39151;stroke-linecap:butt;stroke-linejoin:miter;stroke-miterlimit:4;stroke-dasharray:none;stroke-opacity:1"
   id="path414"
   inkscape:connector-curvature="0" /><path
   inkscape:connector-curvature="0"
   id="path416"
   style="fill:#000000;fill-opacity:1;fill-rule:nonzero;stroke:none"
   d="M 45.6371,286.799 H 102.773" /><path
   d="M 45.636928,286.79835 H 102.77267"
   style="fill:none;stroke:#000000;stroke-width:1.39151;stroke-linecap:butt;stroke-linejoin:miter;stroke-miterlimit:4;stroke-dasharray:none;stroke-opacity:1"
   id="path420"
   inkscape:connector-curvature="0" /><path
   inkscape:connector-curvature="0"
   id="path422"
   style="fill:#000000;fill-opacity:1;fill-rule:nonzero;stroke:none"
   d="M 45.6371,272.58 H 102.773" /><path
   d="M 45.636928,272.58003 H 102.77267"
   style="fill:none;stroke:#000000;stroke-width:1.39151;stroke-linecap:butt;stroke-linejoin:miter;stroke-miterlimit:4;stroke-dasharray:none;stroke-opacity:1"
   id="path426"
   inkscape:connector-curvature="0" /><path
   inkscape:connector-curvature="0"
   id="path428"
   style="fill:#000000;fill-opacity:1;fill-rule:nonzero;stroke:none"
   d="M 46.6051,233.033 H 103.738" /><path
   d="M 46.604966,233.03269 H 103.73758"
   style="fill:none;stroke:#000000;stroke-width:1.39151;stroke-linecap:butt;stroke-linejoin:miter;stroke-miterlimit:4;stroke-dasharray:none;stroke-opacity:1"
   id="path432"
   inkscape:connector-curvature="0" /><path
   inkscape:connector-curvature="0"
   id="path434"
   style="fill:#000000;fill-opacity:1;fill-rule:nonzero;stroke:none"
   d="M 46.6051,258.361 H 103.738" /><path
   d="M 46.604966,258.36075 H 103.73758"
   style="fill:none;stroke:#000000;stroke-width:1.39151;stroke-linecap:butt;stroke-linejoin:miter;stroke-miterlimit:4;stroke-dasharray:none;stroke-opacity:1"
   id="path438"
   inkscape:connector-curvature="0" /><path
   inkscape:connector-curvature="0"
   id="path440"
   style="fill:#000000;fill-opacity:1;fill-rule:nonzero;stroke:none"
   d="M 46.6051,245.92 H 103.738" /><path
   d="M 46.604966,245.91876 H 103.73758"
   style="fill:none;stroke:#000000;stroke-width:1.39151;stroke-linecap:butt;stroke-linejoin:miter;stroke-miterlimit:4;stroke-dasharray:none;stroke-opacity:1"
   id="path444"
   inkscape:connector-curvature="0" /><path
   inkscape:connector-curvature="0"
   id="path446"
   style="fill:#000000;fill-opacity:1;fill-rule:nonzero;stroke:none"
   d="m 813.945,430.345 c 0,-2.589 -2.07,-4.687 -4.625,-4.687 -2.554,0 -4.625,2.098 -4.625,4.687 0,2.59 2.071,4.688 4.625,4.688 2.555,0 4.625,-2.098 4.625,-4.688 z" /><path
   d="m 813.9467,430.34438 c 0,-2.58916 -2.0711,-4.68706 -4.62594,-4.68706 -2.55385,0 -4.62494,2.0979 -4.62494,4.68706 0,2.59016 2.07109,4.68705 4.62494,4.68705 2.55484,0 4.62594,-2.09689 4.62594,-4.68705 z"
   style="fill:none;stroke:#000000;stroke-width:1.27016;stroke-linecap:butt;stroke-linejoin:round;stroke-miterlimit:4;stroke-dasharray:none;stroke-opacity:1"
   id="path450"
   inkscape:connector-curvature="0" /><path
   inkscape:connector-curvature="0"
   id="path494"
   style="fill:#000000;fill-opacity:1;fill-rule:nonzero;stroke:none"
   d="m 166.188,192.611 h 2.63711 v 3.17617 H 166.188 Z" /><path
   inkscape:connector-curvature="0"
   id="path496"
   style="fill:#000000;fill-opacity:1;fill-rule:nonzero;stroke:none"
   d="m 174.113,211.271 h 11.801 v -2.125 h -9.277 v -5.523 h 8.886 v -2.125 h -8.886 v -6.762 h 9.5 v -2.125 h -12.024 v 18.66" /><path
   inkscape:connector-curvature="0"
   id="path498"
   style="fill:#000000;fill-opacity:1;fill-rule:nonzero;stroke:none"
   d="m 197.887,209.56 c -1.832,0 -3.289,-0.683 -4.375,-2.051 -1.074,-1.367 -1.614,-3.226 -1.614,-5.585 0,-2.352 0.54,-4.211 1.614,-5.575 1.086,-1.367 2.543,-2.05 4.375,-2.05 1.836,0 3.285,0.683 4.351,2.05 1.074,1.364 1.614,3.223 1.614,5.575 0,2.359 -0.54,4.218 -1.614,5.585 -1.066,1.368 -2.515,2.051 -4.351,2.051 m 3.539,-16.613 3.324,-3.637 h -3.051 l -2.761,2.989 c -0.274,-0.016 -0.489,-0.032 -0.637,-0.04 -0.141,-0.007 -0.281,-0.011 -0.414,-0.011 -2.625,0 -4.723,0.875 -6.301,2.625 -1.566,1.758 -2.348,4.109 -2.348,7.051 0,2.949 0.782,5.3 2.348,7.05 1.578,1.758 3.676,2.637 6.301,2.637 2.617,0 4.711,-0.879 6.277,-2.637 1.566,-1.75 2.348,-4.101 2.348,-7.05 0,-2.168 -0.438,-4.024 -1.313,-5.563 -0.867,-1.543 -2.125,-2.68 -3.773,-3.414" /><path
   inkscape:connector-curvature="0"
   id="path500"
   style="fill:#000000;fill-opacity:1;fill-rule:nonzero;stroke:none"
   d="m 210.176,211.271 h 2.535 v -11.336 c 0,-2 0.363,-3.441 1.09,-4.324 0.722,-0.875 1.898,-1.312 3.523,-1.312 1.617,0 2.789,0.437 3.512,1.312 0.726,0.883 1.09,2.324 1.09,4.324 v 11.336 h 2.535 v -11.648 c 0,-2.434 -0.602,-4.27 -1.813,-5.512 -1.199,-1.242 -2.972,-1.863 -5.324,-1.863 -2.359,0 -4.14,0.621 -5.347,1.863 -1.204,1.242 -1.801,3.078 -1.801,5.512 v 11.648" /><path
   inkscape:connector-curvature="0"
   id="path502"
   style="fill:#000000;fill-opacity:1;fill-rule:nonzero;stroke:none"
   d="m 63.7891,192.611 h 2.63711 v 3.17617 H 63.7891 Z" /><path
   inkscape:connector-curvature="0"
   id="path504"
   style="fill:#000000;fill-opacity:1;fill-rule:nonzero;stroke:none"
   d="m 71.7109,211.271 h 2.527 v -7.648 h 9.1762 v 7.648 h 2.5238 v -18.66 h -2.5238 v 8.887 h -9.1762 v -8.887 h -2.527 v 18.66" /><path
   inkscape:connector-curvature="0"
   id="path506"
   style="fill:none;stroke:#000000;stroke-width:1.14;stroke-linecap:butt;stroke-linejoin:round;stroke-miterlimit:4;stroke-dasharray:none;stroke-opacity:1"
   d="m 22.648,173.411 h 219.204 c 5.316,0 9.597,-2.538 9.597,-5.691 V 35.2477 c 0,-3.1524 -4.281,-5.6872 -9.597,-5.6872 H 22.648 c -5.316,0 -9.5968,2.5348 -9.5968,5.6872 V 167.72 c 0,3.153 4.2808,5.691 9.5968,5.691 z" /><path
   inkscape:connector-curvature="0"
   id="path508"
   style="fill:#000000;fill-opacity:1;fill-rule:nonzero;stroke:none"
   d="m 35.1051,131.271 h 2.5508 l 3.9261,-15.773 3.9102,15.773 h 2.8398 l 3.9258,-15.773 3.9102,15.773 h 2.5621 L 54.043,112.611 H 50.8672 L 46.9301,128.81 42.957,112.611 h -3.1761 l -4.6758,18.66" /><path
   inkscape:connector-curvature="0"
   id="path510"
   style="fill:#000000;fill-opacity:1;fill-rule:nonzero;stroke:none"
   d="m 65.8949,124.998 c -1.2347,0 -2.2109,-0.485 -2.9258,-1.449 -0.7152,-0.961 -1.0742,-2.278 -1.0742,-3.95 0,-1.675 0.3512,-2.996 1.0621,-3.965 0.7149,-0.957 1.695,-1.437 2.9379,-1.437 1.2223,0 2.1949,0.484 2.9102,1.449 0.7179,0.969 1.0777,2.285 1.0777,3.953 0,1.657 -0.3598,2.969 -1.0777,3.938 -0.7153,0.972 -1.6879,1.461 -2.9102,1.461 m 0,1.949 c 2,0 3.5699,-0.648 4.7102,-1.949 1.141,-1.301 1.7148,-3.102 1.7148,-5.399 0,-2.293 -0.5738,-4.093 -1.7148,-5.402 -1.1403,-1.301 -2.7102,-1.949 -4.7102,-1.949 -2.0078,0 -3.5859,0.648 -4.7269,1.949 -1.1328,1.309 -1.6989,3.109 -1.6989,5.402 0,2.297 0.5661,4.098 1.6989,5.399 1.141,1.301 2.7191,1.949 4.7269,1.949" /><path
   inkscape:connector-curvature="0"
   id="path512"
   style="fill:#000000;fill-opacity:1;fill-rule:nonzero;stroke:none"
   d="m 76.1172,112.611 h 2.30078 v 19.4492 H 76.1172 Z" /><path
   inkscape:connector-curvature="0"
   id="path514"
   style="fill:#000000;fill-opacity:1;fill-rule:nonzero;stroke:none"
   d="m 90.3051,132.06 v -1.914 h -2.2 c -0.8242,0 -1.3981,-0.164 -1.7223,-0.5 -0.3168,-0.332 -0.4769,-0.933 -0.4769,-1.797 v -1.238 h 3.789 v -1.789 h -3.789 v -12.211 h -2.3118 v 12.211 h -2.1992 v 1.789 h 2.1992 v 0.973 c 0,1.558 0.3629,2.691 1.086,3.402 0.7258,0.715 1.875,1.074 3.4527,1.074 h 2.1723" /><path
   inkscape:connector-curvature="0"
   id="path516"
   style="fill:#000000;fill-opacity:1;fill-rule:nonzero;stroke:none"
   d="M 104.195,120.185 V 119.06 H 93.6172 c 0.1019,-1.582 0.5777,-2.793 1.4258,-3.625 0.859,-0.824 2.0511,-1.238 3.5742,-1.238 0.8867,0 1.7378,0.109 2.5628,0.324 0.836,0.219 1.66,0.543 2.476,0.977 v -2.176 c -0.824,-0.348 -1.672,-0.617 -2.539,-0.801 -0.863,-0.183 -1.7459,-0.273 -2.6369,-0.273 -2.234,0 -4.0031,0.648 -5.3121,1.949 -1.3008,1.301 -1.9489,3.059 -1.9489,5.277 0,2.289 0.6168,4.106 1.8508,5.45 1.2391,1.347 2.9102,2.023 5.0121,2.023 1.8828,0 3.371,-0.609 4.461,-1.824 1.102,-1.207 1.652,-2.856 1.652,-4.938 m -2.3,0.676 c -0.016,1.258 -0.372,2.262 -1.063,3.012 -0.684,0.75 -1.5941,1.125 -2.7269,1.125 -1.2813,0 -2.3121,-0.364 -3.0852,-1.086 -0.766,-0.727 -1.2109,-1.746 -1.325,-3.063 l 8.2001,0.012" /><path
   inkscape:connector-curvature="0"
   id="path518"
   style="fill:#000000;fill-opacity:1;fill-rule:nonzero;stroke:none"
   d="m 119.605,121.06 v -8.449 h -2.3 v 8.375 c 0,1.324 -0.258,2.316 -0.774,2.973 -0.515,0.66 -1.293,0.988 -2.324,0.988 -1.242,0 -2.223,-0.395 -2.937,-1.188 -0.719,-0.789 -1.075,-1.871 -1.075,-3.238 v -7.91 h -2.312 v 14 h 2.312 v -2.176 c 0.547,0.84 1.196,1.473 1.938,1.887 0.75,0.418 1.609,0.625 2.586,0.625 1.609,0 2.824,-0.5 3.648,-1.5 0.828,-0.992 1.238,-2.453 1.238,-4.387" /><path
   inkscape:connector-curvature="0"
   id="path520"
   style="fill:#000000;fill-opacity:1;fill-rule:nonzero;stroke:none"
   d="m 133.145,126.197 v -2.176 c -0.653,0.336 -1.325,0.586 -2.028,0.75 -0.699,0.168 -1.422,0.25 -2.172,0.25 -1.144,0 -2,-0.172 -2.578,-0.523 -0.566,-0.352 -0.847,-0.875 -0.847,-1.574 0,-0.536 0.203,-0.954 0.613,-1.262 0.406,-0.301 1.226,-0.59 2.461,-0.863 l 0.789,-0.176 c 1.633,-0.352 2.789,-0.848 3.472,-1.489 0.692,-0.632 1.04,-1.519 1.04,-2.66 0,-1.3 -0.516,-2.332 -1.551,-3.09 -1.024,-0.757 -2.438,-1.136 -4.239,-1.136 -0.75,0 -1.531,0.074 -2.347,0.226 -0.809,0.141 -1.664,0.356 -2.563,0.649 v 2.375 c 0.848,-0.442 1.688,-0.774 2.512,-1 0.824,-0.215 1.641,-0.324 2.449,-0.324 1.082,0 1.918,0.183 2.5,0.55 0.582,0.375 0.875,0.899 0.875,1.575 0,0.625 -0.211,1.101 -0.636,1.437 -0.418,0.332 -1.34,0.652 -2.762,0.961 l -0.801,0.187 c -1.426,0.301 -2.453,0.758 -3.09,1.375 -0.633,0.625 -0.949,1.481 -0.949,2.563 0,1.316 0.469,2.336 1.402,3.051 0.934,0.715 2.258,1.074 3.973,1.074 0.852,0 1.652,-0.063 2.402,-0.188 0.75,-0.125 1.442,-0.312 2.075,-0.562" /><path
   inkscape:connector-curvature="0"
   id="path522"
   style="fill:#000000;fill-opacity:1;fill-rule:nonzero;stroke:none"
   d="m 139.844,130.584 v -3.973 h 4.738 v -1.789 h -4.738 v -7.598 c 0,-1.144 0.152,-1.875 0.461,-2.203 0.316,-0.324 0.957,-0.484 1.914,-0.484 h 2.363 v -1.926 h -2.363 c -1.774,0 -3,0.328 -3.676,0.988 -0.676,0.664 -1.012,1.875 -1.012,3.625 v 7.598 h -1.687 v 1.789 h 1.687 v 3.973 h 2.313" /><path
   inkscape:connector-curvature="0"
   id="path524"
   style="fill:#000000;fill-opacity:1;fill-rule:nonzero;stroke:none"
   d="M 159.594,120.185 V 119.06 H 149.02 c 0.097,-1.582 0.574,-2.793 1.425,-3.625 0.856,-0.824 2.047,-1.238 3.575,-1.238 0.882,0 1.738,0.109 2.562,0.324 0.832,0.219 1.656,0.543 2.473,0.977 v -2.176 c -0.825,-0.348 -1.668,-0.617 -2.535,-0.801 -0.868,-0.183 -1.747,-0.273 -2.637,-0.273 -2.235,0 -4.004,0.648 -5.313,1.949 -1.3,1.301 -1.953,3.059 -1.953,5.277 0,2.289 0.617,4.106 1.852,5.45 1.242,1.347 2.914,2.023 5.011,2.023 1.883,0 3.372,-0.609 4.465,-1.824 1.098,-1.207 1.649,-2.856 1.649,-4.938 m -2.301,0.676 c -0.016,1.258 -0.371,2.262 -1.063,3.012 -0.683,0.75 -1.589,1.125 -2.722,1.125 -1.285,0 -2.313,-0.364 -3.09,-1.086 -0.766,-0.727 -1.207,-1.746 -1.324,-3.063 l 8.199,0.012" /><path
   inkscape:connector-curvature="0"
   id="path526"
   style="fill:#000000;fill-opacity:1;fill-rule:nonzero;stroke:none"
   d="m 163.367,126.611 h 2.301 v -14 h -2.301 v 14 m 0,5.449 h 2.301 v -2.914 h -2.301 v 2.914" /><path
   inkscape:connector-curvature="0"
   id="path528"
   style="fill:#000000;fill-opacity:1;fill-rule:nonzero;stroke:none"
   d="m 182.105,121.06 v -8.449 h -2.3 v 8.375 c 0,1.324 -0.258,2.316 -0.774,2.973 -0.515,0.66 -1.293,0.988 -2.324,0.988 -1.242,0 -2.223,-0.395 -2.937,-1.188 -0.719,-0.789 -1.075,-1.871 -1.075,-3.238 v -7.91 h -2.312 v 14 h 2.312 v -2.176 c 0.547,0.84 1.196,1.473 1.938,1.887 0.75,0.418 1.609,0.625 2.586,0.625 1.609,0 2.824,-0.5 3.648,-1.5 0.828,-0.992 1.238,-2.453 1.238,-4.387" /><path
   inkscape:connector-curvature="0"
   id="path530"
   style="fill:#000000;fill-opacity:1;fill-rule:nonzero;stroke:none"
   d="m 202.844,122.674 c 1.207,-0.258 2.148,-0.797 2.824,-1.614 0.684,-0.816 1.027,-1.824 1.027,-3.023 0,-1.844 -0.636,-3.27 -1.902,-4.278 -1.266,-1.007 -3.066,-1.511 -5.398,-1.511 -0.786,0 -1.594,0.078 -2.426,0.238 -0.824,0.148 -1.68,0.379 -2.563,0.688 v 2.437 c 0.699,-0.41 1.465,-0.719 2.301,-0.926 0.832,-0.207 1.703,-0.312 2.613,-0.312 1.582,0 2.785,0.312 3.61,0.937 0.836,0.625 1.25,1.535 1.25,2.727 0,1.097 -0.387,1.957 -1.16,2.574 -0.766,0.625 -1.84,0.938 -3.215,0.938 h -2.172 v 2.074 h 2.273 c 1.242,0 2.192,0.246 2.852,0.738 0.656,0.5 0.984,1.215 0.984,2.148 0,0.961 -0.34,1.692 -1.023,2.2 -0.676,0.519 -1.645,0.777 -2.914,0.777 -0.692,0 -1.434,-0.074 -2.223,-0.227 -0.793,-0.148 -1.664,-0.382 -2.613,-0.699 v 2.25 c 0.957,0.266 1.855,0.465 2.687,0.602 0.84,0.133 1.633,0.199 2.375,0.199 1.918,0 3.434,-0.437 4.551,-1.312 1.117,-0.868 1.676,-2.043 1.676,-3.528 0,-1.031 -0.297,-1.906 -0.891,-2.625 -0.59,-0.707 -1.433,-1.199 -2.523,-1.472" /><path
   inkscape:connector-curvature="0"
   id="path532"
   style="fill:#000000;fill-opacity:1;fill-rule:nonzero;stroke:none"
   d="m 213.793,129.197 v -14.512 h 3.051 c 2.574,0 4.457,0.582 5.648,1.75 1.203,1.168 1.801,3.008 1.801,5.524 0,2.5 -0.598,4.332 -1.801,5.488 -1.191,1.168 -3.074,1.75 -5.648,1.75 h -3.051 m -2.523,2.074 h 5.187 c 3.617,0 6.27,-0.754 7.961,-2.262 1.691,-1.5 2.539,-3.847 2.539,-7.05 0,-3.215 -0.852,-5.578 -2.551,-7.086 -1.699,-1.508 -4.351,-2.262 -7.949,-2.262 h -5.187 v 18.66" /><path
   inkscape:connector-curvature="0"
   id="path534"
   style="fill:#000000;fill-opacity:1;fill-rule:nonzero;stroke:none"
   d="m 65.1949,94.1969 v -2.1758 c -0.6519,0.3359 -1.3277,0.5859 -2.0269,0.75 -0.6989,0.168 -1.4258,0.25 -2.1758,0.25 -1.1402,0 -2,-0.1723 -2.5742,-0.5231 -0.566,-0.3519 -0.8481,-0.875 -0.8481,-1.5742 0,-0.5359 0.2031,-0.9539 0.6102,-1.2617 0.4097,-0.3012 1.2301,-0.5902 2.4648,-0.8633 l 0.7852,-0.1758 c 1.6359,-0.3519 2.7929,-0.848 3.4758,-1.489 0.6921,-0.632 1.039,-1.5192 1.039,-2.6602 0,-1.3 -0.5187,-2.3316 -1.55,-3.0898 -1.0277,-0.757 -2.4379,-1.136 -4.239,-1.136 -0.75,0 -1.5348,0.0739 -2.3508,0.2258 -0.809,0.141 -1.6602,0.3563 -2.5629,0.6492 v 2.375 c 0.8519,-0.4421 1.6879,-0.7742 2.5156,-1 0.8242,-0.2152 1.6402,-0.3242 2.4492,-0.3242 1.0821,0 1.9141,0.1832 2.5,0.55 0.5821,0.375 0.875,0.8992 0.875,1.575 0,0.625 -0.2148,1.1012 -0.6371,1.4371 -0.4179,0.3321 -1.3398,0.652 -2.7648,0.961 l -0.7973,0.1871 c -1.4258,0.3012 -2.4566,0.7582 -3.0898,1.375 -0.6328,0.625 -0.9489,1.4808 -0.9489,2.5629 0,1.316 0.4649,2.3359 1.3981,3.0511 0.934,0.7149 2.2617,1.0739 3.9769,1.0739 0.8508,0 1.6481,-0.0629 2.3981,-0.1879 0.75,-0.125 1.4418,-0.3121 2.0777,-0.5621" /><path
   inkscape:connector-curvature="0"
   id="path536"
   style="fill:#000000;fill-opacity:1;fill-rule:nonzero;stroke:none"
   d="m 75.043,92.998 c -1.234,0 -2.2071,-0.4851 -2.9258,-1.4492 -0.7152,-0.9609 -1.0742,-2.2777 -1.0742,-3.95 0,-1.675 0.355,-2.9957 1.0621,-3.9648 0.7187,-0.957 1.6961,-1.4371 2.9379,-1.4371 1.2269,0 2.1949,0.484 2.914,1.4492 0.7149,0.9687 1.0739,2.2848 1.0739,3.9527 0,1.6571 -0.359,2.9692 -1.0739,3.9383 -0.7191,0.9719 -1.6871,1.4609 -2.914,1.4609 m 0,1.9489 c 2,0 3.5699,-0.6481 4.7148,-1.9489 1.1402,-1.3011 1.7113,-3.1019 1.7113,-5.3992 0,-2.2929 -0.5711,-4.0929 -1.7113,-5.4019 -1.1449,-1.3008 -2.7148,-1.9489 -4.7148,-1.9489 -2.0078,0 -3.5821,0.6481 -4.7231,1.9489 -1.1359,1.309 -1.7027,3.109 -1.7027,5.4019 0,2.2973 0.5668,4.0981 1.7027,5.3992 1.141,1.3008 2.7153,1.9489 4.7231,1.9489" /><path
   inkscape:connector-curvature="0"
   id="path538"
   style="fill:#000000;fill-opacity:1;fill-rule:nonzero;stroke:none"
   d="m 85.0309,86.134 v 8.4769 h 2.3011 v -8.3871 c 0,-1.3277 0.2578,-2.3238 0.7731,-2.9879 0.516,-0.6597 1.2929,-0.9879 2.325,-0.9879 1.2418,0 2.2219,0.3942 2.9371,1.1872 0.7269,0.7929 1.0898,1.8707 1.0898,3.2386 v 7.9371 h 2.3008 v -14 H 94.457 V 82.759 C 93.898,81.9121 93.2461,81.275 92.5078,80.8609 91.773,80.4512 90.918,80.248 89.9449,80.248 c -1.609,0 -2.832,0.5 -3.664,1.5 -0.8321,1 -1.25,2.461 -1.25,4.386" /><path
   inkscape:connector-curvature="0"
   id="path540"
   style="fill:#000000;fill-opacity:1;fill-rule:nonzero;stroke:none"
   d="m 109.633,92.459 c -0.262,0.1519 -0.543,0.2609 -0.852,0.3281 -0.301,0.0738 -0.633,0.109 -1,0.109 -1.301,0 -2.301,-0.4223 -3,-1.2731 -0.691,-0.8402 -1.039,-2.055 -1.039,-3.6371 v -7.375 h -2.312 v 14 h 2.312 v -2.1757 c 0.485,0.8519 1.113,1.4808 1.891,1.8867 0.773,0.4179 1.715,0.625 2.824,0.625 0.156,0 0.332,-0.0117 0.523,-0.0348 0.192,-0.0199 0.407,-0.0473 0.637,-0.0902 l 0.016,-2.3629" /><path
   inkscape:connector-curvature="0"
   id="path542"
   style="fill:#000000;fill-opacity:1;fill-rule:nonzero;stroke:none"
   d="m 121.594,94.0719 v -2.1481 c -0.649,0.359 -1.305,0.625 -1.961,0.8 -0.653,0.184 -1.309,0.2742 -1.977,0.2742 -1.492,0 -2.648,-0.4769 -3.476,-1.4261 -0.825,-0.941 -1.235,-2.266 -1.235,-3.9731 0,-1.7109 0.41,-3.0386 1.235,-3.9879 0.828,-0.941 1.984,-1.414 3.476,-1.414 0.668,0 1.324,0.0902 1.977,0.2621 0.656,0.1832 1.312,0.457 1.961,0.8121 v -2.125 c -0.641,-0.2973 -1.309,-0.5231 -2,-0.6723 -0.684,-0.1519 -1.414,-0.2258 -2.188,-0.2258 -2.109,0 -3.785,0.6641 -5.023,1.9879 -1.242,1.3243 -1.863,3.1129 -1.863,5.3629 0,2.2821 0.625,4.0782 1.875,5.3871 1.257,1.309 2.976,1.961 5.16,1.961 0.711,0 1.402,-0.0739 2.078,-0.2231 0.672,-0.1437 1.328,-0.359 1.961,-0.6519" /><path
   inkscape:connector-curvature="0"
   id="path544"
   style="fill:#000000;fill-opacity:1;fill-rule:nonzero;stroke:none"
   d="m 137.594,88.1852 v -1.125 H 127.02 c 0.097,-1.5821 0.574,-2.793 1.425,-3.625 0.856,-0.8243 2.047,-1.2383 3.575,-1.2383 0.882,0 1.738,0.109 2.562,0.3242 0.832,0.2187 1.656,0.543 2.473,0.9769 v -2.1761 c -0.825,-0.3481 -1.668,-0.6168 -2.535,-0.8008 -0.868,-0.1832 -1.747,-0.2731 -2.637,-0.2731 -2.235,0 -4.004,0.6481 -5.313,1.9489 -1.3,1.3011 -1.953,3.059 -1.953,5.2769 0,2.2891 0.617,4.1063 1.852,5.45 1.242,1.3473 2.914,2.0231 5.011,2.0231 1.883,0 3.372,-0.609 4.465,-1.8239 1.098,-1.207 1.649,-2.8558 1.649,-4.9378 m -2.301,0.6757 c -0.016,1.2582 -0.371,2.2621 -1.063,3.0121 -0.683,0.75 -1.589,1.125 -2.722,1.125 -1.285,0 -2.313,-0.364 -3.09,-1.0859 -0.766,-0.7269 -1.207,-1.7461 -1.324,-3.0633 l 8.199,0.0121" /><path
   inkscape:connector-curvature="0"
   id="path546"
   style="fill:#000000;fill-opacity:1;fill-rule:nonzero;stroke:none"
   d="m 159.594,94.0719 v -2.1481 c -0.649,0.359 -1.305,0.625 -1.961,0.8 -0.653,0.184 -1.309,0.2742 -1.977,0.2742 -1.492,0 -2.648,-0.4769 -3.476,-1.4261 -0.825,-0.941 -1.235,-2.266 -1.235,-3.9731 0,-1.7109 0.41,-3.0386 1.235,-3.9879 0.828,-0.941 1.984,-1.414 3.476,-1.414 0.668,0 1.324,0.0902 1.977,0.2621 0.656,0.1832 1.312,0.457 1.961,0.8121 v -2.125 c -0.641,-0.2973 -1.309,-0.5231 -2,-0.6723 -0.684,-0.1519 -1.414,-0.2258 -2.188,-0.2258 -2.109,0 -3.785,0.6641 -5.023,1.9879 -1.242,1.3243 -1.863,3.1129 -1.863,5.3629 0,2.2821 0.625,4.0782 1.875,5.3871 1.257,1.309 2.976,1.961 5.16,1.961 0.711,0 1.402,-0.0739 2.078,-0.2231 0.672,-0.1437 1.328,-0.359 1.961,-0.6519" /><path
   inkscape:connector-curvature="0"
   id="path548"
   style="fill:#000000;fill-opacity:1;fill-rule:nonzero;stroke:none"
   d="m 169.043,92.998 c -1.234,0 -2.207,-0.4851 -2.926,-1.4492 -0.715,-0.9609 -1.074,-2.2777 -1.074,-3.95 0,-1.675 0.355,-2.9957 1.062,-3.9648 0.719,-0.957 1.696,-1.4371 2.938,-1.4371 1.227,0 2.195,0.484 2.914,1.4492 0.715,0.9687 1.074,2.2848 1.074,3.9527 0,1.6571 -0.359,2.9692 -1.074,3.9383 -0.719,0.9719 -1.687,1.4609 -2.914,1.4609 m 0,1.9489 c 2,0 3.57,-0.6481 4.715,-1.9489 1.14,-1.3011 1.711,-3.1019 1.711,-5.3992 0,-2.2929 -0.571,-4.0929 -1.711,-5.4019 -1.145,-1.3008 -2.715,-1.9489 -4.715,-1.9489 -2.008,0 -3.582,0.6481 -4.723,1.9489 -1.136,1.309 -1.703,3.109 -1.703,5.4019 0,2.2973 0.567,4.0981 1.703,5.3992 1.141,1.3008 2.715,1.9489 4.723,1.9489" /><path
   inkscape:connector-curvature="0"
   id="path550"
   style="fill:#000000;fill-opacity:1;fill-rule:nonzero;stroke:none"
   d="m 188.48,92.4859 v 7.5741 h 2.301 V 80.6109 h -2.301 v 2.0981 c -0.484,-0.832 -1.093,-1.4531 -1.835,-1.8602 -0.735,-0.4019 -1.618,-0.6008 -2.653,-0.6008 -1.691,0 -3.07,0.6758 -4.137,2.0231 -1.058,1.3519 -1.585,3.125 -1.585,5.3277 0,2.2 0.527,3.9731 1.585,5.325 1.067,1.3473 2.446,2.0231 4.137,2.0231 1.035,0 1.918,-0.2028 2.653,-0.6129 0.742,-0.3988 1.351,-1.016 1.835,-1.8481 m -7.835,-4.8871 c 0,-1.691 0.343,-3.0226 1.035,-3.9879 0.703,-0.9609 1.66,-1.4371 2.875,-1.4371 1.218,0 2.175,0.4762 2.875,1.4371 0.703,0.9653 1.05,2.2969 1.05,3.9879 0,1.6922 -0.347,3.016 -1.05,3.9731 -0.7,0.9691 -1.657,1.4492 -2.875,1.4492 -1.215,0 -2.172,-0.4801 -2.875,-1.4492 -0.692,-0.9571 -1.035,-2.2809 -1.035,-3.9731" /><path
   inkscape:connector-curvature="0"
   id="path552"
   style="fill:#000000;fill-opacity:1;fill-rule:nonzero;stroke:none"
   d="m 207.492,88.1852 v -1.125 h -10.574 c 0.102,-1.5821 0.574,-2.793 1.426,-3.625 0.859,-0.8243 2.051,-1.2383 3.574,-1.2383 0.883,0 1.738,0.109 2.562,0.3242 0.836,0.2187 1.661,0.543 2.477,0.9769 v -2.1761 c -0.824,-0.3481 -1.672,-0.6168 -2.539,-0.8008 -0.867,-0.1832 -1.746,-0.2731 -2.637,-0.2731 -2.234,0 -4.004,0.6481 -5.312,1.9489 -1.301,1.3011 -1.949,3.059 -1.949,5.2769 0,2.2891 0.617,4.1063 1.847,5.45 1.242,1.3473 2.914,2.0231 5.016,2.0231 1.883,0 3.371,-0.609 4.461,-1.8239 1.101,-1.207 1.648,-2.8558 1.648,-4.9378 m -2.297,0.6757 c -0.019,1.2582 -0.371,2.2621 -1.062,3.0121 -0.684,0.75 -1.594,1.125 -2.727,1.125 -1.285,0 -2.312,-0.364 -3.086,-1.0859 -0.769,-0.7269 -1.211,-1.7461 -1.328,-3.0633 l 8.203,0.0121" /><path
   d="m 479.07158,141.27162 h 372.2837 c 7.98425,0 14.41431,-5.85515 14.41431,-13.12935 V 47.478865 c 0,-7.273765 -6.43006,-13.128911 -14.41431,-13.128911 h -372.2837 c -7.98425,0 -14.40982,5.855146 -14.40982,13.128911 v 80.663405 c 0,7.2742 6.42557,13.12935 14.40982,13.12935 z"
   style="fill:none;stroke:#000000;stroke-width:2.12261;stroke-linecap:butt;stroke-linejoin:round;stroke-miterlimit:4;stroke-dasharray:none;stroke-opacity:1"
   id="path556"
   inkscape:connector-curvature="0" /><path
   inkscape:connector-curvature="0"
   id="path558"
   style="fill:#000000;fill-opacity:1;fill-rule:nonzero;stroke:none"
   d="m 543.926,105.404 h 3.824 l 5.887,-23.6642 5.871,23.6642 h 4.254 l 5.886,-23.6642 5.872,23.6642 h 3.843 l -7.031,-27.9919 h -4.762 l -5.906,24.2969 -5.965,-24.2969 h -4.761 l -7.012,27.9919" /><path
   inkscape:connector-curvature="0"
   id="path560"
   style="fill:#000000;fill-opacity:1;fill-rule:nonzero;stroke:none"
   d="m 595.73,102.834 c -2.75,0 -4.937,-1.024 -6.562,-3.075 -1.613,-2.05 -2.418,-4.843 -2.418,-8.3781 0,-3.5278 0.805,-6.3129 2.418,-8.3637 1.625,-2.0512 3.812,-3.0742 6.562,-3.0742 2.75,0 4.926,1.023 6.528,3.0742 1.609,2.0508 2.418,4.8359 2.418,8.3637 0,3.5351 -0.809,6.3281 -2.418,8.3781 -1.602,2.051 -3.778,3.075 -6.528,3.075 m 0,3.078 c 3.926,0 7.063,-1.321 9.415,-3.957 2.347,-2.6249 3.523,-6.153 3.523,-10.5741 0,-4.4149 -1.176,-7.9379 -3.523,-10.5789 -2.352,-2.625 -5.489,-3.9372 -9.415,-3.9372 -3.937,0 -7.085,1.3122 -9.449,3.9372 -2.351,2.625 -3.523,6.1531 -3.523,10.5789 0,4.4211 1.172,7.9492 3.523,10.5741 2.364,2.636 5.512,3.957 9.449,3.957" /><path
   inkscape:connector-curvature="0"
   id="path562"
   style="fill:#000000;fill-opacity:1;fill-rule:nonzero;stroke:none"
   d="m 614.594,105.404 h 3.789 V 80.5988 h 13.629 v -3.1867 h -17.418 v 27.9919" /><path
   inkscape:connector-curvature="0"
   id="path564"
   style="fill:#000000;fill-opacity:1;fill-rule:nonzero;stroke:none"
   d="m 635.969,105.404 h 16.086 v -3.188 h -12.297 v -8.25 h 11.097 V 90.7789 H 639.758 V 77.4121 h -3.789 v 27.9919" /><path
   inkscape:connector-curvature="0"
   id="path566"
   style="fill:#000000;fill-opacity:1;fill-rule:nonzero;stroke:none"
   d="m 669.906,92.5059 c 1.813,-0.3911 3.227,-1.1957 4.239,-2.4219 1.023,-1.2231 1.535,-2.7352 1.535,-4.5352 0,-2.7617 -0.95,-4.9027 -2.848,-6.4148 -1.902,-1.511 -4.602,-2.2692 -8.102,-2.2692 -1.175,0 -2.386,0.1211 -3.636,0.359 -1.239,0.2231 -2.52,0.5672 -3.844,1.0321 v 3.6562 c 1.051,-0.6133 2.199,-1.0781 3.449,-1.391 1.25,-0.3121 2.559,-0.4691 3.918,-0.4691 2.375,0 4.184,0.4691 5.422,1.407 1.25,0.9371 1.875,2.3 1.875,4.0898 0,1.6481 -0.582,2.9371 -1.746,3.8633 -1.148,0.9367 -2.754,1.4059 -4.816,1.4059 h -3.266 v 3.109 h 3.414 c 1.863,0 3.289,0.3718 4.273,1.1101 0.989,0.75 1.485,1.8238 1.485,3.2219 0,1.4379 -0.516,2.54 -1.539,3.301 -1.012,0.774 -2.469,1.164 -4.367,1.164 -1.04,0 -2.153,-0.113 -3.34,-0.34 -1.188,-0.222 -2.492,-0.574 -3.918,-1.05 v 3.375 c 1.437,0.402 2.781,0.703 4.031,0.902 1.262,0.199 2.449,0.301 3.563,0.301 2.874,0 5.148,-0.656 6.824,-1.969 1.676,-1.301 2.511,-3.062 2.511,-5.2891 0,-1.5508 -0.441,-2.8629 -1.328,-3.9379 -0.89,-1.0621 -2.152,-1.8 -3.789,-2.2101" /><path
   inkscape:connector-curvature="0"
   id="path568"
   style="fill:#000000;fill-opacity:1;fill-rule:nonzero;stroke:none"
   d="M 686.332,102.291 V 80.5211 h 4.574 c 3.864,0 6.688,0.875 8.477,2.625 1.797,1.75 2.699,4.516 2.699,8.2891 0,3.75 -0.902,6.4918 -2.699,8.2308 -1.789,1.75 -4.613,2.625 -8.477,2.625 h -4.574 m -3.789,3.113 h 7.781 c 5.426,0 9.406,-1.133 11.946,-3.395 2.535,-2.25 3.804,-5.7731 3.804,-10.5738 0,-4.8243 -1.273,-8.3672 -3.824,-10.6332 -2.551,-2.261 -6.523,-3.3899 -11.926,-3.3899 h -7.781 v 27.9919" /><path
   inkscape:connector-curvature="0"
   id="path570"
   style="fill:#000000;fill-opacity:1;fill-rule:nonzero;stroke:none"
   d="m 712.43,77.4121 h 3.95703 v 4.76172 H 712.43 Z" /><path
   inkscape:connector-curvature="0"
   id="path572"
   style="fill:#000000;fill-opacity:1;fill-rule:nonzero;stroke:none"
   d="m 724.32,105.404 h 17.7 v -3.188 h -13.915 v -8.289 h 13.333 v -3.1872 h -13.333 v -10.141 h 14.25 V 77.4121 H 724.32 v 27.9919" /><path
   inkscape:connector-curvature="0"
   id="path574"
   style="fill:#000000;fill-opacity:1;fill-rule:nonzero;stroke:none"
   d="m 747.27,105.404 h 4.066 l 6.957,-10.406 6.996,10.406 h 4.066 l -9,-13.445 9.602,-14.5469 h -4.07 l -7.875,11.9059 -7.93,-11.9059 h -4.09 l 9.996,14.941 -8.718,13.0509" /><path
   inkscape:connector-curvature="0"
   id="path576"
   style="fill:#000000;fill-opacity:1;fill-rule:nonzero;stroke:none"
   d="m 774.945,105.404 h 17.7 v -3.188 H 778.73 v -8.289 h 13.332 V 90.7398 H 778.73 v -10.141 h 14.25 v -3.1867 h -18.035 v 27.9919" /><path
   inkscape:connector-curvature="0"
   id="path578"
   style="fill:none;stroke:#000000;stroke-width:2.4;stroke-linecap:butt;stroke-linejoin:miter;stroke-miterlimit:4;stroke-dasharray:none;stroke-opacity:1"
   d="M 251.82373,88.681566 452.8602,88.611334" /><path
   inkscape:connector-curvature="0"
   id="path580"
   style="fill:#000000;fill-opacity:1;fill-rule:evenodd;stroke:none"
   d="m 463.801,88.607 -16.406,-9.473 0.007,18.957 z" /><path
   inkscape:connector-curvature="0"
   id="path582"
   style="fill:none;stroke:#000000;stroke-width:2.36987;stroke-linecap:butt;stroke-linejoin:miter;stroke-miterlimit:4;stroke-dasharray:none;stroke-opacity:1"
   d="m 463.801,88.6074 -16.407,-9.4726 0.008,18.957 z" /><g
   id="g4388"
   transform="translate(19.2)"><path
     d="m 665.789,595.81 h 3.15586 v 23.3277 H 665.789 Z"
     style="fill:#000000;fill-opacity:1;fill-rule:nonzero;stroke:none"
     id="path584"
     inkscape:connector-curvature="0" /><path
     d="m 691.133,599.138 v 6.266 h -5.156 v 2.594 h 8.281 v -10.016 c -1.219,-0.863 -2.563,-1.519 -4.031,-1.969 -1.469,-0.437 -3.036,-0.656 -4.704,-0.656 -3.644,0 -6.5,1.063 -8.562,3.188 -2.051,2.136 -3.078,5.105 -3.078,8.906 0,3.812 1.027,6.781 3.078,8.906 2.062,2.137 4.918,3.203 8.562,3.203 1.524,0 2.965,-0.187 4.329,-0.562 1.375,-0.375 2.64,-0.926 3.796,-1.657 v -3.359 c -1.164,0.988 -2.406,1.734 -3.718,2.234 -1.313,0.5 -2.692,0.75 -4.141,0.75 -2.851,0 -5,-0.796 -6.437,-2.39 -1.426,-1.594 -2.141,-3.969 -2.141,-7.125 0,-3.145 0.715,-5.516 2.141,-7.11 1.437,-1.593 3.586,-2.39 6.437,-2.39 1.117,0 2.109,0.094 2.984,0.281 0.875,0.199 1.665,0.5 2.36,0.906"
     style="fill:#000000;fill-opacity:1;fill-rule:nonzero;stroke:none"
     id="path586"
     inkscape:connector-curvature="0" /><path
     d="m 711.102,606.748 c 0.679,-0.231 1.336,-0.719 1.968,-1.469 0.649,-0.75 1.293,-1.781 1.938,-3.094 l 3.203,-6.375 h -3.391 l -2.984,5.985 c -0.77,1.562 -1.52,2.597 -2.25,3.109 -0.719,0.512 -1.703,0.766 -2.953,0.766 h -3.438 v -9.86 h -3.156 v 23.328 h 7.125 c 2.668,0 4.656,-0.558 5.969,-1.672 1.312,-1.113 1.969,-2.796 1.969,-5.046 0,-1.469 -0.344,-2.688 -1.032,-3.657 -0.675,-0.968 -1.664,-1.64 -2.968,-2.015 m -7.907,9.797 v -8.282 h 3.969 c 1.524,0 2.668,0.348 3.438,1.047 0.781,0.707 1.171,1.746 1.171,3.11 0,1.363 -0.39,2.39 -1.171,3.078 -0.77,0.699 -1.914,1.047 -3.438,1.047 h -3.969"
     style="fill:#000000;fill-opacity:1;fill-rule:nonzero;stroke:none"
     id="path588"
     inkscape:connector-curvature="0" /><path
     d="m 728.773,616.029 -4.281,-11.609 h 8.578 l -4.297,11.609 m -1.781,3.109 h 3.578 l 8.891,-23.328 h -3.281 l -2.125,5.985 h -10.516 l -2.125,-5.985 h -3.328 l 8.906,23.328"
     style="fill:#000000;fill-opacity:1;fill-rule:nonzero;stroke:none"
     id="path590"
     inkscape:connector-curvature="0" /><path
     d="m 746.008,606.951 v -8.547 h 5.062 c 1.7,0 2.953,0.348 3.766,1.047 0.824,0.707 1.234,1.785 1.234,3.234 0,1.457 -0.41,2.531 -1.234,3.219 -0.813,0.699 -2.066,1.047 -3.766,1.047 h -5.062 m 0,9.594 v -7.032 h 4.672 c 1.543,0 2.687,0.286 3.437,0.86 0.762,0.582 1.141,1.468 1.141,2.656 0,1.176 -0.379,2.059 -1.141,2.641 -0.75,0.582 -1.894,0.875 -3.437,0.875 h -4.672 m -3.156,2.593 h 8.062 c 2.406,0 4.262,-0.5 5.563,-1.5 1.304,-1 1.953,-2.422 1.953,-4.265 0,-1.426 -0.332,-2.563 -1,-3.407 -0.664,-0.843 -1.645,-1.371 -2.938,-1.578 1.555,-0.332 2.758,-1.031 3.61,-2.093 0.867,-1.051 1.296,-2.371 1.296,-3.954 0,-2.082 -0.707,-3.691 -2.125,-4.828 -1.414,-1.136 -3.429,-1.703 -6.046,-1.703 h -8.375 v 23.328"
     style="fill:#000000;fill-opacity:1;fill-rule:nonzero;stroke:none"
     id="path592"
     inkscape:connector-curvature="0" /></g><path
   inkscape:connector-curvature="0"
   id="path600"
   style="fill:none;stroke:#000000;stroke-width:2.4;stroke-linecap:butt;stroke-linejoin:miter;stroke-miterlimit:4;stroke-dasharray:none;stroke-opacity:1"
   d="M 246.648,607.009 H 557.051" /><path
   inkscape:connector-curvature="0"
   id="path602"
   style="fill:#000000;fill-opacity:1;fill-rule:evenodd;stroke:none"
   d="m 568.129,607.009 -16.609,-9.597 v 19.199 z" /><path
   inkscape:connector-curvature="0"
   id="path604"
   style="fill:none;stroke:#000000;stroke-width:2.4;stroke-linecap:butt;stroke-linejoin:miter;stroke-miterlimit:4;stroke-dasharray:none;stroke-opacity:1"
   d="m 568.129,607.009 -16.609,-9.598 v 19.2 z" /><path
   inkscape:connector-curvature="0"
   id="path646"
   style="fill:none;stroke:#000000;stroke-width:2.4;stroke-linecap:butt;stroke-linejoin:miter;stroke-miterlimit:4;stroke-dasharray:none;stroke-opacity:1"
   d="M 809.852,536.611 V 346.209" /><path
   inkscape:connector-curvature="0"
   id="path648"
   style="fill:#000000;fill-opacity:1;fill-rule:evenodd;stroke:none"
   d="m 809.852,335.131 -9.602,16.609 h 19.199 z" /><path
   inkscape:connector-curvature="0"
   id="path650"
   style="fill:none;stroke:#000000;stroke-width:2.4;stroke-linecap:butt;stroke-linejoin:miter;stroke-miterlimit:4;stroke-dasharray:none;stroke-opacity:1"
   d="m 809.852,335.13 -9.602,16.609 h 19.199 z" /><path
   inkscape:connector-curvature="0"
   id="path652"
   style="fill:none;stroke:#000000;stroke-width:2.4;stroke-linecap:butt;stroke-linejoin:miter;stroke-miterlimit:4;stroke-dasharray:none;stroke-opacity:1"
   d="M 806.648,431.009 H 67.4488 v -88" /><path
   inkscape:connector-curvature="0"
   id="path654"
   style="fill:#000000;fill-opacity:1;fill-rule:evenodd;stroke:none"
   d="m 67.4488,331.931 -9.5968,16.61 h 19.1992 z" /><path
   inkscape:connector-curvature="0"
   id="path656"
   style="fill:none;stroke:#000000;stroke-width:2.4;stroke-linecap:butt;stroke-linejoin:miter;stroke-miterlimit:4;stroke-dasharray:none;stroke-opacity:1"
   d="M 67.4488,331.932 57.852,348.541 H 77.0512 Z" /><path
   inkscape:connector-curvature="0"
   id="path658"
   style="fill:none;stroke:#000000;stroke-width:2.4;stroke-linecap:butt;stroke-linejoin:miter;stroke-miterlimit:4;stroke-dasharray:none;stroke-opacity:1"
   d="m 187.449,429.411 v -84.8" /><path
   inkscape:connector-curvature="0"
   id="path660"
   style="fill:#000000;fill-opacity:1;fill-rule:evenodd;stroke:none"
   d="m 187.449,333.533 -9.597,16.605 h 19.199 z" /><path
   inkscape:connector-curvature="0"
   id="path662"
   style="fill:none;stroke:#000000;stroke-width:2.4;stroke-linecap:butt;stroke-linejoin:miter;stroke-miterlimit:4;stroke-dasharray:none;stroke-opacity:1"
   d="m 187.449,333.532 -9.597,16.606 h 19.199 z" /><path
   inkscape:connector-curvature="0"
   id="path664"
   style="fill:none;stroke:#000000;stroke-width:2.4;stroke-linecap:butt;stroke-linejoin:miter;stroke-miterlimit:4;stroke-dasharray:none;stroke-opacity:1"
   d="M 518.648,431.009 V 347.811" /><path
   inkscape:connector-curvature="0"
   id="path666"
   style="fill:#000000;fill-opacity:1;fill-rule:evenodd;stroke:none"
   d="m 518.648,336.732 -9.597,16.609 h 19.199 z" /><path
   inkscape:connector-curvature="0"
   id="path668"
   style="fill:none;stroke:#000000;stroke-width:2.4;stroke-linecap:butt;stroke-linejoin:miter;stroke-miterlimit:4;stroke-dasharray:none;stroke-opacity:1"
   d="m 518.648,336.732 -9.597,16.609 h 19.199 z" /><path
   inkscape:connector-curvature="0"
   id="path670"
   style="fill:none;stroke:#000000;stroke-width:2.4;stroke-linecap:butt;stroke-linejoin:miter;stroke-miterlimit:4;stroke-dasharray:none;stroke-opacity:1"
   d="m 667.449,431.411 v -84" /><path
   inkscape:connector-curvature="0"
   id="path672"
   style="fill:#000000;fill-opacity:1;fill-rule:evenodd;stroke:none"
   d="m 667.449,336.334 -9.597,16.605 h 19.199 z" /><path
   inkscape:connector-curvature="0"
   id="path674"
   style="fill:none;stroke:#000000;stroke-width:2.4;stroke-linecap:butt;stroke-linejoin:miter;stroke-miterlimit:4;stroke-dasharray:none;stroke-opacity:1"
   d="m 667.449,336.334 -9.597,16.605 h 19.199 z" /><text
   xml:space="preserve"
   style="font-style:normal;font-weight:normal;line-height:0%;font-family:sans-serif;letter-spacing:0px;word-spacing:0px;fill:#000000;fill-opacity:1;stroke:none;stroke-width:1px;stroke-linecap:butt;stroke-linejoin:miter;stroke-opacity:1"
   x="25.434324"
   y="-507.23306"
   id="text4386"
   transform="scale(1,-1)"><tspan
     sodipodi:role="line"
     id="tspan4388"
     x="25.434324"
     y="-507.23306"
     style="font-size:25px;line-height:1.25">Graphic assets (ILBMs)</tspan></text>
<text
   xml:space="preserve"
   style="font-size:26.1354px;line-height:1.25;font-family:Novarese;-inkscape-font-specification:Novarese;stroke-width:0.816735"
   x="645.75311"
   y="-178.6035"
   id="text5871"
   transform="scale(0.94651688,-1.0565052)"><tspan
     sodipodi:role="line"
     id="tspan5869"
     style="font-style:normal;font-variant:normal;font-weight:normal;font-stretch:normal;font-family:Verdana;-inkscape-font-specification:Verdana;stroke-width:0.816735"
     x="645.75311"
     y="-178.6035">VGAGRAPH</tspan></text><text
   xml:space="preserve"
   style="font-size:26.1354px;line-height:1.25;font-family:Novarese;-inkscape-font-specification:Novarese;stroke-width:0.816735"
   x="488.12302"
   y="-178.60352"
   id="text19061"
   transform="scale(0.94651688,-1.0565052)"><tspan
     sodipodi:role="line"
     id="tspan19059"
     style="font-style:normal;font-variant:normal;font-weight:normal;font-stretch:normal;font-family:Verdana;-inkscape-font-specification:Verdana;stroke-width:0.816735"
     x="488.12302"
     y="-178.60352">VGAHEAD</tspan></text><text
   xml:space="preserve"
   style="font-size:26.1354px;line-height:1.25;font-family:Novarese;-inkscape-font-specification:Novarese;stroke-width:0.816735"
   x="812.02051"
   y="-178.60352"
   id="text19065"
   transform="scale(0.94651688,-1.0565052)"><tspan
     sodipodi:role="line"
     id="tspan19063"
     style="font-style:normal;font-variant:normal;font-weight:normal;font-stretch:normal;font-family:Verdana;-inkscape-font-specification:Verdana;stroke-width:0.816735"
     x="812.02051"
     y="-178.60352">VGADICT</tspan></text></g></svg>
