<?xml version="1.0" encoding="UTF-8" standalone="no"?>
<!-- Created with Inkscape (http://www.inkscape.org/) -->

<svg
   xmlns:dc="http://purl.org/dc/elements/1.1/"
   xmlns:cc="http://creativecommons.org/ns#"
   xmlns:rdf="http://www.w3.org/1999/02/22-rdf-syntax-ns#"
   xmlns:svg="http://www.w3.org/2000/svg"
   xmlns="http://www.w3.org/2000/svg"
   xmlns:sodipodi="http://sodipodi.sourceforge.net/DTD/sodipodi-0.dtd"
   xmlns:inkscape="http://www.inkscape.org/namespaces/inkscape"
   id="svg2"
   version="1.1"
   inkscape:version="0.91 r13725"
   xml:space="preserve"
   width="638.75"
   height="191.25"
   viewBox="0 0 638.75 191.25"
   sodipodi:docname="floating_point_window.svg"><metadata
     id="metadata8"><rdf:RDF><cc:Work
         rdf:about=""><dc:format>image/svg+xml</dc:format><dc:type
           rdf:resource="http://purl.org/dc/dcmitype/StillImage" /><dc:title></dc:title></cc:Work></rdf:RDF></metadata><defs
     id="defs6"><clipPath
       clipPathUnits="userSpaceOnUse"
       id="clipPath18"><path
         d="m 0,5.62891 5110,0 0,1519.99999 -5110,0 L 0,5.62891 Z"
         id="path20"
         inkscape:connector-curvature="0" /></clipPath></defs><sodipodi:namedview
     pagecolor="#ffffff"
     bordercolor="#666666"
     borderopacity="1"
     objecttolerance="10"
     gridtolerance="10"
     guidetolerance="10"
     inkscape:pageopacity="0"
     inkscape:pageshadow="2"
     inkscape:window-width="720"
     inkscape:window-height="480"
     id="namedview4"
     showgrid="false"
     inkscape:zoom="0.55890411"
     inkscape:cx="319.375"
     inkscape:cy="95.625"
     inkscape:window-x="0"
     inkscape:window-y="0"
     inkscape:window-maximized="0"
     inkscape:current-layer="g10" /><g
     id="g10"
     inkscape:groupmode="layer"
     inkscape:label="ink_ext_XXXXXX"
     transform="matrix(1.25,0,0,-1.25,0,191.25)"><g
       id="g12"
       transform="scale(0.1,0.1)"><g
         id="g14"><g
           id="g16"
           clip-path="url(#clipPath18)"><path
             d="m 23.4805,235.711 4989.5695,0"
             style="fill:none;stroke:#000000;stroke-width:15.58129978;stroke-linecap:butt;stroke-linejoin:miter;stroke-miterlimit:4;stroke-dasharray:none;stroke-opacity:1"
             id="path22"
             inkscape:connector-curvature="0" /><path
             d="m 5084.96,235.711 -107.81,-62.352 0,124.692 107.81,-62.34 z"
             style="fill:#000000;fill-opacity:1;fill-rule:evenodd;stroke:none"
             id="path24"
             inkscape:connector-curvature="0" /><path
             d="m 5084.96,235.711 -107.81,-62.352 0,124.692 107.81,-62.34 z"
             style="fill:none;stroke:#000000;stroke-width:15.58129978;stroke-linecap:butt;stroke-linejoin:miter;stroke-miterlimit:4;stroke-dasharray:none;stroke-opacity:1"
             id="path26"
             inkscape:connector-curvature="0" /><path
             d="m 31.5586,291.68 0,-151.91"
             style="fill:none;stroke:#000000;stroke-width:16;stroke-linecap:butt;stroke-linejoin:miter;stroke-miterlimit:4;stroke-dasharray:none;stroke-opacity:1"
             id="path28"
             inkscape:connector-curvature="0" /><g
             id="g30"
             transform="scale(10,10)"><text
               transform="matrix(1,0,0,-1,-0.84375,1.18125)"
               style="font-variant:normal;font-weight:normal;font-size:12.80000019px;font-family:'Bitstream Vera Sans';-inkscape-font-specification:BitstreamVeraSans-Roman;writing-mode:lr-tb;fill:#000000;fill-opacity:1;fill-rule:nonzero;stroke:none"
               id="text32"><tspan
                 x="0"
                 y="0"
                 id="tspan34">0</tspan></text>
</g><path
             d="m 463.359,291.68 0,-151.91"
             style="fill:none;stroke:#000000;stroke-width:16;stroke-linecap:butt;stroke-linejoin:miter;stroke-miterlimit:4;stroke-dasharray:none;stroke-opacity:1"
             id="path36"
             inkscape:connector-curvature="0" /><g
             id="g38"
             transform="scale(10,10)"><text
               transform="matrix(1,0,0,-1,42.3344,1.18125)"
               style="font-variant:normal;font-weight:normal;font-size:12.80000019px;font-family:'Bitstream Vera Sans';-inkscape-font-specification:BitstreamVeraSans-Roman;writing-mode:lr-tb;fill:#000000;fill-opacity:1;fill-rule:nonzero;stroke:none"
               id="text40"><tspan
                 x="0"
                 y="0"
                 id="tspan42">1</tspan></text>
</g><path
             d="m 966.91,291.68 0,-151.91"
             style="fill:none;stroke:#000000;stroke-width:16;stroke-linecap:butt;stroke-linejoin:miter;stroke-miterlimit:4;stroke-dasharray:none;stroke-opacity:1"
             id="path44"
             inkscape:connector-curvature="0" /><g
             id="g46"
             transform="scale(10,10)"><text
               transform="matrix(1,0,0,-1,92.6914,1.18125)"
               style="font-variant:normal;font-weight:normal;font-size:12.80000019px;font-family:'Bitstream Vera Sans';-inkscape-font-specification:BitstreamVeraSans-Roman;writing-mode:lr-tb;fill:#000000;fill-opacity:1;fill-rule:nonzero;stroke:none"
               id="text48"><tspan
                 x="0"
                 y="0"
                 id="tspan50">2</tspan></text>
</g><path
             d="m 2134.49,299.688 0,-151.95"
             style="fill:none;stroke:#000000;stroke-width:16;stroke-linecap:butt;stroke-linejoin:miter;stroke-miterlimit:4;stroke-dasharray:none;stroke-opacity:1"
             id="path52"
             inkscape:connector-curvature="0" /><g
             id="g54"
             transform="scale(10,10)"><text
               transform="matrix(1,0,0,-1,209.45,1.98086)"
               style="font-variant:normal;font-weight:normal;font-size:12.80000019px;font-family:'Bitstream Vera Sans';-inkscape-font-specification:BitstreamVeraSans-Roman;writing-mode:lr-tb;fill:#000000;fill-opacity:1;fill-rule:nonzero;stroke:none"
               id="text56"><tspan
                 x="0"
                 y="0"
                 id="tspan58">4</tspan></text>
</g><path
             d="m 4101.52,307.66 0,-151.91"
             style="fill:none;stroke:#000000;stroke-width:16;stroke-linecap:butt;stroke-linejoin:miter;stroke-miterlimit:4;stroke-dasharray:none;stroke-opacity:1"
             id="path60"
             inkscape:connector-curvature="0" /><g
             id="g62"
             transform="scale(10,10)"><text
               transform="matrix(1,0,0,-1,406.151,2.78047)"
               style="font-variant:normal;font-weight:normal;font-size:12.80000019px;font-family:'Bitstream Vera Sans';-inkscape-font-specification:BitstreamVeraSans-Roman;writing-mode:lr-tb;fill:#000000;fill-opacity:1;fill-rule:nonzero;stroke:none"
               id="text64"><tspan
                 x="0"
                 y="0"
                 id="tspan66">8</tspan></text>
</g><path
             d="m 944.262,1380.08 2282.07,0 0,137.621 -2282.07,0 0,-137.621 z"
             style="fill:none;stroke:#000000;stroke-width:16;stroke-linecap:butt;stroke-linejoin:miter;stroke-miterlimit:4;stroke-dasharray:none;stroke-opacity:1"
             id="path68"
             inkscape:connector-curvature="0" /><path
             d="m 1068.55,1517.7 0,-137.62"
             style="fill:none;stroke:#000000;stroke-width:16;stroke-linecap:butt;stroke-linejoin:miter;stroke-miterlimit:4;stroke-dasharray:none;stroke-opacity:1"
             id="path70"
             inkscape:connector-curvature="0" /><path
             d="m 1796.72,1512.31 0,-124.34 -4.45,0"
             style="fill:none;stroke:#000000;stroke-width:16;stroke-linecap:butt;stroke-linejoin:miter;stroke-miterlimit:4;stroke-dasharray:none;stroke-opacity:1"
             id="path72"
             inkscape:connector-curvature="0" /><path
             d="m 1424.92,1239.89 6.68,-599.531 699.45,0 0,-132.578"
             style="fill:none;stroke:#000000;stroke-width:8;stroke-linecap:butt;stroke-linejoin:miter;stroke-miterlimit:4;stroke-dasharray:none;stroke-opacity:1"
             id="path74"
             inkscape:connector-curvature="0" /><path
             d="m 2131.05,470.859 -31.99,55.36 63.99,0 -32,-55.36 z"
             style="fill:#000000;fill-opacity:1;fill-rule:evenodd;stroke:none"
             id="path76"
             inkscape:connector-curvature="0" /><path
             d="m 2131.05,470.859 -31.99,55.36 63.99,0 -32,-55.36 z"
             style="fill:none;stroke:#000000;stroke-width:8;stroke-linecap:butt;stroke-linejoin:miter;stroke-miterlimit:4;stroke-dasharray:none;stroke-opacity:1"
             id="path78"
             inkscape:connector-curvature="0" /><path
             d="m 1414.06,1287.07 c -0.11,3.05 -0.86,5.51 -2.18,7.39 -1.8,2.46 -4.26,4.33 -7.39,5.58 -3.12,1.29 -7.54,2.03 -13.24,2.31 -2.81,0.08 -9.3,0.15 -19.41,0.23 -10.12,0.08 -281.18,0.63 -285.51,1.6 -4.38,1.02 -7.85,2.58 -10.39,4.65 -2.58,2.11 -4.46,4.77 -5.63,8.01 -0.66,1.95 -1.01,5.08 -1.01,9.38 l 0,4.18 14.45,0 0,-2.31 c 0,-5.23 1.17,-8.71 3.52,-10.39 2.38,-1.68 271.32,-2.5 279.21,-2.5 14.3,0 23.4,-0.16 27.35,-0.51 7.54,-0.66 13.32,-2.11 17.34,-4.37 4.03,-2.31 7.46,-5.86 10.35,-10.75 2.89,5.47 7.23,9.46 13.01,11.92 5.78,2.46 15.27,3.71 28.48,3.71 11.79,0 18.75,0.12 20.9,0.31 3.32,0.28 288.47,0.9 290.27,1.88 1.21,0.7 2.19,1.79 2.89,3.32 0.7,1.52 1.05,4.76 1.05,9.69 l 14.46,0 0,-4.18 c 0,-5 -0.51,-8.64 -1.56,-10.94 -1.53,-3.36 -3.99,-6.02 -7.43,-8.05 -3.39,-2.03 -7.93,-3.32 -13.63,-3.94 -4.06,-0.43 -294.26,-0.67 -305.31,-0.75 -11.25,-0.04 -18.91,-0.54 -22.89,-1.52 -3.99,-0.98 -7.07,-2.62 -9.26,-4.96 -2.15,-2.34 -3.32,-5.35 -3.44,-8.99 l -15,0 z"
             style="fill:#000000;fill-opacity:1;fill-rule:nonzero;stroke:none"
             id="path80"
             inkscape:connector-curvature="0" /><path
             d="m 2512.3,1285.32 c -0.07,3.04 -0.62,5.54 -1.68,7.42 -1.32,2.46 -3.2,4.3 -5.58,5.58 -2.38,1.25 -5.74,2.04 -10.08,2.27 -2.15,0.12 -7.07,0.2 -14.76,0.27 -7.74,0.08 -644.26,0.63 -647.58,1.61 -3.32,1.01 -5.98,2.53 -7.93,4.64 -1.96,2.11 -3.36,4.77 -4.26,8.01 -0.51,1.95 -0.78,5.08 -0.78,9.34 l 0,4.22 11.01,0 0,-2.35 c 0,-5.23 0.9,-8.67 2.7,-10.35 1.8,-1.68 636.72,-2.5 642.77,-2.5 10.86,0 17.78,-0.19 20.78,-0.55 5.75,-0.62 10.16,-2.11 13.21,-4.37 3.04,-2.27 5.66,-5.82 7.89,-10.74 2.19,5.5 5.47,9.49 9.88,11.95 4.41,2.46 11.64,3.71 21.68,3.71 8.98,0 14.26,0.08 15.9,0.31 2.54,0.28 649.84,0.9 651.21,1.84 0.94,0.7 1.64,1.84 2.19,3.36 0.54,1.52 0.82,4.73 0.82,9.69 l 10.97,0 0,-4.22 c 0,-4.96 -0.39,-8.6 -1.17,-10.9 -1.17,-3.36 -3.04,-6.02 -5.66,-8.05 -2.58,-2.03 -6.06,-3.32 -10.39,-3.94 -3.09,-0.43 -654.18,-0.71 -662.62,-0.75 -8.59,-0.03 -14.37,-0.54 -17.42,-1.52 -3.05,-0.98 -5.39,-2.65 -7.03,-5 -1.68,-2.34 -2.54,-5.31 -2.62,-8.98 l -11.45,0 z"
             style="fill:#000000;fill-opacity:1;fill-rule:nonzero;stroke:none"
             id="path82"
             inkscape:connector-curvature="0" /><path
             d="m 2145.23,387.039 1942.15,0"
             style="fill:none;stroke:#000000;stroke-width:8;stroke-linecap:butt;stroke-linejoin:miter;stroke-miterlimit:4;stroke-dasharray:8, 8;stroke-dashoffset:0;stroke-opacity:1"
             id="path84"
             inkscape:connector-curvature="0" /><path
             d="m 2514.45,1187.08 0,-529.771 702.03,0 0,-162.579"
             style="fill:none;stroke:#000000;stroke-width:7.02145004;stroke-linecap:butt;stroke-linejoin:miter;stroke-miterlimit:4;stroke-dasharray:none;stroke-opacity:1"
             id="path86"
             inkscape:connector-curvature="0" /><path
             d="m 3216.48,462.352 -28.08,48.589 56.17,0 -28.09,-48.589 z"
             style="fill:#000000;fill-opacity:1;fill-rule:evenodd;stroke:none"
             id="path88"
             inkscape:connector-curvature="0" /><path
             d="m 3216.48,462.348 -28.08,48.59 56.17,0 -28.09,-48.59 z"
             style="fill:none;stroke:#000000;stroke-width:7.02145004;stroke-linecap:butt;stroke-linejoin:miter;stroke-miterlimit:4;stroke-dasharray:none;stroke-opacity:1"
             id="path90"
             inkscape:connector-curvature="0" /><path
             d="m 2133.91,438.719 0,-101.02"
             style="fill:none;stroke:#000000;stroke-width:8;stroke-linecap:butt;stroke-linejoin:miter;stroke-miterlimit:4;stroke-dasharray:8, 8;stroke-dashoffset:0;stroke-opacity:1"
             id="path92"
             inkscape:connector-curvature="0" /><path
             d="m 4100.86,438.949 0,-107.769"
             style="fill:none;stroke:#000000;stroke-width:8;stroke-linecap:butt;stroke-linejoin:miter;stroke-miterlimit:4;stroke-dasharray:8, 8;stroke-dashoffset:0;stroke-opacity:1"
             id="path94"
             inkscape:connector-curvature="0" /><path
             d="m 3229.26,303.168 0,-151.949"
             style="fill:none;stroke:#000000;stroke-width:16;stroke-linecap:butt;stroke-linejoin:miter;stroke-miterlimit:4;stroke-dasharray:none;stroke-opacity:1"
             id="path96"
             inkscape:connector-curvature="0" /><g
             id="g98"
             transform="scale(10,10)"><text
               transform="matrix(1,0,0,-1,317.884,3.71875)"
               style="font-variant:normal;font-weight:normal;font-size:12.80000019px;font-family:'Bitstream Vera Sans';-inkscape-font-specification:BitstreamVeraSans-Roman;writing-mode:lr-tb;fill:#000000;fill-opacity:1;fill-rule:nonzero;stroke:none"
               id="text100"><tspan
                 x="0 8.1408005 12.2112"
                 y="0"
                 sodipodi:role="line"
                 id="tspan102">6.1</tspan></text>
</g></g></g></g></g></svg>