<?xml version="1.0" encoding="UTF-8" standalone="no"?>
<!-- Created with Inkscape (http://www.inkscape.org/) -->

<svg
   xmlns:dc="http://purl.org/dc/elements/1.1/"
   xmlns:cc="http://creativecommons.org/ns#"
   xmlns:rdf="http://www.w3.org/1999/02/22-rdf-syntax-ns#"
   xmlns:svg="http://www.w3.org/2000/svg"
   xmlns="http://www.w3.org/2000/svg"
   xmlns:sodipodi="http://sodipodi.sourceforge.net/DTD/sodipodi-0.dtd"
   xmlns:inkscape="http://www.inkscape.org/namespaces/inkscape"
   id="svg2"
   version="1.1"
   inkscape:version="0.91 r13725"
   xml:space="preserve"
   width="638.75"
   height="193.75"
   viewBox="0 0 638.75 193.75"
   sodipodi:docname="floating_point_window_pi.svg"><metadata
     id="metadata8"><rdf:RDF><cc:Work
         rdf:about=""><dc:format>image/svg+xml</dc:format><dc:type
           rdf:resource="http://purl.org/dc/dcmitype/StillImage" /><dc:title></dc:title></cc:Work></rdf:RDF></metadata><defs
     id="defs6"><clipPath
       clipPathUnits="userSpaceOnUse"
       id="clipPath18"><path
         d="m 0,9.96094 5110,0 0,1539.99996 -5110,0 L 0,9.96094 Z"
         id="path20"
         inkscape:connector-curvature="0" /></clipPath></defs><sodipodi:namedview
     pagecolor="#ffffff"
     bordercolor="#666666"
     borderopacity="1"
     objecttolerance="10"
     gridtolerance="10"
     guidetolerance="10"
     inkscape:pageopacity="0"
     inkscape:pageshadow="2"
     inkscape:window-width="720"
     inkscape:window-height="480"
     id="namedview4"
     showgrid="false"
     inkscape:zoom="0.55890411"
     inkscape:cx="319.375"
     inkscape:cy="96.875"
     inkscape:window-x="0"
     inkscape:window-y="0"
     inkscape:window-maximized="0"
     inkscape:current-layer="g10" /><g
     id="g10"
     inkscape:groupmode="layer"
     inkscape:label="ink_ext_XXXXXX"
     transform="matrix(1.25,0,0,-1.25,0,193.75)"><g
       id="g12"
       transform="scale(0.1,0.1)"><g
         id="g14"><g
           id="g16"
           clip-path="url(#clipPath18)"><path
             d="m 23.4805,235.699 4989.5695,0"
             style="fill:none;stroke:#000000;stroke-width:15.58129978;stroke-linecap:butt;stroke-linejoin:miter;stroke-miterlimit:4;stroke-dasharray:none;stroke-opacity:1"
             id="path22"
             inkscape:connector-curvature="0" /><path
             d="m 5084.96,235.699 -107.81,-62.301 0,124.641 107.81,-62.34 z"
             style="fill:#000000;fill-opacity:1;fill-rule:evenodd;stroke:none"
             id="path24"
             inkscape:connector-curvature="0" /><path
             d="m 5084.96,235.699 -107.81,-62.301 0,124.649 107.81,-62.348 z"
             style="fill:none;stroke:#000000;stroke-width:15.58129978;stroke-linecap:butt;stroke-linejoin:miter;stroke-miterlimit:4;stroke-dasharray:none;stroke-opacity:1"
             id="path26"
             inkscape:connector-curvature="0" /><path
             d="m 31.5586,291.676 0,-151.918"
             style="fill:none;stroke:#000000;stroke-width:16;stroke-linecap:butt;stroke-linejoin:miter;stroke-miterlimit:4;stroke-dasharray:none;stroke-opacity:1"
             id="path28"
             inkscape:connector-curvature="0" /><g
             id="g30"
             transform="scale(10,10)"><text
               transform="matrix(1,0,0,-1,-0.84375,1.18125)"
               style="font-variant:normal;font-weight:normal;font-size:12.80000019px;font-family:'Bitstream Vera Sans';-inkscape-font-specification:BitstreamVeraSans-Roman;writing-mode:lr-tb;fill:#000000;fill-opacity:1;fill-rule:nonzero;stroke:none"
               id="text32"><tspan
                 x="0"
                 y="0"
                 id="tspan34">0</tspan></text>
</g><path
             d="m 463.359,291.676 0,-151.918"
             style="fill:none;stroke:#000000;stroke-width:16;stroke-linecap:butt;stroke-linejoin:miter;stroke-miterlimit:4;stroke-dasharray:none;stroke-opacity:1"
             id="path36"
             inkscape:connector-curvature="0" /><g
             id="g38"
             transform="scale(10,10)"><text
               transform="matrix(1,0,0,-1,42.3344,1.18125)"
               style="font-variant:normal;font-weight:normal;font-size:12.80000019px;font-family:'Bitstream Vera Sans';-inkscape-font-specification:BitstreamVeraSans-Roman;writing-mode:lr-tb;fill:#000000;fill-opacity:1;fill-rule:nonzero;stroke:none"
               id="text40"><tspan
                 x="0"
                 y="0"
                 id="tspan42">1</tspan></text>
</g><path
             d="m 966.91,291.676 0,-151.918"
             style="fill:none;stroke:#000000;stroke-width:16;stroke-linecap:butt;stroke-linejoin:miter;stroke-miterlimit:4;stroke-dasharray:none;stroke-opacity:1"
             id="path44"
             inkscape:connector-curvature="0" /><g
             id="g46"
             transform="scale(10,10)"><text
               transform="matrix(1,0,0,-1,92.6914,1.18125)"
               style="font-variant:normal;font-weight:normal;font-size:12.80000019px;font-family:'Bitstream Vera Sans';-inkscape-font-specification:BitstreamVeraSans-Roman;writing-mode:lr-tb;fill:#000000;fill-opacity:1;fill-rule:nonzero;stroke:none"
               id="text48"><tspan
                 x="0"
                 y="0"
                 id="tspan50">2</tspan></text>
</g><path
             d="m 2134.49,299.688 0,-151.918"
             style="fill:none;stroke:#000000;stroke-width:16;stroke-linecap:butt;stroke-linejoin:miter;stroke-miterlimit:4;stroke-dasharray:none;stroke-opacity:1"
             id="path52"
             inkscape:connector-curvature="0" /><g
             id="g54"
             transform="scale(10,10)"><text
               transform="matrix(1,0,0,-1,209.45,1.98086)"
               style="font-variant:normal;font-weight:normal;font-size:12.80000019px;font-family:'Bitstream Vera Sans';-inkscape-font-specification:BitstreamVeraSans-Roman;writing-mode:lr-tb;fill:#000000;fill-opacity:1;fill-rule:nonzero;stroke:none"
               id="text56"><tspan
                 x="0"
                 y="0"
                 id="tspan58">4</tspan></text>
</g><path
             d="m 4101.52,307.656 0,-151.918"
             style="fill:none;stroke:#000000;stroke-width:16;stroke-linecap:butt;stroke-linejoin:miter;stroke-miterlimit:4;stroke-dasharray:none;stroke-opacity:1"
             id="path60"
             inkscape:connector-curvature="0" /><g
             id="g62"
             transform="scale(10,10)"><text
               transform="matrix(1,0,0,-1,406.151,2.78047)"
               style="font-variant:normal;font-weight:normal;font-size:12.80000019px;font-family:'Bitstream Vera Sans';-inkscape-font-specification:BitstreamVeraSans-Roman;writing-mode:lr-tb;fill:#000000;fill-opacity:1;fill-rule:nonzero;stroke:none"
               id="text64"><tspan
                 x="0"
                 y="0"
                 id="tspan66">8</tspan></text>
</g><path
             d="m 1542.03,1404.41 2282.07,0 0,137.621 -2282.07,0 0,-137.621 z"
             style="fill:none;stroke:#000000;stroke-width:16;stroke-linecap:butt;stroke-linejoin:miter;stroke-miterlimit:4;stroke-dasharray:none;stroke-opacity:1"
             id="path68"
             inkscape:connector-curvature="0" /><path
             d="m 1666.37,1542.03 0,-137.62"
             style="fill:none;stroke:#000000;stroke-width:16;stroke-linecap:butt;stroke-linejoin:miter;stroke-miterlimit:4;stroke-dasharray:none;stroke-opacity:1"
             id="path70"
             inkscape:connector-curvature="0" /><path
             d="m 2394.49,1536.64 0,-124.34 -4.45,0"
             style="fill:none;stroke:#000000;stroke-width:16;stroke-linecap:butt;stroke-linejoin:miter;stroke-miterlimit:4;stroke-dasharray:none;stroke-opacity:1"
             id="path72"
             inkscape:connector-curvature="0" /><path
             d="m 2011.84,1311.4 c -0.12,3.05 -0.86,5.51 -2.19,7.39 -1.8,2.46 -4.26,4.33 -7.38,5.58 -3.13,1.29 -7.54,2.03 -13.25,2.31 -2.81,0.07 -9.29,0.15 -19.41,0.23 -10.12,0.08 -281.17,0.63 -285.51,1.6 -4.37,1.02 -7.81,2.58 -10.39,4.65 -2.58,2.11 -4.45,4.77 -5.62,8.01 -0.67,1.95 -1.02,5.08 -1.02,9.37 l 0,4.18 14.45,0 0,-2.3 c 0,-5.24 1.18,-8.71 3.56,-10.39 2.34,-1.68 271.29,-2.5 279.18,-2.5 14.29,0 23.4,-0.16 27.34,-0.51 7.54,-0.66 13.32,-2.11 17.35,-4.37 4.02,-2.31 7.46,-5.86 10.35,-10.75 2.89,5.47 7.22,9.46 13,11.92 5.82,2.46 15.32,3.71 28.48,3.71 11.8,0 18.75,0.12 20.9,0.31 3.32,0.27 288.52,0.9 290.27,1.88 1.25,0.7 2.19,1.79 2.89,3.32 0.71,1.52 1.06,4.76 1.06,9.68 l 14.45,0 0,-4.18 c 0,-5 -0.51,-8.63 -1.56,-10.93 -1.52,-3.36 -3.99,-6.02 -7.38,-8.05 -3.44,-2.03 -7.97,-3.32 -13.68,-3.95 -4.06,-0.43 -294.25,-0.66 -305.27,-0.74 -11.29,-0.04 -18.94,-0.55 -22.93,-1.52 -3.98,-0.98 -7.07,-2.62 -9.26,-4.96 -2.15,-2.35 -3.32,-5.35 -3.43,-8.99 l -15,0 z"
             style="fill:#000000;fill-opacity:1;fill-rule:nonzero;stroke:none"
             id="path74"
             inkscape:connector-curvature="0" /><path
             d="m 3110.08,1309.65 c -0.08,3.04 -0.63,5.54 -1.68,7.42 -1.33,2.46 -3.2,4.29 -5.59,5.58 -2.38,1.25 -5.74,2.03 -10.08,2.27 -2.14,0.12 -7.07,0.19 -14.76,0.27 -7.74,0.08 -644.26,0.63 -647.58,1.6 -3.32,1.02 -5.98,2.54 -7.93,4.65 -1.95,2.11 -3.36,4.77 -4.26,8.01 -0.5,1.95 -0.78,5.08 -0.78,9.34 l 0,4.21 11.02,0 0,-2.34 c 0,-5.23 0.9,-8.67 2.69,-10.35 1.8,-1.68 636.72,-2.5 642.78,-2.5 10.86,0 17.81,-0.2 20.78,-0.55 5.74,-0.62 10.15,-2.11 13.2,-4.37 3.05,-2.27 5.7,-5.82 7.89,-10.74 2.19,5.5 5.47,9.49 9.88,11.95 4.42,2.46 11.64,3.71 21.68,3.71 8.99,0 14.26,0.08 15.9,0.31 2.54,0.28 649.85,0.9 651.21,1.84 0.94,0.7 1.68,1.83 2.19,3.36 0.55,1.52 0.82,4.72 0.82,9.68 l 10.98,0 0,-4.21 c 0,-4.97 -0.39,-8.6 -1.17,-10.9 -1.18,-3.36 -3.05,-6.02 -5.63,-8.05 -2.62,-2.03 -6.09,-3.32 -10.43,-3.94 -3.09,-0.43 -654.18,-0.71 -662.62,-0.75 -8.55,-0.04 -14.37,-0.54 -17.42,-1.52 -3.05,-0.98 -5.39,-2.66 -7.03,-5 -1.64,-2.34 -2.54,-5.31 -2.62,-8.98 l -11.44,0 z"
             style="fill:#000000;fill-opacity:1;fill-rule:nonzero;stroke:none"
             id="path76"
             inkscape:connector-curvature="0" /><path
             d="m 977.5,400.938 1156.68,0"
             style="fill:none;stroke:#000000;stroke-width:8;stroke-linecap:butt;stroke-linejoin:miter;stroke-miterlimit:4;stroke-dasharray:8, 8;stroke-dashoffset:0;stroke-opacity:1"
             id="path78"
             inkscape:connector-curvature="0" /><path
             d="m 966.129,452.617 0,-101.019"
             style="fill:none;stroke:#000000;stroke-width:8;stroke-linecap:butt;stroke-linejoin:miter;stroke-miterlimit:4;stroke-dasharray:8, 8;stroke-dashoffset:0;stroke-opacity:1"
             id="path80"
             inkscape:connector-curvature="0" /><path
             d="m 2137.23,452.848 0,-107.731"
             style="fill:none;stroke:#000000;stroke-width:8;stroke-linecap:butt;stroke-linejoin:miter;stroke-miterlimit:4;stroke-dasharray:8, 8;stroke-dashoffset:0;stroke-opacity:1"
             id="path82"
             inkscape:connector-curvature="0" /><path
             d="m 1620.16,292.727 0,-151.911"
             style="fill:none;stroke:#000000;stroke-width:16;stroke-linecap:butt;stroke-linejoin:miter;stroke-miterlimit:4;stroke-dasharray:none;stroke-opacity:1"
             id="path84"
             inkscape:connector-curvature="0" /><g
             id="g86"
             transform="scale(10,10)"><text
               transform="matrix(1,0,0,-1,156.971,2.67578)"
               style="font-variant:normal;font-weight:normal;font-size:12.80000019px;font-family:'Bitstream Vera Sans';-inkscape-font-specification:BitstreamVeraSans-Roman;writing-mode:lr-tb;fill:#000000;fill-opacity:1;fill-rule:nonzero;stroke:none"
               id="text88"><tspan
                 x="0 8.1408005 12.224091 20.364891"
                 y="0"
                 sodipodi:role="line"
                 id="tspan90">3.14</tspan></text>
</g><path
             d="m 2020.94,1271.37 -6.96,-432.503 -1040.031,0 -7,-290.668"
             style="fill:none;stroke:#000000;stroke-width:15.97140026;stroke-linecap:butt;stroke-linejoin:miter;stroke-miterlimit:4;stroke-dasharray:none;stroke-opacity:1"
             id="path92"
             inkscape:connector-curvature="0" /><path
             d="m 966.09,511.359 -30.621,56.02 63.871,-1.52 -33.25,-54.5 z"
             style="fill:#000000;fill-opacity:1;fill-rule:evenodd;stroke:none"
             id="path94"
             inkscape:connector-curvature="0" /><path
             d="m 966.098,511.359 -30.629,56.016 63.871,-1.52 -33.242,-54.496 z"
             style="fill:none;stroke:#000000;stroke-width:7.98569012;stroke-linecap:butt;stroke-linejoin:miter;stroke-miterlimit:4;stroke-dasharray:none;stroke-opacity:1"
             id="path96"
             inkscape:connector-curvature="0" /><path
             d="m 3111.64,1260.9 0,-528.283 -1501.41,0 0,-215.469"
             style="fill:none;stroke:#000000;stroke-width:16;stroke-linecap:butt;stroke-linejoin:miter;stroke-miterlimit:4;stroke-dasharray:none;stroke-opacity:1"
             id="path98"
             inkscape:connector-curvature="0" /><path
             d="m 1610.23,480.191 -31.99,55.348 64.03,0 -32.04,-55.348 z"
             style="fill:#000000;fill-opacity:1;fill-rule:evenodd;stroke:none"
             id="path100"
             inkscape:connector-curvature="0" /><path
             d="m 1610.23,480.188 -31.99,55.359 64.03,0 -32.04,-55.359 z"
             style="fill:none;stroke:#000000;stroke-width:8;stroke-linecap:butt;stroke-linejoin:miter;stroke-miterlimit:4;stroke-dasharray:none;stroke-opacity:1"
             id="path102"
             inkscape:connector-curvature="0" /></g></g></g></g></svg>