<?xml version="1.0" encoding="UTF-8" standalone="no"?>
<!-- Created with Inkscape (http://www.inkscape.org/) -->

<svg
   xmlns:dc="http://purl.org/dc/elements/1.1/"
   xmlns:cc="http://creativecommons.org/ns#"
   xmlns:rdf="http://www.w3.org/1999/02/22-rdf-syntax-ns#"
   xmlns:svg="http://www.w3.org/2000/svg"
   xmlns="http://www.w3.org/2000/svg"
   xmlns:sodipodi="http://sodipodi.sourceforge.net/DTD/sodipodi-0.dtd"
   xmlns:inkscape="http://www.inkscape.org/namespaces/inkscape"
   id="svg2"
   version="1.1"
   inkscape:version="0.91 r13725"
   xml:space="preserve"
   width="492.5"
   height="540"
   viewBox="0 0 492.5 540"
   sodipodi:docname="real_mode.svg"><metadata
     id="metadata8"><rdf:RDF><cc:Work
         rdf:about=""><dc:format>image/svg+xml</dc:format><dc:type
           rdf:resource="http://purl.org/dc/dcmitype/StillImage" /><dc:title></dc:title></cc:Work></rdf:RDF></metadata><defs
     id="defs6"><clipPath
       clipPathUnits="userSpaceOnUse"
       id="clipPath18"><path
         d="m 0,5.26172 3940,0 0,4309.99998 -3940,0 L 0,5.26172 Z"
         id="path20"
         inkscape:connector-curvature="0" /></clipPath></defs><sodipodi:namedview
     pagecolor="#ffffff"
     bordercolor="#666666"
     borderopacity="1"
     objecttolerance="10"
     gridtolerance="10"
     guidetolerance="10"
     inkscape:pageopacity="0"
     inkscape:pageshadow="2"
     inkscape:window-width="1192"
     inkscape:window-height="761"
     id="namedview4"
     showgrid="false"
     inkscape:zoom="4.9445096"
     inkscape:cx="40.105663"
     inkscape:cy="25.205213"
     inkscape:window-x="0"
     inkscape:window-y="0"
     inkscape:window-maximized="0"
     inkscape:current-layer="g10" /><g
     id="g10"
     inkscape:groupmode="layer"
     inkscape:label="ink_ext_XXXXXX"
     transform="matrix(1.25,0,0,-1.25,0,540)"><path
       inkscape:connector-curvature="0"
       id="path28"
       style="fill:none;stroke:#000000;stroke-width:1.59404004;stroke-linecap:butt;stroke-linejoin:miter;stroke-miterlimit:10;stroke-dasharray:none;stroke-opacity:1"
       d="m 196.188,2.90117 -141.731,0" /><path
       inkscape:connector-curvature="0"
       id="path30"
       style="fill:none;stroke:#000000;stroke-width:1.59404004;stroke-linecap:butt;stroke-linejoin:miter;stroke-miterlimit:10;stroke-dasharray:none;stroke-opacity:1"
       d="m 196.188,2.90117 0,425.20283" /><path
       inkscape:connector-curvature="0"
       id="path32"
       style="fill:none;stroke:#000000;stroke-width:1.59404004;stroke-linecap:butt;stroke-linejoin:miter;stroke-miterlimit:10;stroke-dasharray:none;stroke-opacity:1"
       d="m 54.457,428.104 141.731,0" /><path
       inkscape:connector-curvature="0"
       id="path34"
       style="fill:none;stroke:#000000;stroke-width:1.59404004;stroke-linecap:butt;stroke-linejoin:miter;stroke-miterlimit:10;stroke-dasharray:none;stroke-opacity:1"
       d="m 54.457,428.104 0,-425.20283" /><path
       inkscape:connector-curvature="0"
       id="path36"
       style="fill:none;stroke:#808080;stroke-width:1.59404004;stroke-linecap:butt;stroke-linejoin:miter;stroke-miterlimit:10;stroke-dasharray:none;stroke-opacity:1"
       d="m 54.457,31.2488 141.731,0" /><text
       transform="scale(1,-1)"
       style="font-variant:normal;font-weight:normal;font-size:11.19999981px;font-family:'Bitstream Vera Sans';-inkscape-font-specification:BitstreamVeraSans-Roman;writing-mode:lr-tb;fill:#000000;fill-opacity:1;fill-rule:nonzero;stroke:none"
       id="text40"
       x="69.798401"
       y="-13.1859"><tspan
         x="69.798401 73.102402 80.214531 84.604927 91.492928 95.916832 100.53136 107.64349 114.75549 118.31709 125.10445 131.99245 138.16377 142.55417 149.40857 154.0231 157.5847 161.98643 168.85204 175.96402 179.07764"
         y="-13.1859"
         sodipodi:role="line"
         id="tspan42">Interrup Vector table</tspan></text>
<path
       inkscape:connector-curvature="0"
       id="path44"
       style="fill:none;stroke:#808080;stroke-width:1.59404004;stroke-linecap:butt;stroke-linejoin:miter;stroke-miterlimit:10;stroke-dasharray:none;stroke-opacity:1"
       d="m 54.457,59.5969 141.731,0" /><path
       inkscape:connector-curvature="0"
       id="path46"
       style="fill:none;stroke:#808080;stroke-width:1.59404004;stroke-linecap:butt;stroke-linejoin:miter;stroke-miterlimit:10;stroke-dasharray:none;stroke-opacity:1"
       d="m 54.457,87.9398 141.731,0" /><path
       inkscape:connector-curvature="0"
       id="path48"
       style="fill:none;stroke:#808080;stroke-width:1.59404004;stroke-linecap:butt;stroke-linejoin:miter;stroke-miterlimit:10;stroke-dasharray:2.98883, 2.98883;stroke-dashoffset:0;stroke-opacity:1"
       d="m 54.457,116.288 141.731,0" /><path
       inkscape:connector-curvature="0"
       id="path50"
       style="fill:none;stroke:#000000;stroke-width:1.59404004;stroke-linecap:butt;stroke-linejoin:miter;stroke-miterlimit:10;stroke-dasharray:none;stroke-opacity:1"
       d="m 54.457,286.37 141.731,0" /><text
       transform="scale(1,-1)"
       style="font-variant:normal;font-weight:normal;font-size:16px;font-family:'Bitstream Vera Sans';-inkscape-font-specification:BitstreamVeraSans-Roman;writing-mode:lr-tb;fill:#000000;fill-opacity:1;fill-rule:nonzero;stroke:none"
       id="text54"
       x="103.041"
       y="-354.853"><tspan
         x="103.041 114.753 128.561"
         y="-354.853"
         sodipodi:role="line"
         id="tspan56">UMA</tspan></text>
<text
       transform="scale(1,-1)"
       style="font-variant:normal;font-weight:normal;font-size:12.80000019px;font-family:'Bitstream Vera Sans';-inkscape-font-specification:BitstreamVeraSans-Roman;writing-mode:lr-tb;fill:#000000;fill-opacity:1;fill-rule:nonzero;stroke:none"
       id="text58"
       x="103.041"
       y="-96.755997"><tspan
         x="103.041 112.897 118.1578 121.7162 129.29379 137.1658 142.42661"
         y="-96.755997"
         sodipodi:role="line"
         id="tspan60">Drivers</tspan></text>
<text
       transform="scale(1,-1)"
       style="font-variant:normal;font-weight:normal;font-size:10.39999962px;font-family:'Bitstream Vera Sans';-inkscape-font-specification:BitstreamVeraSans-Roman;writing-mode:lr-tb;fill:#000000;fill-opacity:1;fill-rule:nonzero;stroke:none"
       id="text62"
       x="59.178501"
       y="-69.9767"><tspan
         x="59.178501 66.44825 74.633049 83.608246 92.593994 99.697044 107.47625 115.48425 118.79144 126.06119 134.246 143.23174 146.53894 155.25414 158.57188 161.63989 169.39813 172.70532 179.30933 185.67427"
         y="-69.9767"
         sodipodi:role="line"
         id="tspan64">COMMAND.COM + IO.SYS</tspan></text>
<text
       transform="scale(1,-1)"
       style="font-variant:normal;font-weight:normal;font-size:12.80000019px;font-family:'Bitstream Vera Sans';-inkscape-font-specification:BitstreamVeraSans-Roman;writing-mode:lr-tb;fill:#000000;fill-opacity:1;fill-rule:nonzero;stroke:none"
       id="text66"
       x="92.883598"
       y="-41.812199"><tspan
         x="92.883598 101.6644 105.4404 115.514 123.642 127.7124 137.56841 145.41479 150.4324"
         y="-41.812199"
         sodipodi:role="line"
         id="tspan68">BIOS Data</tspan><tspan
         x="2.8496034 10.22249 17.595385 24.968271 32.34116 39.71405"
         y="-421.80121"
         sodipodi:role="line"
         id="tspan70">FFFFFh</tspan><tspan
         x="0.079286337 8.8344898 16.97529 25.116091 33.269779 41.41058"
         y="-281.90219"
         sodipodi:role="line"
         id="tspan72">A0000h</tspan><tspan
         x="-0.84414506 7.2966557 15.450342 23.591143 31.744833 39.885632"
         y="-1.1811994"
         sodipodi:role="line"
         id="tspan74">00000h</tspan></text>
<text
       transform="scale(1,-1)"
       style="font-variant:normal;font-weight:normal;font-size:16px;font-family:'Bitstream Vera Sans';-inkscape-font-specification:BitstreamVeraSans-Roman;writing-mode:lr-tb;fill:#000000;fill-opacity:1;fill-rule:nonzero;stroke:none"
       id="text76"
       x="232.32085"
       y="-352.08319"><tspan
         x="232.32085 244.64085 254.48085 263.95285 268.38486 277.20084 287.04086 295.37686 300.48087 316.06485 325.88885 336.04886 346.20886 356.04886 366.20886 371.29684 376.01685 381.42487"
         y="-352.08319"
         sodipodi:role="line"
         id="tspan78">Devices mapped I/O</tspan><tspan
         x="234.16772 245.87973 254.23174 264.03973 274.19974 278.64774 288.48773 293.57571 304.05588 314.98389"
         y="-199.25621"
         sodipodi:role="line"
         id="tspan80">Usable RAM</tspan><tspan
         x="234.16772 244.32773 253.79973 260.07172 269.91174 285.51172 290.59973 301.0799 312.00787"
         y="-52.893196"
         sodipodi:role="line"
         id="tspan82">Sytem RAM</tspan></text>
<path
       inkscape:connector-curvature="0"
       id="path84"
       style="fill:#000000;fill-opacity:1;fill-rule:nonzero;stroke:none"
       d="m 217.93,358.401 c -0.383,0.114 -0.692,0.328 -0.926,0.645 -0.305,0.418 -0.535,0.945 -0.688,1.586 -0.156,0.644 -0.246,1.519 -0.269,2.633 -0.008,0.546 -0.008,1.8 -0.004,3.761 0.008,1.957 0.34,54.383 0.223,55.254 -0.121,0.871 -0.309,1.59 -0.567,2.149 -0.261,0.558 -0.594,1 -0.996,1.32 -0.246,0.187 -0.637,0.348 -1.172,0.473 l -0.527,0.125 -0.024,-2.797 0.293,-0.067 c 0.657,-0.156 1.09,-0.484 1.297,-0.992 0.203,-0.504 -0.09,-52.531 -0.101,-54.062 -0.02,-2.766 -0.012,-4.532 0.027,-5.301 0.07,-1.477 0.246,-2.637 0.524,-3.481 0.277,-0.843 0.722,-1.617 1.332,-2.32 -0.692,-0.394 -1.2,-1.117 -1.516,-2.164 -0.32,-1.047 -0.488,-2.848 -0.508,-5.398 -0.019,-2.278 -0.039,-3.622 -0.07,-4.028 -0.039,-0.633 -0.539,-55.761 -0.66,-56.078 -0.09,-0.215 -0.231,-0.371 -0.422,-0.461 -0.196,-0.094 -0.598,-0.066 -1.219,0.082 l -0.023,-2.797 0.527,-0.121 c 0.625,-0.148 1.082,-0.152 1.375,-0.019 0.418,0.195 0.762,0.593 1.019,1.195 0.258,0.598 0.43,1.441 0.512,2.523 0.063,0.77 0.524,56.879 0.543,59.012 0.024,2.18 0.102,3.641 0.227,4.383 0.129,0.742 0.343,1.289 0.64,1.641 0.297,0.351 0.672,0.488 1.129,0.402 l 0.024,2.902 z" /><path
       inkscape:connector-curvature="0"
       id="path86"
       style="fill:#000000;fill-opacity:1;fill-rule:nonzero;stroke:none"
       d="m 218.633,198.253 c -0.414,-0.024 -0.75,-0.184 -1.008,-0.485 -0.332,-0.394 -0.582,-0.937 -0.758,-1.632 -0.172,-0.696 -0.277,-1.68 -0.312,-2.953 -0.016,-0.625 -0.032,-2.071 -0.043,-4.325 -0.016,-2.254 -0.2,-62.644 -0.336,-63.617 -0.137,-0.969 -0.348,-1.738 -0.633,-2.312 -0.285,-0.571 -0.645,-0.985 -1.086,-1.243 -0.266,-0.148 -0.687,-0.222 -1.269,-0.218 l -0.567,0.004 0.008,3.218 0.312,0 c 0.711,-0.004 1.18,0.254 1.407,0.782 0.226,0.523 0.449,60.445 0.453,62.211 0.004,3.183 0.031,5.21 0.082,6.085 0.09,1.68 0.289,2.969 0.597,3.864 0.309,0.89 0.797,1.656 1.461,2.293 -0.742,0.648 -1.281,1.621 -1.613,2.914 -0.332,1.293 -0.496,3.41 -0.488,6.347 0.004,2.625 -0.008,4.176 -0.035,4.653 -0.039,0.738 -0.008,64.285 -0.137,64.683 -0.094,0.274 -0.242,0.489 -0.449,0.649 -0.207,0.16 -0.645,0.238 -1.313,0.246 l 0.004,3.219 0.57,-0.004 c 0.676,-0.008 1.168,-0.125 1.481,-0.36 0.449,-0.343 0.812,-0.898 1.086,-1.656 0.273,-0.762 0.449,-1.777 0.527,-3.051 0.059,-0.902 -0.023,-65.562 -0.023,-68.019 0.004,-2.516 0.07,-4.219 0.199,-5.11 0.133,-0.886 0.355,-1.574 0.672,-2.062 0.316,-0.488 0.723,-0.746 1.215,-0.777 l -0.004,-3.344 z" /><path
       inkscape:connector-curvature="0"
       id="path88"
       style="fill:#000000;fill-opacity:1;fill-rule:nonzero;stroke:none"
       d="m 219.172,64.952 c -0.406,-0.059 -0.734,-0.0122 -0.988,0.1492 -0.325,0.2097 -0.571,0.5418 -0.743,0.9918 -0.168,0.4531 -0.265,1.1129 -0.296,1.9879 -0.012,0.4339 -0.02,1.43 -0.024,2.9882 -0.008,1.5629 0.055,43.3869 -0.078,44.0319 -0.129,0.648 -0.336,1.144 -0.613,1.488 -0.278,0.344 -0.633,0.562 -1.067,0.66 -0.258,0.051 -0.675,0.023 -1.246,-0.086 l -0.558,-0.109 -0.008,-2.227 0.308,0.059 c 0.7,0.132 1.161,0.039 1.383,-0.282 0.219,-0.32 0.203,-41.8118 0.199,-43.0349 -0.007,-2.207 0.012,-3.605 0.055,-4.2031 0.082,-1.148 0.274,-2.0039 0.574,-2.566 0.305,-0.5629 0.778,-1 1.43,-1.3211 -0.734,-0.5859 -1.266,-1.359 -1.598,-2.316 -0.332,-0.957 -0.504,-2.457 -0.507,-4.4918 -0.008,-1.8172 -0.024,-2.8949 -0.051,-3.2313 C 215.301,52.9211 215.078,8.88203 214.953,8.58516 214.859,8.37813 214.711,8.19805 214.508,8.05 214.305,7.90117 213.871,7.76484 213.215,7.63984 l -0.008,-2.23086 0.559,0.10899 c 0.664,0.125 1.152,0.30117 1.457,0.51992 0.449,0.32422 0.808,0.77305 1.078,1.35195 0.269,0.57813 0.449,1.31211 0.531,2.21133 0.063,0.63593 0.234,45.43283 0.246,47.13983 0.012,1.7418 0.086,2.9379 0.219,3.5738 0.129,0.6411 0.351,1.1614 0.668,1.559 0.312,0.3942 0.711,0.6481 1.199,0.7621 l 0.008,2.3161 z" /></g></svg>