<?xml version="1.0" encoding="UTF-8" standalone="no"?>
<!-- Created with Inkscape (http://www.inkscape.org/) -->

<svg
   xmlns:dc="http://purl.org/dc/elements/1.1/"
   xmlns:cc="http://creativecommons.org/ns#"
   xmlns:rdf="http://www.w3.org/1999/02/22-rdf-syntax-ns#"
   xmlns:svg="http://www.w3.org/2000/svg"
   xmlns="http://www.w3.org/2000/svg"
   xmlns:sodipodi="http://sodipodi.sourceforge.net/DTD/sodipodi-0.dtd"
   xmlns:inkscape="http://www.inkscape.org/namespaces/inkscape"
   id="svg2"
   version="1.1"
   inkscape:version="0.91 r13725"
   xml:space="preserve"
   width="373.75"
   height="461.25"
   viewBox="0 0 373.75 461.25"
   sodipodi:docname="vga.svg"><metadata
     id="metadata8"><rdf:RDF><cc:Work
         rdf:about=""><dc:format>image/svg+xml</dc:format><dc:type
           rdf:resource="http://purl.org/dc/dcmitype/StillImage" /><dc:title></dc:title></cc:Work></rdf:RDF></metadata><defs
     id="defs6"><clipPath
       clipPathUnits="userSpaceOnUse"
       id="clipPath18"><path
         d="m 0,1.05859 2990,0 0,3680.00001 -2990,0 L 0,1.05859 Z"
         id="path20"
         inkscape:connector-curvature="0" /></clipPath></defs><sodipodi:namedview
     pagecolor="#ffffff"
     bordercolor="#666666"
     borderopacity="1"
     objecttolerance="10"
     gridtolerance="10"
     guidetolerance="10"
     inkscape:pageopacity="0"
     inkscape:pageshadow="2"
     inkscape:window-width="1394"
     inkscape:window-height="873"
     id="namedview4"
     showgrid="false"
     inkscape:zoom="2.8943471"
     inkscape:cx="120.18988"
     inkscape:cy="135.65187"
     inkscape:window-x="0"
     inkscape:window-y="0"
     inkscape:window-maximized="0"
     inkscape:current-layer="g10" /><g
     id="g10"
     inkscape:groupmode="layer"
     inkscape:label="ink_ext_XXXXXX"
     transform="matrix(1.25,0,0,-1.25,0,461.25)"><g
       id="g12"
       transform="scale(0.1,0.1)"><g
         id="g14"><g
           id="g16"
           clip-path="url(#clipPath18)"><path
             d="m 222.699,3558.45 1417.341,0"
             style="fill:none;stroke:#000000;stroke-width:15.94040012;stroke-linecap:butt;stroke-linejoin:miter;stroke-miterlimit:10;stroke-dasharray:none;stroke-opacity:1"
             id="path22"
             inkscape:connector-curvature="0" /><path
             d="m 233.551,3240.4 0,-189.61 c 0,-21.99 17.859,-39.84 39.847,-39.84 l 1337.652,0 c 22,0 39.85,17.85 39.85,39.84 l 0,189.61 c 0,21.99 -17.85,39.84 -39.85,39.84 l -1337.652,0 c -21.988,0 -39.847,-17.85 -39.847,-39.84 z"
             style="fill:#bfbfbf;fill-opacity:1;fill-rule:nonzero;stroke:none"
             id="path24"
             inkscape:connector-curvature="0" /><path
             d="m 233.551,3240.4 0,-189.61 c 0,-21.99 17.859,-39.84 39.847,-39.84 l 1337.652,0 c 22,0 39.85,17.85 39.85,39.84 l 0,189.61 c 0,21.99 -17.85,39.84 -39.85,39.84 l -1337.652,0 c -21.988,0 -39.847,-17.85 -39.847,-39.84 z"
             style="fill:none;stroke:#000000;stroke-width:7.97009993;stroke-linecap:butt;stroke-linejoin:miter;stroke-miterlimit:10;stroke-dasharray:none;stroke-opacity:1"
             id="path26"
             inkscape:connector-curvature="0" /><path
             d="m 233.551,2857.7 0,-189.57 c 0,-22.03 17.859,-39.84 39.847,-39.84 l 1337.652,0 c 22,0 39.85,17.81 39.85,39.84 l 0,189.57 c 0,22.04 -17.85,39.85 -39.85,39.85 l -1337.652,0 c -21.988,0 -39.847,-17.81 -39.847,-39.85 z"
             style="fill:#bfbfbf;fill-opacity:1;fill-rule:nonzero;stroke:none"
             id="path28"
             inkscape:connector-curvature="0" /><path
             d="m 233.551,2857.7 0,-189.57 c 0,-22.03 17.859,-39.84 39.847,-39.84 l 1337.652,0 c 22,0 39.85,17.81 39.85,39.84 l 0,189.57 c 0,22.04 -17.85,39.85 -39.85,39.85 l -1337.652,0 c -21.988,0 -39.847,-17.81 -39.847,-39.85 z"
             style="fill:none;stroke:#000000;stroke-width:7.97009993;stroke-linecap:butt;stroke-linejoin:miter;stroke-miterlimit:10;stroke-dasharray:none;stroke-opacity:1"
             id="path30"
             inkscape:connector-curvature="0" /><path
             d="m 233.551,1338.49 283.48,0 0,992.141 -283.48,0 0,-992.141 z"
             style="fill:#bfbfbf;fill-opacity:1;fill-rule:nonzero;stroke:none"
             id="path32"
             inkscape:connector-curvature="0" /><path
             d="m 233.551,1338.49 283.48,0 0,992.141 -283.48,0 0,-992.141 z"
             style="fill:none;stroke:#000000;stroke-width:7.97009993;stroke-linecap:butt;stroke-linejoin:miter;stroke-miterlimit:10;stroke-dasharray:none;stroke-opacity:1"
             id="path34"
             inkscape:connector-curvature="0" /><path
             d="m 602.07,1338.49 283.48,0 0,992.141 -283.48,0 0,-992.141 z"
             style="fill:#bfbfbf;fill-opacity:1;fill-rule:nonzero;stroke:none"
             id="path36"
             inkscape:connector-curvature="0" /><path
             d="m 602.07,1338.49 283.48,0 0,992.141 -283.48,0 0,-992.141 z"
             style="fill:none;stroke:#000000;stroke-width:7.97009993;stroke-linecap:butt;stroke-linejoin:miter;stroke-miterlimit:10;stroke-dasharray:none;stroke-opacity:1"
             id="path38"
             inkscape:connector-curvature="0" /><path
             d="m 970.59,1338.49 283.43,0 0,992.141 -283.43,0 0,-992.141 z"
             style="fill:#bfbfbf;fill-opacity:1;fill-rule:nonzero;stroke:none"
             id="path40"
             inkscape:connector-curvature="0" /><path
             d="m 970.59,1338.49 283.43,0 0,992.141 -283.43,0 0,-992.141 z"
             style="fill:none;stroke:#000000;stroke-width:7.97009993;stroke-linecap:butt;stroke-linejoin:miter;stroke-miterlimit:10;stroke-dasharray:none;stroke-opacity:1"
             id="path42"
             inkscape:connector-curvature="0" /><path
             d="m 1339.06,1338.49 311.84,0 0,992.141 -311.84,0 0,-992.141 z"
             style="fill:#bfbfbf;fill-opacity:1;fill-rule:nonzero;stroke:none"
             id="path44"
             inkscape:connector-curvature="0" /><path
             d="m 1339.06,1338.49 311.84,0 0,992.141 -311.84,0 0,-992.141 z"
             style="fill:none;stroke:#000000;stroke-width:7.97009993;stroke-linecap:butt;stroke-linejoin:miter;stroke-miterlimit:10;stroke-dasharray:none;stroke-opacity:1"
             id="path46"
             inkscape:connector-curvature="0" /><path
             d="m 233.551,1015.17 0,-203.748 c 0,-22.043 17.859,-39.852 39.847,-39.852 l 1337.652,0 c 22,0 39.85,17.809 39.85,39.852 l 0,203.748 c 0,22.03 -17.85,39.84 -39.85,39.84 l -1337.652,0 c -21.988,0 -39.847,-17.81 -39.847,-39.84 z"
             style="fill:#bfbfbf;fill-opacity:1;fill-rule:nonzero;stroke:none"
             id="path48"
             inkscape:connector-curvature="0" /><path
             d="m 233.551,1015.17 0,-203.748 c 0,-22.043 17.859,-39.852 39.847,-39.852 l 1337.652,0 c 22,0 39.85,17.809 39.85,39.852 l 0,203.748 c 0,22.03 -17.85,39.84 -39.85,39.84 l -1337.652,0 c -21.988,0 -39.847,-17.81 -39.847,-39.84 z"
             style="fill:none;stroke:#000000;stroke-width:7.97009993;stroke-linecap:butt;stroke-linejoin:miter;stroke-miterlimit:10;stroke-dasharray:none;stroke-opacity:1"
             id="path50"
             inkscape:connector-curvature="0" /><path
             d="m 233.551,386.219 0,203.75 c 0,21.992 17.859,39.84 39.847,39.84 l 1337.652,0 c 22,0 39.85,-17.848 39.85,-39.84 l 0,-203.75 c 0,-22.028 -17.85,-39.879 -39.85,-39.879 l -1337.652,0 c -21.988,0 -39.847,17.851 -39.847,39.879 z"
             style="fill:#bfbfbf;fill-opacity:1;fill-rule:nonzero;stroke:none"
             id="path52"
             inkscape:connector-curvature="0" /><path
             d="m 233.551,386.219 0,203.75 c 0,21.992 17.859,39.84 39.847,39.84 l 1337.652,0 c 22,0 39.85,-17.848 39.85,-39.84 l 0,-203.75 c 0,-22.028 -17.85,-39.879 -39.85,-39.879 l -1337.652,0 c -21.988,0 -39.847,17.851 -39.847,39.879 z"
             style="fill:none;stroke:#000000;stroke-width:7.97009993;stroke-linecap:butt;stroke-linejoin:miter;stroke-miterlimit:10;stroke-dasharray:none;stroke-opacity:1"
             id="path54"
             inkscape:connector-curvature="0" /><path
             d="m 945.82,3554.85 -3.59,-274.61"
             style="fill:none;stroke:#000000;stroke-width:15.94040012;stroke-linecap:butt;stroke-linejoin:miter;stroke-miterlimit:10;stroke-dasharray:none;stroke-opacity:1"
             id="path56"
             inkscape:connector-curvature="0" /><path
             d="m 942.23,3010.95 0,-113.4"
             style="fill:none;stroke:#000000;stroke-width:15.94040012;stroke-linecap:butt;stroke-linejoin:miter;stroke-miterlimit:10;stroke-dasharray:none;stroke-opacity:1"
             id="path58"
             inkscape:connector-curvature="0" /><path
             d="m 942.23,2472.35 0,155.94"
             style="fill:none;stroke:#000000;stroke-width:15.94040012;stroke-linecap:butt;stroke-linejoin:miter;stroke-miterlimit:10;stroke-dasharray:none;stroke-opacity:1"
             id="path60"
             inkscape:connector-curvature="0" /><path
             d="m 375.27,2472.35 1133.91,0"
             style="fill:none;stroke:#000000;stroke-width:15.94040012;stroke-linecap:butt;stroke-linejoin:miter;stroke-miterlimit:10;stroke-dasharray:none;stroke-opacity:1"
             id="path62"
             inkscape:connector-curvature="0" /><path
             d="m 375.27,2472.35 0,-141.72"
             style="fill:none;stroke:#000000;stroke-width:15.94040012;stroke-linecap:butt;stroke-linejoin:miter;stroke-miterlimit:10;stroke-dasharray:none;stroke-opacity:1"
             id="path64"
             inkscape:connector-curvature="0" /><path
             d="m 743.789,2472.35 0,-141.72"
             style="fill:none;stroke:#000000;stroke-width:15.94040012;stroke-linecap:butt;stroke-linejoin:miter;stroke-miterlimit:10;stroke-dasharray:none;stroke-opacity:1"
             id="path66"
             inkscape:connector-curvature="0" /><path
             d="m 1112.3,2472.35 0,-141.72"
             style="fill:none;stroke:#000000;stroke-width:15.94040012;stroke-linecap:butt;stroke-linejoin:miter;stroke-miterlimit:10;stroke-dasharray:none;stroke-opacity:1"
             id="path68"
             inkscape:connector-curvature="0" /><path
             d="m 1509.18,2472.35 0,-141.72"
             style="fill:none;stroke:#000000;stroke-width:15.94040012;stroke-linecap:butt;stroke-linejoin:miter;stroke-miterlimit:10;stroke-dasharray:none;stroke-opacity:1"
             id="path70"
             inkscape:connector-curvature="0" /><path
             d="m 375.27,1338.49 0,-283.48"
             style="fill:none;stroke:#000000;stroke-width:15.94040012;stroke-linecap:butt;stroke-linejoin:miter;stroke-miterlimit:10;stroke-dasharray:none;stroke-opacity:1"
             id="path72"
             inkscape:connector-curvature="0" /><path
             d="m 743.789,1338.49 0,-283.48"
             style="fill:none;stroke:#000000;stroke-width:15.94040012;stroke-linecap:butt;stroke-linejoin:miter;stroke-miterlimit:10;stroke-dasharray:none;stroke-opacity:1"
             id="path74"
             inkscape:connector-curvature="0" /><path
             d="m 1112.3,1338.49 0,-283.48"
             style="fill:none;stroke:#000000;stroke-width:15.94040012;stroke-linecap:butt;stroke-linejoin:miter;stroke-miterlimit:10;stroke-dasharray:none;stroke-opacity:1"
             id="path76"
             inkscape:connector-curvature="0" /><path
             d="m 1509.18,1338.49 0,-283.48"
             style="fill:none;stroke:#000000;stroke-width:15.94040012;stroke-linecap:butt;stroke-linejoin:miter;stroke-miterlimit:10;stroke-dasharray:none;stroke-opacity:1"
             id="path78"
             inkscape:connector-curvature="0" /><path
             d="m 942.23,771.57 0,-141.761"
             style="fill:none;stroke:#000000;stroke-width:15.94040012;stroke-linecap:butt;stroke-linejoin:miter;stroke-miterlimit:10;stroke-dasharray:none;stroke-opacity:1"
             id="path80"
             inkscape:connector-curvature="0" /><path
             d="m 19.0586,3384.23 2834.6914,0"
             style="fill:none;stroke:#000000;stroke-width:3.9849999;stroke-linecap:butt;stroke-linejoin:miter;stroke-miterlimit:10;stroke-dasharray:3.985, 19.9255;stroke-dashoffset:0;stroke-opacity:1"
             id="path82"
             inkscape:connector-curvature="0" /><path
             d="m 0,2387.08 2834.69,0"
             style="fill:none;stroke:#000000;stroke-width:3.9849999;stroke-linecap:butt;stroke-linejoin:miter;stroke-miterlimit:10;stroke-dasharray:3.985, 19.9255;stroke-dashoffset:0;stroke-opacity:1"
             id="path84"
             inkscape:connector-curvature="0" /><path
             d="m 4.76953,1138.25 2834.68047,0"
             style="fill:none;stroke:#000000;stroke-width:3.9849999;stroke-linecap:butt;stroke-linejoin:miter;stroke-miterlimit:10;stroke-dasharray:3.985, 19.9255;stroke-dashoffset:0;stroke-opacity:1"
             id="path86"
             inkscape:connector-curvature="0" /><path
             d="m 2068.63,386.219 0,203.75 c 0,21.992 11.57,39.84 25.82,39.84 l 866.6,0 c 14.26,0 25.83,-17.848 25.83,-39.84 l 0,-203.75 c 0,-22.028 -11.57,-39.879 -25.83,-39.879 l -866.6,0 c -14.25,0 -25.82,17.851 -25.82,39.879 z"
             style="fill:#bfbfbf;fill-opacity:1;fill-rule:nonzero;stroke:none"
             id="path88"
             inkscape:connector-curvature="0" /><g
             id="g90"
             transform="scale(0.786319,1.21368)"><path
               d="m 2630.78,318.224 0,167.878 c 0,18.12 14.7,32.826 32.84,32.826 l 1102.1,0 c 18.13,0 32.83,-14.706 32.83,-32.826 l 0,-167.878 c 0,-18.159 -14.7,-32.864 -32.83,-32.864 l -1102.1,0 c -18.14,0 -32.84,14.705 -32.84,32.864 z"
               style="fill:none;stroke:#000000;stroke-width:6.56688023;stroke-linecap:butt;stroke-linejoin:miter;stroke-miterlimit:10;stroke-dasharray:none;stroke-opacity:1"
               id="path92"
               inkscape:connector-curvature="0" /></g><path
             d="m 2067.77,493.445 -369.25,-1.293"
             style="fill:none;stroke:#000000;stroke-width:16;stroke-linecap:butt;stroke-linejoin:miter;stroke-miterlimit:4;stroke-dasharray:none;stroke-opacity:1"
             id="path94"
             inkscape:connector-curvature="0" /><path
             d="m 1661.6,492.039 55.24,32.191 0.23,-63.992 -55.47,31.801 z"
             style="fill:#000000;fill-opacity:1;fill-rule:evenodd;stroke:none"
             id="path96"
             inkscape:connector-curvature="0" /><path
             d="m 1661.61,492.047 55.22,32.18 0.24,-63.981 -55.46,31.801 z"
             style="fill:none;stroke:#000000;stroke-width:8;stroke-linecap:butt;stroke-linejoin:miter;stroke-miterlimit:4;stroke-dasharray:none;stroke-opacity:1"
             id="path98"
             inkscape:connector-curvature="0" /><g
             id="g100"
             transform="scale(10,10)"><text
               transform="matrix(1,0,0,-1,82.0332,43.8266)"
               style="font-variant:normal;font-weight:normal;font-size:12.80000019px;font-family:'Bitstream Vera Sans';-inkscape-font-specification:BitstreamVeraSans-Roman;writing-mode:lr-tb;fill:#000000;fill-opacity:1;fill-rule:nonzero;stroke:none"
               id="text102"><tspan
                 x="0 9.6255312 18.150261"
                 y="0"
                 sodipodi:role="line"
                 id="tspan104">DAC</tspan><tspan
                 x="-18.792999 -13.135477 -5.3147674 -1.2314768 9.8149233 17.648523 25.776613 29.322123 34.352615 42.173325"
                 y="42.645302"
                 sodipodi:role="line"
                 id="tspan106">To Monitor</tspan></text>
</g><path
             d="m 954.059,351.535 0,-173.48"
             style="fill:none;stroke:#000000;stroke-width:16;stroke-linecap:butt;stroke-linejoin:miter;stroke-miterlimit:4;stroke-dasharray:none;stroke-opacity:1"
             id="path108"
             inkscape:connector-curvature="0" /><path
             d="m 954.059,141.141 -32.028,55.347 64.02,0 -31.992,-55.347 z"
             style="fill:#000000;fill-opacity:1;fill-rule:evenodd;stroke:none"
             id="path110"
             inkscape:connector-curvature="0" /><path
             d="m 954.059,141.145 -32.028,55.347 64.02,0 -31.992,-55.347 z"
             style="fill:none;stroke:#000000;stroke-width:8;stroke-linecap:butt;stroke-linejoin:miter;stroke-miterlimit:4;stroke-dasharray:none;stroke-opacity:1"
             id="path112"
             inkscape:connector-curvature="0" /><g
             id="g114"
             transform="scale(10,10)"><text
               transform="matrix(1,0,0,-1,232.376,44.1879)"
               style="font-variant:normal;font-weight:normal;font-size:12.80000019px;font-family:'Bitstream Vera Sans';-inkscape-font-specification:BitstreamVeraSans-Roman;writing-mode:lr-tb;fill:#000000;fill-opacity:1;fill-rule:nonzero;stroke:none"
               id="text116"><tspan
                 x="0 7.1551194 15.001519 18.559919 26.431919 31.44952 36.480011"
                 y="0"
                 sodipodi:role="line"
                 id="tspan118">Palette</tspan><tspan
                 x="-185.39799 -176.45071 -168.4762 -152.45068"
                 y="-43.729698"
                 sodipodi:role="line"
                 id="tspan120">CRT </tspan></text>
<text
               transform="matrix(0.91144,0,0,-1,136.412,178.609)"
               style="font-variant:normal;font-weight:normal;font-size:11.3991003px;font-family:'Bitstream Vera Sans';-inkscape-font-specification:BitstreamVeraSans-Roman;writing-mode:lr-tb;fill:#000000;fill-opacity:1;fill-rule:nonzero;stroke:none"
               id="text122"><tspan
                 x="0 7.2498274 14.5112 21.12261"
                 y="0"
                 sodipodi:role="line"
                 id="tspan124">64kB</tspan></text>
<text
               transform="matrix(1,0,0,-1,30.7145,271.147)"
               style="font-variant:normal;font-weight:normal;font-size:12.80000019px;font-family:'Bitstream Vera Sans';-inkscape-font-specification:BitstreamVeraSans-Roman;writing-mode:lr-tb;fill:#000000;fill-opacity:1;fill-rule:nonzero;stroke:none"
               id="text126"><tspan
                 x="0 8.1280003 16 24.128 32.256092 40.12809 48.25618 55.309071 63.181072 67.251472 76.198761 84.032364 92.160454 97.178055 102.18299 110.0037 113.5621 117.10761 124.97961"
                 y="0"
                 sodipodi:role="line"
                 id="tspan128">Sequence Controller</tspan><tspan
                 x="7.5894499 17.509451 22.78314 30.642431 38.770432 46.898521 50.444031 57.496922 61.580212 70.527504 78.348213 86.476303 91.50679 96.49884 104.33244 107.87795 111.43636 119.30835"
                 y="-39.754299"
                 sodipodi:role="line"
                 id="tspan130">Graphic Controller</tspan></text>
<text
               transform="matrix(0.91144,0,0,-1,97.7418,178.248)"
               style="font-variant:normal;font-weight:normal;font-size:11.3991003px;font-family:'Bitstream Vera Sans';-inkscape-font-specification:BitstreamVeraSans-Roman;writing-mode:lr-tb;fill:#000000;fill-opacity:1;fill-rule:nonzero;stroke:none"
               id="text132"><tspan
                 x="0 7.2498274 14.5112 21.12261 -39.651798 -32.401974 -25.140606 -18.529198"
                 y="0"
                 sodipodi:role="line"
                 id="tspan134">64kB64kB</tspan><tspan
                 x="-80.889297 -73.639473 -66.378105 -59.766693"
                 y="-0.72265601"
                 sodipodi:role="line"
                 id="tspan136">64kB</tspan></text>
<text
               transform="matrix(1,0,0,-1,69.3844,358.606)"
               style="font-variant:normal;font-weight:normal;font-size:12.80000019px;font-family:'Bitstream Vera Sans';-inkscape-font-specification:BitstreamVeraSans-Roman;writing-mode:lr-tb;fill:#000000;fill-opacity:1;fill-rule:nonzero;stroke:none"
               id="text138"><tspan
                 x="0 8.7807999 16.896 23.57769 27.64809 32.678581 40.49929 44.582581 53.529873 61.248272"
                 y="0"
                 sodipodi:role="line"
                 id="tspan140">Bus to CPU</tspan></text>
</g></g></g></g><text
       xml:space="preserve"
       style="font-style:normal;font-weight:normal;font-size:28px;line-height:125%;font-family:sans-serif;letter-spacing:0px;word-spacing:0px;fill:#000000;fill-opacity:1;stroke:none;stroke-width:1px;stroke-linecap:butt;stroke-linejoin:miter;stroke-opacity:1"
       x="77.115837"
       y="-87.895477"
       id="text4268"
       sodipodi:linespacing="125%"
       transform="scale(1,-1)"><tspan
         sodipodi:role="line"
         id="tspan4270"
         x="77.115837"
         y="-87.895477"
         style="font-size:12.80000019px">Controller</tspan></text>
</g></svg>