<?xml version="1.0" encoding="UTF-8" standalone="no"?>
<!-- Created with Inkscape (http://www.inkscape.org/) -->
<svg
   xmlns:svg="http://www.w3.org/2000/svg"
   xmlns="http://www.w3.org/2000/svg"
   version="1.0"
   width="454.99899"
   height="455"
   viewBox="-9.302 -9.782 454.999 455"
   id="Layer_1"
   xml:space="preserve"><defs
   id="defs4693" />
<path
   d="M 19.197,217.218 C 19.197,326.849 108.073,415.721 217.696,415.721 C 327.322,415.721 416.196,326.849 416.196,217.218 C 416.196,107.594 327.324,18.715 217.696,18.715 C 108.073,18.715 19.197,107.594 19.197,217.218 z "
   style="fill:#ffffff;stroke:#000000;stroke-width:5"
   id="path4678" />
<path
   d="M 298.979,217.215 C 298.979,231.108 310.241,242.363 324.129,242.363 C 338.024,242.363 349.278,231.105 349.278,217.215 C 349.278,203.332 338.021,192.069 324.129,192.069 C 310.239,192.07 298.979,203.332 298.979,217.215 z "
   style="fill:none;stroke:#000000;stroke-width:5"
   id="path4680" />
<path
   d="M 86.112,217.215 C 86.112,231.108 97.374,242.363 111.263,242.363 C 125.157,242.363 136.414,231.105 136.414,217.215 C 136.414,203.332 125.157,192.069 111.263,192.069 C 97.374,192.07 86.112,203.332 86.112,217.215 z "
   style="fill:none;stroke:#000000;stroke-width:5"
   id="path4682" />
<path
   d="M 124.657,124.185 C 114.837,134.005 114.837,149.931 124.662,159.751 C 134.483,169.577 150.402,169.577 160.228,159.751 C 170.042,149.936 170.048,134.01 160.223,124.19 C 150.402,114.365 134.477,114.365 124.657,124.185 z "
   style="fill:none;stroke:#000000;stroke-width:5"
   id="path4684" />
<path
   d="M 217.696,85.657 C 203.808,85.657 192.546,96.919 192.551,110.807 C 192.546,124.701 203.802,135.958 217.699,135.958 C 231.576,135.958 242.842,124.701 242.842,110.807 C 242.842,96.919 231.585,85.657 217.696,85.657 z "
   style="fill:none;stroke:#000000;stroke-width:5"
   id="path4686" />
<path
   d="M 310.726,124.202 C 300.912,114.381 284.981,114.381 275.164,124.207 C 265.333,134.027 265.333,149.946 275.159,159.772 C 284.974,169.587 300.899,169.593 310.721,159.767 C 320.546,149.946 320.546,134.021 310.726,124.202 z "
   style="fill:none;stroke:#000000;stroke-width:5"
   id="path4688" />
<path
   d="M 217.699,35.339 C 117.251,35.339 35.816,116.775 35.816,217.218 C 35.816,305.024 98.05,378.297 180.812,395.343 C 183.304,377.177 198.85,363.167 217.702,363.167 C 236.54,363.167 252.088,377.182 254.577,395.349 C 337.342,378.297 399.576,305.024 399.576,217.218 C 399.574,116.775 318.146,35.339 217.699,35.339 z "
   style="fill:none;stroke:#000000;stroke-width:5"
   id="path4690" />
</svg>