<?xml version="1.0" encoding="UTF-8" standalone="no"?>
<!-- Created with Inkscape (http://www.inkscape.org/) -->

<svg
   xmlns:dc="http://purl.org/dc/elements/1.1/"
   xmlns:cc="http://creativecommons.org/ns#"
   xmlns:rdf="http://www.w3.org/1999/02/22-rdf-syntax-ns#"
   xmlns:svg="http://www.w3.org/2000/svg"
   xmlns="http://www.w3.org/2000/svg"
   xmlns:sodipodi="http://sodipodi.sourceforge.net/DTD/sodipodi-0.dtd"
   xmlns:inkscape="http://www.inkscape.org/namespaces/inkscape"
   id="svg2"
   version="1.1"
   inkscape:version="0.91 r13725"
   xml:space="preserve"
   width="448.39249"
   height="448.39249"
   viewBox="0 0 448.39249 448.39249"
   sodipodi:docname="unaligned.svg"><metadata
     id="metadata8"><rdf:RDF><cc:Work
         rdf:about=""><dc:format>image/svg+xml</dc:format><dc:type
           rdf:resource="http://purl.org/dc/dcmitype/StillImage" /><dc:title></dc:title></cc:Work></rdf:RDF></metadata><defs
     id="defs6" /><sodipodi:namedview
     pagecolor="#ffffff"
     bordercolor="#666666"
     borderopacity="1"
     objecttolerance="10"
     gridtolerance="10"
     guidetolerance="10"
     inkscape:pageopacity="0"
     inkscape:pageshadow="2"
     inkscape:window-width="1246"
     inkscape:window-height="827"
     id="namedview4"
     showgrid="false"
     inkscape:zoom="5.5655412"
     inkscape:cx="60.260587"
     inkscape:cy="179.33373"
     inkscape:window-x="133"
     inkscape:window-y="51"
     inkscape:window-maximized="0"
     inkscape:current-layer="g10" /><g
     id="g10"
     inkscape:groupmode="layer"
     inkscape:label="unaligned"
     transform="matrix(1.25,0,0,-1.25,0,448.3925)"><rect
       style="fill:#e9e9e9;fill-opacity:1;stroke:#000000;stroke-width:0.8;stroke-linecap:butt;stroke-miterlimit:4;stroke-dasharray:none;stroke-dashoffset:0;stroke-opacity:1"
       id="rect4595"
       width="109.73616"
       height="81.229713"
       x="147.7005"
       y="-309.26657"
       transform="scale(1,-1)" /><path
       d="M 44.74594,151.06915 145.5332,295.55787"
       style="fill:none;stroke:#808080;stroke-width:0.3985;stroke-linecap:butt;stroke-linejoin:miter;stroke-miterlimit:10;stroke-dasharray:none;stroke-opacity:1"
       id="path28"
       inkscape:connector-curvature="0" /><path
       d="m 37.62704,2.1935 0,354.33512"
       style="fill:none;stroke:#808080;stroke-width:0.3985;stroke-linecap:butt;stroke-linejoin:miter;stroke-miterlimit:10;stroke-dasharray:none;stroke-opacity:1"
       id="path48"
       inkscape:connector-curvature="0" /><path
       d="m 108.49406,2.1935 0,354.33512"
       style="fill:none;stroke:#808080;stroke-width:0.3985;stroke-linecap:butt;stroke-linejoin:miter;stroke-miterlimit:10;stroke-dasharray:none;stroke-opacity:1"
       id="path52"
       inkscape:connector-curvature="0" /><path
       d="m 321.09513,2.1935 0,354.33512"
       style="fill:none;stroke:#808080;stroke-width:0.3985;stroke-linecap:butt;stroke-linejoin:miter;stroke-miterlimit:10;stroke-dasharray:none;stroke-opacity:1"
       id="path64"
       inkscape:connector-curvature="0" /><path
       d="m 2.1935,37.62704 354.33512,0"
       style="fill:none;stroke:#808080;stroke-width:0.3985;stroke-linecap:butt;stroke-linejoin:miter;stroke-miterlimit:10;stroke-dasharray:none;stroke-opacity:1"
       id="path68"
       inkscape:connector-curvature="0" /><path
       d="m 2.1935,250.22811 354.33512,0"
       style="fill:none;stroke:#808080;stroke-width:0.3985;stroke-linecap:butt;stroke-linejoin:miter;stroke-miterlimit:10;stroke-dasharray:none;stroke-opacity:1"
       id="path80"
       inkscape:connector-curvature="0" /><path
       d="m 2.1935,321.09513 354.33512,0"
       style="fill:none;stroke:#808080;stroke-width:0.3985;stroke-linecap:butt;stroke-linejoin:miter;stroke-miterlimit:10;stroke-dasharray:none;stroke-opacity:1"
       id="path84"
       inkscape:connector-curvature="0" /><path
       d="M 44.721906,151.04061 154.14714,243.23478"
       style="fill:none;stroke:#000000;stroke-width:0.8;stroke-linecap:butt;stroke-linejoin:miter;stroke-miterlimit:10;stroke-dasharray:none;stroke-opacity:1"
       id="path88"
       inkscape:connector-curvature="0" /><g
       transform="translate(-104.107,-104.107)"
       id="g112" /><path
       d="m 161.95634,245.5776 c 0,2.75118 -2.23019,4.98139 -4.98139,4.98139 -2.75117,0 -4.98138,-2.23021 -4.98138,-4.98139 0,-2.75119 2.23021,-4.98138 4.98138,-4.98138 2.7512,0 4.98139,2.23019 4.98139,4.98138 z"
       style="fill:#000000;fill-opacity:1;fill-rule:nonzero;stroke:#000000;stroke-width:0.3985;stroke-linecap:butt;stroke-linejoin:miter;stroke-miterlimit:10;stroke-dasharray:none;stroke-opacity:1"
       id="path116"
       inkscape:connector-curvature="0" /><path
       d="m 139.50971,226.6752 c 0,2.75117 -2.23021,4.98138 -4.98138,4.98138 -2.75117,0 -4.98138,-2.23021 -4.98138,-4.98138 0,-2.75118 2.23021,-4.98139 4.98138,-4.98139 2.75117,0 4.98138,2.23021 4.98138,4.98139 z"
       style="fill:#000000;fill-opacity:1;fill-rule:nonzero;stroke:#000000;stroke-width:0.3985;stroke-linecap:butt;stroke-linejoin:miter;stroke-miterlimit:10;stroke-dasharray:none;stroke-opacity:1"
       id="path120"
       inkscape:connector-curvature="0" /><path
       d="m 117.06513,207.77458 c 0,2.75117 -2.2302,4.98138 -4.98138,4.98138 -2.75117,0 -4.98138,-2.23021 -4.98138,-4.98138 0,-2.75118 2.23021,-4.98139 4.98138,-4.98139 2.75118,0 4.98138,2.23021 4.98138,4.98139 z"
       style="fill:#000000;fill-opacity:1;fill-rule:nonzero;stroke:#000000;stroke-width:0.3985;stroke-linecap:butt;stroke-linejoin:miter;stroke-miterlimit:10;stroke-dasharray:none;stroke-opacity:1"
       id="path124"
       inkscape:connector-curvature="0" /><path
       d="m 94.6185,188.87216 c 0,2.75119 -2.23021,4.98138 -4.98139,4.98138 -2.75117,0 -4.98138,-2.23019 -4.98138,-4.98138 0,-2.75118 2.23021,-4.98139 4.98138,-4.98139 2.75118,0 4.98139,2.23021 4.98139,4.98139 z"
       style="fill:#000000;fill-opacity:1;fill-rule:nonzero;stroke:#000000;stroke-width:0.3985;stroke-linecap:butt;stroke-linejoin:miter;stroke-miterlimit:10;stroke-dasharray:none;stroke-opacity:1"
       id="path128"
       inkscape:connector-curvature="0" /><path
       d="m 72.17187,169.96977 c 0,2.75117 -2.23021,4.98138 -4.98138,4.98138 -2.75118,0 -4.98139,-2.23021 -4.98139,-4.98138 0,-2.75118 2.23021,-4.98139 4.98139,-4.98139 2.75117,0 4.98138,2.23021 4.98138,4.98139 z"
       style="fill:#000000;fill-opacity:1;fill-rule:nonzero;stroke:#000000;stroke-width:0.3985;stroke-linecap:butt;stroke-linejoin:miter;stroke-miterlimit:10;stroke-dasharray:none;stroke-opacity:1"
       id="path132"
       inkscape:connector-curvature="0" /><rect
       style="fill:#e9e9e9;fill-opacity:1;stroke:#000000;stroke-width:0.80000001;stroke-linecap:butt;stroke-miterlimit:4;stroke-dasharray:none;stroke-dashoffset:0;stroke-opacity:1"
       id="rect4593"
       width="91.806465"
       height="147.74153"
       x="165.24675"
       y="-224.9893"
       transform="scale(1,-1)" /><path
       d="m 187.56887,201.54945 c 0,2.75117 -2.23021,4.98138 -4.98138,4.98138 -2.75119,0 -4.98139,-2.23021 -4.98139,-4.98138 0,-2.75119 2.2302,-4.98139 4.98139,-4.98139 2.75117,0 4.98138,2.2302 4.98138,4.98139 z"
       style="fill:#000000;fill-opacity:1;fill-rule:nonzero;stroke:#000000;stroke-width:0.3985;stroke-linecap:butt;stroke-linejoin:miter;stroke-miterlimit:10;stroke-dasharray:none;stroke-opacity:1"
       id="path146"
       inkscape:connector-curvature="0" /><path
       d="m 159.99955,191.453 c 0,2.75119 -2.23021,4.98138 -4.98138,4.98138 -2.75119,0 -4.98139,-2.23019 -4.98139,-4.98138 0,-2.75118 2.2302,-4.98139 4.98139,-4.98139 2.75117,0 4.98138,2.23021 4.98138,4.98139 z"
       style="fill:#000000;fill-opacity:1;fill-rule:nonzero;stroke:#000000;stroke-width:0.3985;stroke-linecap:butt;stroke-linejoin:miter;stroke-miterlimit:10;stroke-dasharray:none;stroke-opacity:1"
       id="path150"
       inkscape:connector-curvature="0" /><path
       d="m 132.43276,181.35752 c 0,2.75118 -2.2302,4.98138 -4.98138,4.98138 -2.75118,0 -4.98138,-2.2302 -4.98138,-4.98138 0,-2.75117 2.2302,-4.98138 4.98138,-4.98138 2.75118,0 4.98138,2.23021 4.98138,4.98138 z"
       style="fill:#000000;fill-opacity:1;fill-rule:nonzero;stroke:#000000;stroke-width:0.3985;stroke-linecap:butt;stroke-linejoin:miter;stroke-miterlimit:10;stroke-dasharray:none;stroke-opacity:1"
       id="path154"
       inkscape:connector-curvature="0" /><path
       d="m 104.86341,171.26106 c 0,2.75117 -2.23021,4.98138 -4.98138,4.98138 -2.75118,0 -4.98139,-2.23021 -4.98139,-4.98138 0,-2.75119 2.23021,-4.98139 4.98139,-4.98139 2.75117,0 4.98138,2.2302 4.98138,4.98139 z"
       style="fill:#000000;fill-opacity:1;fill-rule:nonzero;stroke:#000000;stroke-width:0.3985;stroke-linecap:butt;stroke-linejoin:miter;stroke-miterlimit:10;stroke-dasharray:none;stroke-opacity:1"
       id="path158"
       inkscape:connector-curvature="0" /><path
       d="m 77.2941,161.16462 c 0,2.75119 -2.23022,4.98138 -4.98139,4.98138 -2.75118,0 -4.98139,-2.23019 -4.98139,-4.98138 0,-2.75117 2.23021,-4.98138 4.98139,-4.98138 2.75117,0 4.98139,2.23021 4.98139,4.98138 z"
       style="fill:#000000;fill-opacity:1;fill-rule:nonzero;stroke:#000000;stroke-width:0.3985;stroke-linecap:butt;stroke-linejoin:miter;stroke-miterlimit:10;stroke-dasharray:none;stroke-opacity:1"
       id="path162"
       inkscape:connector-curvature="0" /><path
       d="M 44.720312,150.99952 180.28426,200.21621"
       style="fill:none;stroke:#000000;stroke-width:0.65280455;stroke-linecap:butt;stroke-linejoin:miter;stroke-miterlimit:10;stroke-dasharray:none;stroke-opacity:1"
       id="path138"
       inkscape:connector-curvature="0" /><path
       d="m 2.1935,179.3611 354.33512,0"
       style="fill:none;stroke:#808080;stroke-width:0.3985;stroke-linecap:butt;stroke-linejoin:miter;stroke-miterlimit:10;stroke-dasharray:none;stroke-opacity:1"
       id="path76"
       inkscape:connector-curvature="0" /><path
       d="m 44.74594,151.06915 175.43919,15.71162"
       style="fill:none;stroke:#808080;stroke-width:0.3985;stroke-linecap:butt;stroke-linejoin:miter;stroke-miterlimit:10;stroke-dasharray:none;stroke-opacity:1"
       id="path32"
       inkscape:connector-curvature="0" /><path
       d="m 250.22811,2.1935 0,354.33512"
       style="fill:none;stroke:#808080;stroke-width:0.3985;stroke-linecap:butt;stroke-linejoin:miter;stroke-miterlimit:10;stroke-dasharray:none;stroke-opacity:1"
       id="path60"
       inkscape:connector-curvature="0" /><path
       d="m 179.3611,2.1935 0,354.33512"
       style="fill:none;stroke:#808080;stroke-width:0.3985;stroke-linecap:butt;stroke-linejoin:miter;stroke-miterlimit:10;stroke-dasharray:none;stroke-opacity:1"
       id="path56"
       inkscape:connector-curvature="0" /><path
       d="m 2.1935,108.49406 354.33512,0"
       style="fill:none;stroke:#808080;stroke-width:0.3985;stroke-linecap:butt;stroke-linejoin:miter;stroke-miterlimit:10;stroke-dasharray:none;stroke-opacity:1"
       id="path72"
       inkscape:connector-curvature="0" /><path
       d="m 49.72732,151.06915 c 0,2.75117 -2.23021,4.98138 -4.98138,4.98138 -2.75119,0 -4.98139,-2.23021 -4.98139,-4.98138 0,-2.75118 2.2302,-4.98139 4.98139,-4.98139 2.75117,0 4.98138,2.23021 4.98138,4.98139 z"
       style="fill:#ffffff;fill-opacity:1;fill-rule:nonzero;stroke:#000000;stroke-width:0.3985;stroke-linecap:butt;stroke-linejoin:miter;stroke-miterlimit:10;stroke-dasharray:none;stroke-opacity:1"
       id="path92"
       inkscape:connector-curvature="0" /><text
       xml:space="preserve"
       style="font-style:normal;font-weight:normal;font-size:11.19999981px;line-height:125%;font-family:Sans;letter-spacing:0px;word-spacing:0px;fill:#000000;fill-opacity:1;stroke:none;stroke-width:1px;stroke-linecap:butt;stroke-linejoin:miter;stroke-opacity:1"
       x="27.454653"
       y="-137.7045"
       id="text4166"
       sodipodi:linespacing="125%"
       transform="scale(1,-1)"><tspan
         sodipodi:role="line"
         id="tspan4168"
         x="27.454653"
         y="-137.7045">player</tspan></text>
</g></svg>